<svg width="560" height="243" viewBox="0 0 560 243" fill="none" xmlns="http://www.w3.org/2000/svg">
<path d="M34.978 146.208H44.362V149.642H38.65V170.79H34.978V146.208ZM42.152 146.208H45.892V163.48C45.892 165.112 45.62 166.064 44.532 166.676C43.512 167.254 42.084 167.322 40.112 167.322C39.942 166.336 39.466 164.806 38.956 163.888C40.112 163.922 41.268 163.922 41.642 163.888C42.016 163.888 42.152 163.752 42.152 163.378V146.208ZM32.53 144.168L35.318 147.228C32.938 148.554 30.048 149.642 27.566 150.458C27.396 149.642 26.818 148.35 26.376 147.568C28.586 146.684 31 145.324 32.53 144.168ZM26.546 167.866L26.206 164.466L27.77 163.14L33.992 161.644C33.958 162.766 34.026 164.398 34.162 165.282C28.416 166.914 27.26 167.39 26.546 167.866ZM26.546 167.866C26.308 166.982 25.594 165.452 25.05 164.738C25.696 164.364 26.376 163.582 26.376 162.154V147.568H30.15V164.636C30.15 164.636 26.546 166.608 26.546 167.866ZM16.312 146.004L19.338 144.134C20.97 145.732 22.874 147.874 23.894 149.234L20.8 151.512C19.848 150.05 17.876 147.67 16.312 146.004ZM15.462 152.056H22.568V155.32H15.462V152.056ZM22.364 166.846C24.2 171.436 28.178 171.98 34.332 172.014C37.97 172.014 43.58 171.776 47.422 171.436C46.844 172.252 46.334 174.088 46.13 175.21C42.594 175.414 38.242 175.516 34.264 175.516C26.376 175.516 22.16 174.462 19.644 167.934L22.364 166.846ZM21.446 160.318H22.432L23.078 160.25L25.016 160.964C23.894 168.478 21.106 173.51 17.128 176.094C16.618 175.312 15.292 173.918 14.544 173.374C18.182 171.164 20.63 166.914 21.446 160.93V160.318ZM16.074 164.024V161.1L17.536 160.318H22.534V163.48H18.182C17.366 163.48 16.38 163.718 16.074 164.024ZM16.074 164.024C15.87 163.174 15.156 161.44 14.782 160.692C15.326 160.556 15.904 160.318 16.55 159.604C17.536 158.652 20.528 154.3 21.684 152.43V152.328L22.704 151.886L25.186 153.008C23.622 155.354 20.732 159.57 18.828 161.78C18.828 161.78 16.074 163.106 16.074 164.024ZM53.508 147.568V149.744H55.31V147.568H53.508ZM50.618 145.018H58.302V152.328H50.618V145.018ZM62.416 147.568V149.744H64.252V147.568H62.416ZM59.526 145.018H67.244V152.328H59.526V145.018ZM67.312 154.096L81.388 152.396L81.83 156.136L67.754 157.904L67.312 154.096ZM74.894 146.208L77.988 144.61C79.314 146.378 80.81 148.758 81.388 150.356L78.09 152.158C77.58 150.56 76.186 148.044 74.894 146.208ZM54.324 161.236V163.004H63.47V161.236H54.324ZM54.324 156.612V158.414H63.47V156.612H54.324ZM50.958 153.62H66.972V166.03H50.958V153.62ZM49.598 167.73H67.856V171.3H49.598V167.73ZM57.112 154.64H60.546V164.772H60.818V176.06H56.874V164.772H57.112V154.64ZM69.93 144.338H73.772C73.942 158.788 75.744 171.028 78.158 171.198C78.668 171.232 79.042 169.634 79.212 166.574C79.892 167.424 81.558 168.478 82.17 168.852C81.32 174.802 79.586 176.128 78.124 176.094C72.106 175.822 70.406 163.106 69.93 144.338ZM77.852 157.122L80.946 158.856C78.668 165.758 73.942 172.456 68.162 175.754C67.482 174.802 66.224 173.612 65.204 172.898C71.188 170.042 75.744 163.752 77.852 157.122ZM99.51 159.298H116.374V163.072H99.51V159.298ZM99.918 149.676H114.47V161.27H110.764V153.45H99.918V149.676ZM104.372 144.134H108.146V156.578C108.146 163.684 107.364 171.096 100.734 176.128C100.088 175.244 98.66 173.918 97.776 173.306C103.692 168.954 104.372 162.664 104.372 156.544V144.134ZM84.482 156.102H98.694V159.876H84.482V156.102ZM87.508 147.738H97.912V151.444H87.508V147.738ZM94.988 161.508H98.32V173.714H94.988V161.508ZM89.922 149.778H93.492V170.926H89.922V149.778ZM87.066 144.1L90.67 144.848C89.888 148.826 88.528 153.008 86.998 155.626C86.284 155.082 84.686 154.13 83.802 153.722C85.298 151.342 86.454 147.636 87.066 144.1ZM85.23 161.508H88.46V169.09H96.314V172.626H85.23V161.508ZM108.248 165.146L111.58 163.922C113.212 167.22 115.388 171.64 116.374 174.292L112.736 175.822C111.852 173.136 109.88 168.546 108.248 165.146ZM120.148 150.832H150.102V155.048H120.148V150.832ZM137.896 144.134H142.418V170.654C142.418 173.17 141.874 174.326 140.31 174.972C138.78 175.652 136.468 175.788 133.068 175.754C132.898 174.53 132.252 172.626 131.64 171.402C133.782 171.538 136.23 171.538 136.91 171.504C137.624 171.47 137.896 171.266 137.896 170.62V144.134ZM135.618 151.512L139.256 153.858C135.652 160.964 129.056 168.41 122.29 172.456C121.542 171.266 120.182 169.702 118.992 168.75C125.86 165.35 132.388 158.244 135.618 151.512ZM162.75 146.208H173.868V149.608H162.75V146.208ZM162.58 143.998L167.102 144.78C164.79 149.608 161.458 154.3 156.392 158.108C155.746 157.122 154.352 155.66 153.4 155.048C158.024 151.92 161.016 147.704 162.58 143.998ZM160.132 152.124H184.918V155.796H160.132V152.124ZM166.558 158.142H178.016V161.644H166.558V158.142ZM164.586 158.142H168.564V170.348C168.564 171.912 169.006 172.184 171.488 172.184C172.678 172.184 177.71 172.184 179.104 172.184C181.348 172.184 181.722 171.47 181.96 167.288C182.912 167.9 184.612 168.546 185.734 168.784C185.156 174.326 183.932 175.856 179.376 175.856C178.186 175.856 172.338 175.856 171.216 175.856C166.15 175.856 164.586 174.734 164.586 170.416V158.142ZM176.86 158.142H180.838C180.838 158.142 180.804 159.094 180.77 159.57C180.498 164.534 180.158 166.812 179.376 167.73C178.696 168.478 177.914 168.75 176.928 168.886C176.044 168.988 174.446 169.022 172.814 168.954C172.746 167.866 172.338 166.404 171.76 165.418C173.086 165.554 174.344 165.588 174.888 165.588C175.398 165.588 175.704 165.554 175.976 165.248C176.418 164.772 176.656 163.038 176.86 158.652V158.142ZM158.058 152.124H162.104V158.584C162.104 163.752 161.22 171.402 156.664 176.128C156.018 175.346 154.352 173.884 153.502 173.408C157.65 169.124 158.058 162.97 158.058 158.516V152.124ZM172.474 146.208H173.46L174.14 146.004L177.132 147.942C175.908 150.254 173.902 153.348 172.27 155.32C171.42 154.674 170.026 153.79 169.108 153.28C170.434 151.512 171.862 148.656 172.474 147.024V146.208ZM188.794 150.492H197.634V154.232H188.794V150.492ZM191.82 144.134H195.288V176.06H191.82V144.134ZM191.82 153.042L193.656 153.926C192.976 159.162 191.412 165.588 189.508 168.954C189.168 167.798 188.42 165.996 187.91 164.942C189.644 162.222 191.174 157.122 191.82 153.042ZM195.152 155.524C195.798 156.34 198.008 159.91 198.518 160.76L196.716 163.514C196.138 161.78 194.506 158.38 193.758 156.986L195.152 155.524ZM198.382 161.678H219.632V164.806H198.382V161.678ZM201.272 167.594L203.618 165.452C205.046 166.574 207.086 168.206 208.106 169.26L205.658 171.674C204.706 170.586 202.734 168.818 201.272 167.594ZM212.662 160.216L214.736 158.448C215.722 159.162 217.082 160.182 217.762 160.862L215.654 162.834C214.974 162.12 213.682 160.998 212.662 160.216ZM214.974 164.568L218.34 165.826C215.96 170.552 211.676 173.986 206.44 175.958C206.032 175.278 205.046 174.02 204.332 173.374C209.262 171.674 213.07 168.546 214.974 164.568ZM206.508 144.406H209.874C210.18 160.046 212.288 171.572 216.742 172.116C217.388 172.184 217.762 170.96 218.034 168.546C218.646 169.328 219.972 170.314 220.618 170.654C219.734 174.972 218.34 176.128 216.844 176.026C209.194 175.414 207.086 162.8 206.508 144.406ZM203.584 155.082L205.93 154.47C206.508 156.068 207.052 158.142 207.256 159.366L204.74 160.148C204.57 158.856 204.094 156.714 203.584 155.082ZM198.824 153.858C198.654 153.246 198.212 151.852 197.872 151.104C198.28 151.002 198.722 150.56 199.096 149.914C199.47 149.268 200.728 146.82 201.34 144.406L204.298 145.188C203.312 147.806 201.714 150.594 200.388 152.294V152.362C200.388 152.362 198.824 153.28 198.824 153.858ZM198.824 153.858L198.756 151.784L200.048 150.968L204.502 150.628C204.094 151.376 203.686 152.464 203.516 153.042C200.15 153.416 199.266 153.62 198.824 153.858ZM199.164 160.08C199.028 159.502 198.552 158.04 198.246 157.292C198.79 157.156 199.334 156.578 199.946 155.728C200.592 154.912 202.7 151.75 203.89 148.656L206.78 149.642C205.046 152.974 202.734 156.34 200.626 158.55V158.584C200.626 158.584 199.164 159.536 199.164 160.08ZM199.164 160.08L199.062 157.87L200.218 157.054L205.046 156.51C205.148 157.224 205.42 158.278 205.624 158.856C200.626 159.536 199.674 159.774 199.164 160.08ZM216.164 154.708L218.476 154.062C219.122 155.626 219.768 157.734 220.074 158.992L217.626 159.808C217.388 158.516 216.742 156.306 216.164 154.708ZM211.404 153.348C211.234 152.736 210.792 151.376 210.452 150.594C210.86 150.526 211.268 150.084 211.608 149.472C211.948 148.86 213.138 146.548 213.682 144.304L216.606 145.086C215.688 147.568 214.192 150.186 212.934 151.784V151.852C212.934 151.852 211.404 152.77 211.404 153.348ZM211.404 153.348L211.37 151.274L212.594 150.458L216.98 150.152C216.606 150.866 216.198 151.988 216.028 152.566C212.696 152.906 211.846 153.11 211.404 153.348ZM211.778 159.57C211.642 158.992 211.166 157.53 210.86 156.782C211.404 156.612 211.914 156.068 212.526 155.218C213.172 154.402 215.212 151.206 216.368 148.112L219.292 149.098C217.66 152.43 215.348 155.83 213.274 158.04V158.074C213.274 158.074 211.778 159.026 211.778 159.57ZM211.778 159.57L211.676 157.394L212.832 156.578L217.592 156C217.728 156.714 218 157.7 218.204 158.278C213.24 159.06 212.322 159.298 211.778 159.57ZM200.422 162.766H203.856V164.126C203.856 167.764 202.734 172.694 198.45 176.06C197.906 175.38 196.478 174.156 195.73 173.714C199.742 170.79 200.422 166.88 200.422 164.024V162.766Z" fill="#373737"/>
<path d="M240.637 182L243.451 171.866H238V159H254V171.425L249.692 182H240.637Z" fill="#009E96"/>
<path d="M15.258 196.97H30.83V200.676H15.258V196.97ZM15.938 212.882H30.218V216.554H15.938V212.882ZM21.14 209.754H25.22V222.436H21.14V209.754ZM14.884 221.348C18.896 220.906 25.016 220.09 30.694 219.274L30.864 223.116C25.492 224 19.712 224.85 15.462 225.496L14.884 221.348ZM24.098 202.818L27.192 201.39C28.45 203.464 30.15 206.32 30.932 208.054L27.668 209.72C26.954 207.918 25.39 204.994 24.098 202.818ZM34.944 201.356H43.274V205.13H34.944V201.356ZM35.284 195.372L39.058 195.95C37.902 203.634 35.828 211.318 32.326 216.248C31.986 215.296 30.864 213.222 30.15 212.304C32.904 208.258 34.434 201.9 35.284 195.372ZM32.972 201.322C35.08 211.114 39.466 219.886 46.878 223.932C46.028 224.646 44.736 226.074 44.124 227.128C36.372 222.334 32.292 213.018 29.912 201.934L32.972 201.322ZM16.516 209.788C16.278 208.972 15.632 207.136 15.224 206.116C15.768 205.946 16.278 205.436 16.822 204.654C17.366 203.872 18.964 201.05 19.882 198.228L23.962 199.384C22.636 202.444 20.562 205.674 18.828 207.748V207.816C18.828 207.816 16.516 209.04 16.516 209.788ZM16.516 209.788L16.414 206.83L18.318 205.64L27.906 205.028C28.008 206.082 28.28 207.544 28.484 208.394C18.998 209.176 17.502 209.346 16.516 209.788ZM42.22 201.356H42.934L43.614 201.186L46.232 202.002C44.634 214.752 39.67 222.912 31.714 227.298C31.136 226.176 29.912 224.374 28.994 223.558C36.236 220.26 40.962 212.44 42.22 202.138V201.356ZM61.77 202.206H87.814V206.388H61.77V202.206ZM86.148 202.206H90.398C90.398 202.206 90.364 203.6 90.296 204.178C89.616 217.778 88.936 222.946 87.406 224.748C86.42 226.04 85.434 226.414 83.938 226.618C82.646 226.822 80.538 226.788 78.464 226.686C78.396 225.496 77.818 223.66 77.036 222.47C79.212 222.64 81.218 222.674 82.136 222.674C82.816 222.674 83.224 222.538 83.7 222.096C84.89 220.94 85.57 215.568 86.148 203.022V202.206ZM72.208 195.202H76.526V202.206C76.526 209.924 75.438 220.702 63.878 227.23C63.232 226.244 61.702 224.646 60.682 223.932C71.256 218.186 72.208 208.768 72.208 202.206V195.202ZM111.104 213.086H134.156V216.588H111.104V213.086ZM106.514 200.676H129.022V204.348H106.514V200.676ZM116.544 206.932H131.98V210.434H116.544V206.932ZM132.592 213.086H136.672C136.672 213.086 136.604 214.14 136.536 214.65C135.992 221.552 135.38 224.51 134.292 225.666C133.476 226.55 132.66 226.856 131.538 226.992C130.586 227.094 128.954 227.094 127.186 227.06C127.152 225.938 126.676 224.34 126.03 223.32C127.526 223.49 128.954 223.524 129.634 223.49C130.212 223.49 130.552 223.422 130.892 223.116C131.572 222.436 132.15 219.852 132.592 213.664V213.086ZM125.35 217.778L128.172 216.792C129.09 218.186 130.008 220.09 130.348 221.314L127.39 222.402C127.084 221.178 126.2 219.206 125.35 217.778ZM110.322 196.562L113.994 195.134C115.184 196.426 116.646 198.296 117.326 199.588L113.416 201.186C112.872 199.928 111.512 197.956 110.322 196.562ZM115.082 218.696L118.38 218.288C119.026 220.498 119.366 223.354 119.366 225.258L115.864 225.734C115.966 223.864 115.626 220.94 115.082 218.696ZM120.216 218.424L123.344 217.71C124.16 219.614 124.908 222.096 125.18 223.728L121.882 224.578C121.678 222.912 120.964 220.362 120.216 218.424ZM110.56 217.574L113.96 218.696C113.28 221.62 112.226 224.816 110.22 226.924L107.092 224.68C108.792 222.98 109.982 220.226 110.56 217.574ZM120.794 195.1L124.976 196.086C121.95 205.844 116.748 214.99 107.092 220.192C106.616 219.172 105.596 217.54 104.916 216.656C113.586 212.304 118.516 203.702 120.794 195.1ZM128.24 200.676H131.98C131.504 203.226 130.858 206.218 130.28 208.19L126.744 207.646C127.254 205.776 127.866 202.954 128.24 200.676ZM130.45 206.932H134.19C133.714 209.414 133.102 212.372 132.558 214.31L128.988 213.834C129.532 211.93 130.11 209.176 130.45 206.932ZM160.71 196.494H181.892V199.418H160.71V196.494ZM164.892 203.6H177.71V205.266H164.892V203.6ZM164.892 206.32H177.71V207.986H164.892V206.32ZM162.818 200.608H179.716V210.06H175.908V202.614H166.456V210.06H162.818V200.608ZM159.724 209.074H182.606V213.936H178.968V211.352H163.158V213.936H159.724V209.074ZM164.552 211.93L166.932 213.188C166.116 214.514 164.926 216.044 163.532 216.996L161.288 215.228C162.546 214.48 163.804 213.12 164.552 211.93ZM166.15 212.066H169.38V213.63C169.38 214.31 169.55 214.412 170.468 214.412C170.876 214.412 172.916 214.412 173.494 214.412C174.14 214.412 174.31 214.242 174.446 213.256C175.024 213.596 176.214 213.936 176.996 214.038C176.724 216.01 175.942 216.588 173.936 216.588C173.256 216.588 170.672 216.588 169.992 216.588C166.932 216.588 166.15 215.942 166.15 213.63V212.066ZM169.38 211.896L171.59 210.74C172.508 211.386 173.664 212.406 174.276 213.052L171.998 214.378C171.42 213.698 170.298 212.644 169.38 211.896ZM175.296 213.086L177.404 211.828C178.662 212.984 180.192 214.616 180.974 215.704L178.764 217.098C178.05 216.01 176.554 214.31 175.296 213.086ZM167.748 215.602L171.182 216.282C168.972 219.07 165.98 221.416 161.764 223.32C161.322 222.572 160.268 221.484 159.554 221.008C163.396 219.546 166.15 217.506 167.748 215.602ZM176.214 217.608H176.962L177.642 217.472L180.09 218.798C177.132 223.286 170.434 225.972 160.914 227.196C160.54 226.312 159.724 225.054 159.01 224.272C167.986 223.388 174.208 221.212 176.214 218.186V217.608ZM164.11 217.268C167.272 221.348 174.106 223.456 182.538 224.068C181.858 224.782 181.008 226.142 180.6 227.06C171.794 226.142 165.028 223.524 161.152 218.288L164.11 217.268ZM167.102 217.608H177.166V220.022H164.688L167.102 217.608ZM168.972 197.854L173.392 198.33C172.78 199.792 172.202 201.084 171.76 202.036L168.258 201.458C168.53 200.336 168.87 198.874 168.972 197.854ZM156.732 195.202L160.506 196.29C158.602 202.24 155.542 208.7 152.142 212.78C151.802 211.76 150.816 209.448 150.17 208.36C152.856 205.13 155.304 200.166 156.732 195.202ZM154.284 204.518L158.058 200.778L158.16 200.846V227.026H154.284V204.518ZM196.852 202.308H226.806V205.912H196.852V202.308ZM201.068 212.44H215.076V215.874H201.068V212.44ZM209.704 197.684H213.75V211.658H209.704V197.684ZM207.834 203.294L211.268 204.654C208.31 208.972 203.38 212.576 198.246 214.446C197.634 213.46 196.478 211.998 195.594 211.216C200.524 209.72 205.352 206.694 207.834 203.294ZM220.686 195.168L223.61 198.33C216.844 199.69 207.392 200.336 199.402 200.506C199.3 199.588 198.858 198.024 198.484 197.208C206.304 196.97 215.314 196.29 220.686 195.168ZM205.692 213.528H209.908C209.16 219.478 207.392 224.408 199.062 227.162C198.62 226.108 197.532 224.476 196.682 223.66C203.958 221.62 205.08 217.88 205.692 213.528ZM220.788 215.976H224.936C224.936 215.976 224.834 217.03 224.766 217.574C224.256 222.402 223.678 224.714 222.658 225.7C221.808 226.55 220.89 226.822 219.496 226.924C218.408 227.026 216.504 227.026 214.464 226.958C214.396 225.802 213.886 224.204 213.172 223.184C215.042 223.354 217.082 223.388 217.898 223.388C218.51 223.388 218.952 223.354 219.326 223.082C219.938 222.538 220.414 220.634 220.788 216.486V215.976ZM215.722 215.976H221.774V219.41H214.736L215.722 215.976ZM214.498 212.44H218.34C217.762 214.854 217.014 217.608 216.402 219.41H212.662C213.308 217.506 214.022 214.752 214.498 212.44ZM212.152 206.558L215.178 204.348C219.36 206.116 225.174 208.972 228.268 211.08L225.004 213.596C222.25 211.556 216.504 208.496 212.152 206.558ZM254.414 195.168H259.072C258.868 202.206 258.664 218.628 244.452 226.992C243.704 225.904 242.378 224.612 241.052 223.694C254.89 216.248 254.244 200.982 254.414 195.168ZM258.698 199.316C258.97 202.07 260.058 217.37 273.318 223.286C272.094 224.238 270.938 225.632 270.326 226.788C256.386 220.158 255.264 203.158 254.754 199.758L258.698 199.316ZM287.428 201.832H317.382V206.048H287.428V201.832ZM305.176 195.134H309.698V221.654C309.698 224.17 309.154 225.326 307.59 225.972C306.06 226.652 303.748 226.788 300.348 226.754C300.178 225.53 299.532 223.626 298.92 222.402C301.062 222.538 303.51 222.538 304.19 222.504C304.904 222.47 305.176 222.266 305.176 221.62V195.134ZM302.898 202.512L306.536 204.858C302.932 211.964 296.336 219.41 289.57 223.456C288.822 222.266 287.462 220.702 286.272 219.75C293.14 216.35 299.668 209.244 302.898 202.512ZM349.104 205.3H355.972V208.36H349.104V205.3ZM346.418 215.228H357.638V217.948H346.418V215.228ZM334.96 196.324H344.276V199.52H334.96V196.324ZM343.222 196.324H343.902L344.548 196.188L347.098 197.412C344.582 203.362 339.244 207.238 333.43 209.346C332.954 208.462 331.968 207.068 331.254 206.354C336.422 204.824 341.386 201.254 343.222 196.902V196.324ZM350.464 195.27C352.742 200.302 357.434 204.212 363.724 205.844C362.908 206.626 361.854 208.088 361.31 209.04C354.646 206.932 349.954 202.41 347.2 196.222L350.464 195.27ZM355.564 195.338L358.488 197.412C356.89 198.806 355.054 200.2 353.66 201.152L351.314 199.35C352.64 198.33 354.51 196.596 355.564 195.338ZM359.95 198.738L362.874 200.778C361.276 202.206 359.406 203.634 357.978 204.552L355.53 202.75C356.924 201.73 358.862 199.996 359.95 198.738ZM336.524 205.47H345.126V213.97H341.488V208.564H336.524V205.47ZM335.436 210.978H338.734C338.394 213.766 337.918 217.098 337.51 219.274H334.11C334.62 217.03 335.13 213.664 335.436 210.978ZM341.454 216.316H345.126C345.126 216.316 345.092 217.234 345.024 217.71C344.684 222.368 344.276 224.544 343.426 225.462C342.644 226.244 341.828 226.516 340.672 226.618C339.72 226.72 337.952 226.72 336.116 226.652C336.048 225.564 335.572 224.17 334.96 223.218C336.66 223.354 338.36 223.388 339.074 223.388C339.652 223.388 340.026 223.354 340.332 223.082C340.876 222.606 341.216 220.838 341.454 216.792V216.316ZM347.54 205.3H350.94V207.782C350.94 210.298 350.26 213.188 347.2 215.126C346.69 214.412 345.33 213.052 344.65 212.576C347.2 211.114 347.54 209.312 347.54 207.714V205.3ZM356.822 215.228H357.536L358.148 215.126L360.392 215.874C358.182 222.436 353.014 225.564 346.248 227.06C345.908 226.21 345.16 224.85 344.548 224.102C350.43 223.116 355.122 220.43 356.822 215.67V215.228ZM336.898 210.978H342.712V213.97H336.354L336.898 210.978ZM335.946 216.316H342.474V219.274H335.368L335.946 216.316ZM333.838 201.696L336.116 199.554C337.51 200.234 339.312 201.322 340.23 202.104L337.816 204.484C337 203.668 335.198 202.478 333.838 201.696ZM354.068 205.3H357.4V210.366C357.4 211.182 357.468 211.454 357.91 211.454C358.25 211.454 359.236 211.454 359.576 211.454C360.086 211.454 360.902 211.42 361.344 211.284C361.378 212.1 361.48 213.29 361.582 214.072C361.106 214.242 360.358 214.276 359.644 214.276C359.202 214.276 358.012 214.276 357.502 214.276C354.646 214.276 354.068 213.12 354.068 210.332V205.3ZM345.874 219.58L347.812 217.268C351.79 219.308 357.638 222.436 360.596 224.408L358.522 227.094C355.768 225.122 350.022 221.79 345.874 219.58ZM390.244 196.494H407.482V206.014H390.142V202.682H403.674V199.826H390.244V196.494ZM387.966 196.494H391.706V207.306C391.706 213.086 391.196 221.722 387.898 227.128C387.218 226.482 385.62 225.292 384.736 224.918C387.728 219.92 387.966 212.61 387.966 207.306V196.494ZM398.166 206.932H401.498V224.884H398.166V206.932ZM404.32 217.37H407.618V226.89H404.32V217.37ZM392.726 208.122H395.888V212.78H403.912V208.054H407.244V215.942H392.726V208.122ZM376.44 212.372C379.092 211.828 382.934 210.774 386.674 209.754L387.184 213.426C383.852 214.412 380.248 215.466 377.358 216.316L376.44 212.372ZM376.984 201.594H386.878V205.334H376.984V201.594ZM380.418 195.168H384.158V222.3C384.158 224.17 383.852 225.224 382.798 225.836C381.778 226.482 380.282 226.618 378.072 226.618C377.97 225.598 377.528 223.932 377.052 222.844C378.276 222.878 379.466 222.878 379.874 222.878C380.282 222.878 380.418 222.742 380.418 222.266V195.168ZM392.216 217.404H395.446V222.708H406.326V225.904H392.216V217.404ZM437.028 197.208H450.186V200.914H437.028V197.208ZM435.668 209.142H453.926V213.018H435.668V209.142ZM442.876 205.912H447.092V222.674C447.092 224.748 446.65 225.802 445.256 226.414C443.828 226.992 441.924 227.094 439.238 227.094C439.034 225.938 438.422 224.272 437.878 223.184C439.578 223.252 441.584 223.252 442.128 223.252C442.672 223.252 442.876 223.082 442.876 222.606V205.912ZM448.622 197.208H449.71L450.662 197.004L453.416 198.976C451.342 202.138 448.316 205.912 445.154 208.19C444.644 207.51 443.522 206.456 442.876 205.912C445.188 203.906 447.568 200.336 448.622 198.092V197.208ZM422.578 213.664L425.026 210.842C428.766 214.004 434.274 218.628 436.79 221.552L434.104 224.952C431.69 221.892 426.386 217.098 422.578 213.664ZM422.578 213.664C423.87 208.972 425.196 201.254 425.57 195.202L429.616 195.406C429.038 201.832 427.61 209.754 426.284 214.922L422.578 213.664ZM431.214 199.962H435.022V203.804C435.022 210.332 434.104 220.362 424.788 227.162C424.21 226.278 422.816 224.918 421.932 224.272C430.466 218.322 431.214 209.448 431.214 203.736V199.962ZM421.898 202.512C425.774 202.376 431.452 202.104 436.824 201.798L436.79 205.436C431.69 205.81 426.25 206.15 422.272 206.388L421.898 202.512ZM485.07 209.652L488.3 208.768C488.81 209.55 489.32 210.706 489.49 211.454L486.124 212.474C485.988 211.692 485.546 210.536 485.07 209.652ZM479.46 215.262H496.46V217.744H479.46V215.262ZM479.46 219.172H496.46V221.654H479.46V219.172ZM478.95 223.184H498.194V226.006H478.95V223.184ZM480.412 211.08H497.31V213.834H480.412V227.026H476.672V214.854L480.378 211.08H480.412ZM485.648 212.542H489.422V224.442H485.648V212.542ZM479.188 208.02L482.86 209.142C481.126 213.052 478.27 216.962 475.312 219.342C474.87 218.56 473.646 216.792 472.898 216.01C475.448 214.106 477.828 211.114 479.188 208.02ZM473.442 201.594H496.698V209.21H473.442V206.32H492.686V204.484H473.442V201.594ZM493.604 195.134L496.698 198.262C489.796 199.724 480.174 200.506 472.048 200.744C471.946 199.792 471.47 198.262 471.096 197.446C479.052 197.14 488.232 196.358 493.604 195.134ZM471.096 197.446H475.108V207.204C475.108 212.984 474.53 221.62 470.79 227.06C470.042 226.414 468.274 225.326 467.254 224.952C470.824 219.886 471.096 212.474 471.096 207.204V197.446ZM514.616 201.56H542.088V205.538H514.616V201.56ZM516.418 211.454H540.456V215.398H516.418V211.454ZM513.154 221.994H543.754V226.006H513.154V221.994ZM526.176 205.028H530.664V224.136H526.176V205.028ZM523.15 197.412L526.516 195.066C528.692 196.46 531.616 198.67 533.078 200.268L529.474 202.886C528.182 201.322 525.394 199.01 523.15 197.412Z" fill="#373737"/>
<path d="M293.936 147.16L296.996 145.052C298.866 146.65 301.076 148.928 302.096 150.526L298.798 152.838C297.914 151.206 295.772 148.826 293.936 147.16ZM271.666 153.79H302.368V157.666H271.666V153.79ZM271.02 163.412C275.134 162.8 281.594 161.678 287.544 160.59L287.85 164.296C282.342 165.452 276.426 166.642 272.04 167.526L271.02 163.412ZM278.126 148.316H282.24V171.3C282.24 173.51 281.798 174.632 280.404 175.278C279.044 175.924 277.038 176.06 274.25 176.06C274.08 174.904 273.4 173.068 272.788 171.912C274.726 172.014 276.698 172.014 277.31 171.98C277.922 171.98 278.126 171.81 278.126 171.232V148.316ZM285.096 144.338L287.85 147.806C283.43 149.166 277.616 150.084 272.686 150.628C272.482 149.676 271.972 148.146 271.496 147.228C276.29 146.582 281.594 145.528 285.096 144.338ZM288.428 144.406H292.712C292.474 158.108 295.534 172.048 298.628 172.048C299.342 172.048 299.716 170.382 299.92 166.336C300.77 167.288 302.164 168.24 303.252 168.682C302.606 174.7 301.314 176.196 298.22 176.196C291.182 176.196 288.53 159.672 288.428 144.406ZM297.676 158.788L301.28 160.318C297.744 166.642 292.202 171.708 286.048 174.972C285.436 173.952 284.314 172.592 283.294 171.674C289.108 169.022 294.65 164.398 297.676 158.788ZM317.702 150.968H323.72V153.858H317.702V150.968ZM327.936 150.968H333.988V153.858H327.936V150.968ZM332.764 145.936H336.64V171.334C336.64 173.544 336.198 174.632 334.804 175.244C333.41 175.924 331.268 175.992 328.072 175.992C327.902 174.904 327.29 173.102 326.746 172.082C328.82 172.184 331.2 172.184 331.88 172.15C332.526 172.15 332.764 171.946 332.764 171.3V145.936ZM315.322 145.936H319.096V175.958H315.322V145.936ZM317.94 145.936H324.978V158.992H317.94V155.898H321.918V149.03H317.94V145.936ZM334.668 145.936V149.03H329.704V155.898H334.668V158.992H326.508V145.936H334.668ZM311.786 144.202L315.56 145.29C313.622 151.24 310.494 157.7 307.026 161.78C306.686 160.76 305.7 158.448 305.054 157.36C307.808 154.164 310.324 149.166 311.786 144.202ZM309.1 153.518L312.874 149.778L312.976 149.846V176.026H309.1V153.518ZM341.536 146.412H371.184V150.594H341.536V146.412ZM357.958 157.802L361.12 155.15C364.758 157.802 369.994 161.712 372.476 164.432L369.008 167.56C366.764 164.874 361.732 160.692 357.958 157.802ZM356.598 147.942L361.154 149.54C357.278 156.714 351.09 163.65 343.27 167.73C342.624 166.642 341.332 164.942 340.482 164.024C347.758 160.59 353.776 153.994 356.598 147.942ZM354.116 156.17L358.604 151.716V175.992H354.116V156.17ZM382.574 156.476V160.76H399.268V156.476H382.574ZM379.174 153.96H402.906V163.242H379.174V153.96ZM385.022 150.118H397.024V152.77H385.022V150.118ZM389.204 154.81H392.502V161.984H389.204V154.81ZM383.764 157.224L386.586 156.442C387.198 157.598 387.742 159.094 387.946 160.114L384.954 160.998C384.818 159.978 384.342 158.38 383.764 157.224ZM395.018 156.306L398.384 157.122C397.67 158.584 396.956 160.012 396.412 160.964L393.624 160.216C394.134 159.094 394.746 157.428 395.018 156.306ZM381.044 164.364H401.172V175.924H396.99V167.016H385.056V176.06H381.044V164.364ZM383.356 168.376H398.724V171.062H383.356V168.376ZM383.356 172.456H398.724V175.108H383.356V172.456ZM390.326 143.828L393.93 145.154C390.156 149.948 383.662 153.314 377.032 155.32C376.624 154.504 375.57 152.872 374.89 152.158C381.18 150.628 387.232 147.772 390.326 143.828ZM393.012 145.392C396.038 148.316 401.92 150.764 407.598 151.92C406.748 152.634 405.592 154.096 405.014 155.014C399.302 153.552 393.488 150.424 389.986 146.616L393.012 145.392ZM419.838 146.718H441.258V150.084H419.838V146.718ZM422.592 164.976H437.96V168.138H422.592V164.976ZM425.618 154.062V155.898H435.002V154.062H425.618ZM421.912 151.342H438.912V158.618H421.912V151.342ZM428.44 166.404H432.554V172.082C432.554 173.918 432.18 174.904 430.752 175.414C429.29 175.924 427.386 175.924 424.836 175.924C424.632 174.836 424.122 173.408 423.646 172.388C425.21 172.456 427.25 172.456 427.76 172.456C428.27 172.422 428.44 172.32 428.44 171.946V166.404ZM419.09 159.978H441.53V166.166H437.892V163.208H422.558V166.166H419.09V159.978ZM427.624 144.882L431.398 143.862C432.044 144.984 432.792 146.514 433.098 147.534L429.12 148.69C428.916 147.67 428.27 146.038 427.624 144.882ZM416.676 144.236L420.382 145.426C418.308 151.206 415.01 157.36 411.508 161.27C411.134 160.25 410.08 158.006 409.434 157.02C412.324 153.926 415.078 149.098 416.676 144.236ZM413.378 153.688L417.084 149.812V149.846V176.026H413.378V153.688ZM445.134 146.616H475.666V150.73H445.134V146.616ZM457.476 150.322H461.862V175.992H457.476V150.322ZM459.788 158.55L462.576 155.32C466.282 157.156 471.62 160.114 474.238 162.222L471.212 165.962C468.798 163.82 463.63 160.624 459.788 158.55ZM481.956 145.324H487.804V148.996H481.956V145.324ZM480.528 145.324H483.724V157.734C483.724 163.106 483.452 170.926 481.684 176.026C481.038 175.55 479.61 174.734 478.794 174.462C480.46 169.702 480.528 162.766 480.528 157.768V145.324ZM485.696 145.324H488.994V171.98C488.994 173.544 488.79 174.598 487.906 175.21C487.022 175.822 485.866 175.924 484.132 175.924C484.064 174.972 483.69 173.306 483.214 172.388C484.132 172.422 484.982 172.422 485.288 172.388C485.594 172.388 485.696 172.286 485.696 171.912V145.324ZM494.468 150.9L497.732 151.784C496.304 156.272 493.992 160.182 490.796 162.834C490.252 162.052 489.266 160.998 488.416 160.386C491.136 158.312 493.38 154.708 494.468 150.9ZM492.122 144.916L495.352 145.698C494.434 148.86 492.938 152.124 491.306 154.198C490.728 153.654 489.368 152.634 488.62 152.158C490.184 150.356 491.408 147.602 492.122 144.916ZM495.896 146.004L498.854 145.052C500.214 147.33 501.642 150.322 502.118 152.26L498.99 153.382C498.548 151.444 497.222 148.35 495.896 146.004ZM490.966 161.984H500.18V175.618H496.984V165.554H494.026V175.686H490.966V161.984ZM492.054 170.484H498.514V173.986H492.054V170.484ZM506.742 145.936H509.938V166.914C509.938 168.24 509.768 169.158 508.986 169.702C508.204 170.246 507.252 170.314 505.994 170.314C505.926 169.464 505.518 168.07 505.076 167.22C505.654 167.254 506.232 167.254 506.436 167.254C506.674 167.254 506.742 167.152 506.742 166.846V145.936ZM501.812 145.936H508.578V149.404H504.838V175.924H501.812V145.936ZM494.366 154.946L496.882 153.11C498.854 155.388 501.472 158.584 502.662 160.556L500.01 162.698C498.888 160.658 496.372 157.36 494.366 154.946ZM483.01 163.038C484.132 162.29 485.696 161.066 487.328 159.774L488.45 161.95C487.124 163.378 485.764 164.84 484.37 166.268L483.01 163.038ZM482.534 154.64L484.54 153.076C485.492 153.892 486.546 154.946 487.09 155.694L484.982 157.53C484.506 156.748 483.384 155.524 482.534 154.64ZM521.804 158.754L525.748 160.114C523.81 163.174 520.716 166.302 518.03 168.274C517.35 167.458 515.854 165.928 514.97 165.214C517.554 163.684 520.274 161.236 521.804 158.754ZM539.28 159.026L543.258 160.862C538.158 170.246 529.216 174.122 516.33 176.026C515.956 174.836 515.106 173.204 514.256 172.15C526.428 170.688 535.03 167.322 539.28 159.026ZM514.46 153.926H544.992V157.802H514.46V153.926ZM531.256 146.854H542.578V150.662H531.256V146.854ZM528.366 144.134H532.752V156.17H528.366V144.134ZM519.118 146.344H523.266V155.83H519.118V146.344ZM527.856 156.816H532.208V167.764H527.856V156.816Z" fill="#373737"/>
<path d="M24.6428 87.4546H85.1399V102.995H24.6428V87.4546ZM16.7616 58.1496H94.2422V108.434H76.8146V73.5792H33.3011V108.434H16.7616V58.1496ZM63.6052 20.4083L76.1486 11.972C85.917 21.6294 99.3484 35.3939 105.343 44.8292L91.6891 54.8195C86.361 45.3842 73.5955 30.8427 63.6052 20.4083ZM14.4305 51.8224C13.6535 48.7143 10.9894 40.722 9.10231 36.3929C12.4324 35.6159 14.8745 33.6178 18.5376 30.1767C22.3118 26.7356 33.9672 13.5261 40.9604 0.427646L57.278 7.42089C47.8426 21.2964 35.0772 34.7278 23.6438 43.8301V44.2742C23.6438 44.2742 14.4305 49.0473 14.4305 51.8224ZM14.4305 51.8224L14.2085 39.279L24.7538 33.7288L91.4671 32.0637C91.5781 36.5039 92.2442 43.1641 92.9102 46.6052C30.526 49.3803 21.3127 49.4913 14.4305 51.8224ZM166.95 24.2935H188.484V31.1757H166.95V24.2935ZM166.95 33.1738H188.484V40.056H166.95V33.1738ZM152.186 83.5695H205.69V93.0048H152.186V83.5695ZM163.842 14.0811H190.372V22.0734H163.842V14.0811ZM175.941 49.1583V52.5994H179.049V49.1583H175.941ZM166.95 42.4981H188.484V59.2597H166.95V42.4981ZM153.074 72.4691H194.812V70.249H145.637V61.5908H209.686V81.1274H153.074V72.4691ZM148.523 72.4691H163.287C161.844 79.5734 159.956 87.4546 158.402 93.0048H143.417C145.304 87.2326 147.191 79.2404 148.523 72.4691ZM200.362 83.5695H215.347C215.347 83.5695 215.125 87.2326 214.57 89.0087C213.127 97.667 211.24 102.551 208.243 105.104C205.135 107.546 201.583 108.212 196.81 108.434C192.925 108.545 186.153 108.545 179.16 108.323C178.938 104.882 177.273 99.9981 175.053 96.779C181.38 97.334 188.706 97.445 191.593 97.445C193.813 97.445 195.145 97.334 196.366 96.557C198.031 95.4469 199.363 91.7838 200.251 85.1236L200.362 83.5695ZM115 15.4132L124.102 4.53479C129.652 7.30989 136.979 11.861 140.531 15.4132L130.873 27.5126C127.765 23.8495 120.55 18.7433 115 15.4132ZM112.78 44.7182L121.549 33.5068C127.099 36.0599 134.537 40.278 138.2 43.6081L128.875 55.9296C125.656 52.5994 118.33 47.7153 112.78 44.7182ZM115.444 99.332C119.551 90.5627 125.101 76.6873 129.43 63.3668L142.196 71.5811C138.533 83.5695 134.315 96.1129 129.874 107.324L115.444 99.332ZM154.85 30.1767L160.956 27.9566C162.954 31.7307 165.063 36.8369 165.618 39.945L159.29 42.7201C158.624 39.501 156.737 34.1728 154.85 30.1767ZM155.627 45.6062L161.511 43.3861C162.954 46.8272 164.175 51.3784 164.508 54.3755L158.18 57.1506C157.847 54.0425 156.848 49.2693 155.627 45.6062ZM138.866 45.3842L146.081 47.2713C145.304 52.5994 143.75 58.2606 141.752 61.9238C140.309 60.4807 137.312 58.3716 135.536 57.2616C137.423 53.9315 138.311 49.6023 138.866 45.3842ZM139.31 27.8456C138.866 26.6246 137.423 23.6274 136.424 21.9624C137.867 21.7404 138.866 20.5193 140.087 18.7433C141.419 17.1892 145.082 10.418 146.747 4.31278L155.072 7.30989C152.63 13.1931 148.079 19.8533 143.639 24.6265V24.7375C143.639 24.7375 139.31 26.7356 139.31 27.8456ZM139.31 27.8456L138.977 21.5184L143.861 19.1873L156.071 18.7433C155.405 20.9634 154.739 24.1825 154.628 26.0695C144.083 26.6246 141.086 27.1796 139.31 27.8456ZM139.976 42.7201C139.643 41.4991 138.089 38.391 137.09 36.7259C138.977 36.3929 140.42 34.9498 142.418 32.7298C144.638 30.6207 151.076 21.9624 154.628 13.9701L162.399 17.5222C158.291 25.0705 151.853 33.2848 145.304 39.279V39.501C145.304 39.501 139.976 41.4991 139.976 42.7201ZM139.976 42.7201L139.31 36.1709L143.639 33.8398L159.845 32.0637C160.178 34.1728 160.956 37.2809 161.622 38.946C145.415 41.055 142.085 41.8321 139.976 42.7201ZM146.747 47.2713L153.296 45.4952C154.406 49.3803 155.294 54.2645 155.405 57.4836L148.523 59.7037C148.412 56.3736 147.746 51.2674 146.747 47.2713ZM170.835 6.64387L181.047 4.6458C182.379 7.19888 183.933 10.973 184.71 13.1931L174.054 15.6352C173.499 13.1931 172.056 9.41896 170.835 6.64387ZM208.021 30.3987L214.015 28.1786C216.013 31.9527 218.122 37.0589 218.678 40.167L212.35 42.8311C211.684 39.612 209.797 34.2838 208.021 30.3987ZM208.576 45.8282L214.57 43.4971C216.124 47.6043 217.678 53.1545 218.122 56.7066L211.795 59.5927C211.462 55.9296 210.13 50.1574 208.576 45.8282ZM192.037 45.0512L199.252 47.0493C198.475 52.2664 196.921 57.9276 194.923 61.5908C193.48 60.1477 190.483 58.0386 188.706 56.9286C190.594 53.5985 191.482 49.2693 192.037 45.0512ZM192.481 28.0676C192.037 26.8466 190.594 23.8495 189.595 22.1844C190.927 21.9624 192.037 20.7413 193.258 18.9653C194.479 17.4112 198.253 10.64 199.918 4.53479L208.243 7.53189C205.801 13.4151 201.25 20.0753 196.81 24.8485V24.9595C196.81 24.9595 192.481 26.9576 192.481 28.0676ZM192.481 28.0676L192.148 21.8514L197.032 19.4093L209.131 18.9653C208.465 21.1854 207.799 24.4045 207.799 26.2915C197.143 26.8466 194.146 27.4016 192.481 28.0676ZM193.147 42.9421C192.814 41.7211 191.26 38.613 190.15 36.9479C192.148 36.6149 193.591 35.1718 195.589 32.9518C197.698 30.8427 204.247 22.1844 207.688 14.1921L215.569 17.7442C211.462 25.2925 205.024 33.5068 198.364 39.501V39.723C198.364 39.723 193.147 41.7211 193.147 42.9421ZM193.147 42.9421L192.481 36.3929L196.81 34.0618L213.016 32.2857C213.349 34.5058 214.126 37.5029 214.792 39.168C198.586 41.3881 195.256 42.0541 193.147 42.9421ZM199.474 47.6043L206.023 45.8282C207.244 50.0464 208.243 55.3745 208.243 58.8157L201.361 61.0357C201.361 57.5946 200.584 51.9334 199.474 47.6043ZM274.29 9.08594H316.805V23.6274H274.29V9.08594ZM270.183 48.0483H330.236V63.3668H270.183V48.0483ZM292.495 38.835H309.257V91.6728C309.257 99.5541 307.703 103.55 302.485 105.992C297.268 108.323 290.497 108.656 281.728 108.656C280.951 104.105 278.62 97.445 276.399 93.2268C281.395 93.4488 288.166 93.4488 289.942 93.4488C291.829 93.4488 292.495 93.0048 292.495 91.3398V38.835ZM310.589 9.08594H314.918L318.692 8.30892L329.459 16.0792C322.355 26.7356 312.476 39.834 301.375 47.7153C299.377 45.0512 294.937 40.944 292.495 38.835C300.043 31.9527 307.481 19.7423 310.589 12.5271V9.08594ZM226.226 63.4778L235.883 52.2664C247.649 63.1448 266.409 78.9073 274.845 88.7867L264.189 102.218C256.197 91.8948 238.436 75.3552 226.226 63.4778ZM226.226 63.4778C230.222 47.9373 233.996 23.4054 234.884 3.31375L250.869 4.09078C249.204 25.5145 244.985 51.0454 240.878 68.584L226.226 63.4778ZM253.422 18.7433H268.407V32.3967C268.407 53.5985 265.188 87.1216 235.661 108.878C233.33 105.437 227.891 99.9981 224.339 97.445C250.758 79.0183 253.422 50.1574 253.422 32.1747V18.7433ZM224.45 26.4025C237.437 25.9585 256.419 24.9595 274.068 23.9605L273.957 38.391C257.196 39.612 239.213 40.722 225.893 41.6101L224.45 26.4025ZM395.507 52.4884L408.383 49.1583C409.604 51.4894 410.825 54.9305 411.269 57.1506L397.949 61.0357C397.616 58.7047 396.617 55.1525 395.507 52.4884ZM378.856 69.361H432.36V78.9073H378.856V69.361ZM378.856 81.7934H432.36V91.3398H378.856V81.7934ZM376.747 94.4479H437.799V105.437H376.747V94.4479ZM382.408 55.8186H435.135V66.4749H382.408V108.434H367.756V70.6931L382.297 55.8186H382.408ZM396.173 61.7018H411.047V99.221H396.173V61.7018ZM375.97 46.2722L390.4 50.8234C384.739 63.6998 375.193 76.7983 365.314 84.6795C363.537 81.5714 358.875 74.4672 355.989 71.2481C364.092 65.4759 371.752 56.0406 375.97 46.2722ZM357.876 24.8485H433.803V50.9344H357.876V39.723H417.929V36.0599H357.876V24.8485ZM421.925 2.86973L434.025 15.0802C410.27 20.1863 379.078 22.6284 352.326 23.4054C351.993 19.7423 350.106 13.6371 348.663 10.418C374.749 9.41896 403.943 6.86587 421.925 2.86973ZM348.663 10.418H364.536V42.6091C364.536 62.0348 362.538 91.2288 349.884 109.1C346.887 106.547 339.894 102.329 335.898 100.775C347.775 84.4575 348.663 59.9257 348.663 42.6091V10.418ZM454.006 23.4054H544.474V39.168H454.006V23.4054ZM460.333 55.5965H538.812V71.1371H460.333V55.5965ZM449.454 89.3417H549.913V105.215H449.454V89.3417ZM490.637 37.3919H508.508V97.889H490.637V37.3919ZM480.535 11.972L493.967 2.53672C501.071 6.86587 510.951 13.7481 515.946 18.9653L501.515 29.3996C497.297 24.4045 487.862 16.9672 480.535 11.972Z" fill="#009E96"/>
</svg>
