<svg width="775" height="676" viewBox="0 0 775 676" fill="none" xmlns="http://www.w3.org/2000/svg">
<path opacity="0.4" fill-rule="evenodd" clip-rule="evenodd" d="M772.209 83.9546C778.333 113.772 768.983 146.814 742.102 178.277C711.676 213.887 667.822 239.92 616.883 260.826C569.308 280.352 514.636 295.764 457.296 310.201C473.224 364.63 502.856 417.508 539.158 459.218C578.33 504.226 624.049 534.879 667.196 541.957L663.149 566.627C612.055 558.245 561.52 522.992 520.3 475.631C481.54 431.097 449.94 374.663 433.013 316.229C418.024 319.905 402.908 323.542 387.713 327.198C354.07 335.292 320.036 343.481 286.109 352.397C302.992 421.155 305.327 479.927 291.925 528.617C277.606 580.635 245.607 620.066 196.84 647.237C143.488 676.962 97.6842 681.625 62.8322 666.991C27.8424 652.299 7.21798 619.551 1.6033 581.815C-9.61291 506.433 37.6849 407.9 154.053 366.291C187.09 354.478 221.19 344.152 255.548 334.717C235.165 263.229 199.177 179.458 147.247 82.6719L169.277 70.8523C221.762 168.674 258.658 254.303 279.696 328.234C313.947 319.233 348.481 310.923 382.317 302.781C397.336 299.168 412.217 295.587 426.875 291.993C409.223 210.461 421.452 125.632 487.096 67.4104C569.271 -5.47355 658.991 -13.3242 716.509 15.7631C745.217 30.2812 766.119 54.3056 772.209 83.9546ZM451.147 285.969C434.879 210.146 447.291 136.13 503.684 86.1138C579.918 18.4999 658.762 14.5748 705.226 38.0726C728.509 49.8471 743.452 68.2055 747.72 88.9844C751.953 109.595 746.173 135.026 723.095 162.037C696.346 193.343 656.627 217.491 607.391 237.698C561.49 256.537 508.232 271.596 451.147 285.969ZM261.958 358.882C228.077 368.19 194.683 378.313 162.471 389.831C56.2534 427.81 17.0353 515.66 26.3311 578.136C30.9724 609.33 47.3609 633.38 72.5109 643.94C97.7987 654.558 135.261 652.927 184.672 625.398C227.955 601.282 255.391 567.137 267.821 521.982C279.667 478.948 278.127 424.978 261.958 358.882Z" fill="#D4FCD6"/>
</svg>
