<svg width="1920" height="252" viewBox="0 0 1920 252" fill="none" xmlns="http://www.w3.org/2000/svg">
<g filter="url(#filter0_d_814_336762)">
<path d="M714.978 154.208H724.362V157.642H718.65V178.79H714.978V154.208ZM722.152 154.208H725.892V171.48C725.892 173.112 725.62 174.064 724.532 174.676C723.512 175.254 722.084 175.322 720.112 175.322C719.942 174.336 719.466 172.806 718.956 171.888C720.112 171.922 721.268 171.922 721.642 171.888C722.016 171.888 722.152 171.752 722.152 171.378V154.208ZM712.53 152.168L715.318 155.228C712.938 156.554 710.048 157.642 707.566 158.458C707.396 157.642 706.818 156.35 706.376 155.568C708.586 154.684 711 153.324 712.53 152.168ZM706.546 175.866L706.206 172.466L707.77 171.14L713.992 169.644C713.958 170.766 714.026 172.398 714.162 173.282C708.416 174.914 707.26 175.39 706.546 175.866ZM706.546 175.866C706.308 174.982 705.594 173.452 705.05 172.738C705.696 172.364 706.376 171.582 706.376 170.154V155.568H710.15V172.636C710.15 172.636 706.546 174.608 706.546 175.866ZM696.312 154.004L699.338 152.134C700.97 153.732 702.874 155.874 703.894 157.234L700.8 159.512C699.848 158.05 697.876 155.67 696.312 154.004ZM695.462 160.056H702.568V163.32H695.462V160.056ZM702.364 174.846C704.2 179.436 708.178 179.98 714.332 180.014C717.97 180.014 723.58 179.776 727.422 179.436C726.844 180.252 726.334 182.088 726.13 183.21C722.594 183.414 718.242 183.516 714.264 183.516C706.376 183.516 702.16 182.462 699.644 175.934L702.364 174.846ZM701.446 168.318H702.432L703.078 168.25L705.016 168.964C703.894 176.478 701.106 181.51 697.128 184.094C696.618 183.312 695.292 181.918 694.544 181.374C698.182 179.164 700.63 174.914 701.446 168.93V168.318ZM696.074 172.024V169.1L697.536 168.318H702.534V171.48H698.182C697.366 171.48 696.38 171.718 696.074 172.024ZM696.074 172.024C695.87 171.174 695.156 169.44 694.782 168.692C695.326 168.556 695.904 168.318 696.55 167.604C697.536 166.652 700.528 162.3 701.684 160.43V160.328L702.704 159.886L705.186 161.008C703.622 163.354 700.732 167.57 698.828 169.78C698.828 169.78 696.074 171.106 696.074 172.024ZM733.508 155.568V157.744H735.31V155.568H733.508ZM730.618 153.018H738.302V160.328H730.618V153.018ZM742.416 155.568V157.744H744.252V155.568H742.416ZM739.526 153.018H747.244V160.328H739.526V153.018ZM747.312 162.096L761.388 160.396L761.83 164.136L747.754 165.904L747.312 162.096ZM754.894 154.208L757.988 152.61C759.314 154.378 760.81 156.758 761.388 158.356L758.09 160.158C757.58 158.56 756.186 156.044 754.894 154.208ZM734.324 169.236V171.004H743.47V169.236H734.324ZM734.324 164.612V166.414H743.47V164.612H734.324ZM730.958 161.62H746.972V174.03H730.958V161.62ZM729.598 175.73H747.856V179.3H729.598V175.73ZM737.112 162.64H740.546V172.772H740.818V184.06H736.874V172.772H737.112V162.64ZM749.93 152.338H753.772C753.942 166.788 755.744 179.028 758.158 179.198C758.668 179.232 759.042 177.634 759.212 174.574C759.892 175.424 761.558 176.478 762.17 176.852C761.32 182.802 759.586 184.128 758.124 184.094C752.106 183.822 750.406 171.106 749.93 152.338ZM757.852 165.122L760.946 166.856C758.668 173.758 753.942 180.456 748.162 183.754C747.482 182.802 746.224 181.612 745.204 180.898C751.188 178.042 755.744 171.752 757.852 165.122ZM779.51 167.298H796.374V171.072H779.51V167.298ZM779.918 157.676H794.47V169.27H790.764V161.45H779.918V157.676ZM784.372 152.134H788.146V164.578C788.146 171.684 787.364 179.096 780.734 184.128C780.088 183.244 778.66 181.918 777.776 181.306C783.692 176.954 784.372 170.664 784.372 164.544V152.134ZM764.482 164.102H778.694V167.876H764.482V164.102ZM767.508 155.738H777.912V159.444H767.508V155.738ZM774.988 169.508H778.32V181.714H774.988V169.508ZM769.922 157.778H773.492V178.926H769.922V157.778ZM767.066 152.1L770.67 152.848C769.888 156.826 768.528 161.008 766.998 163.626C766.284 163.082 764.686 162.13 763.802 161.722C765.298 159.342 766.454 155.636 767.066 152.1ZM765.23 169.508H768.46V177.09H776.314V180.626H765.23V169.508ZM788.248 173.146L791.58 171.922C793.212 175.22 795.388 179.64 796.374 182.292L792.736 183.822C791.852 181.136 789.88 176.546 788.248 173.146ZM800.148 158.832H830.102V163.048H800.148V158.832ZM817.896 152.134H822.418V178.654C822.418 181.17 821.874 182.326 820.31 182.972C818.78 183.652 816.468 183.788 813.068 183.754C812.898 182.53 812.252 180.626 811.64 179.402C813.782 179.538 816.23 179.538 816.91 179.504C817.624 179.47 817.896 179.266 817.896 178.62V152.134ZM815.618 159.512L819.256 161.858C815.652 168.964 809.056 176.41 802.29 180.456C801.542 179.266 800.182 177.702 798.992 176.75C805.86 173.35 812.388 166.244 815.618 159.512ZM842.75 154.208H853.868V157.608H842.75V154.208ZM842.58 151.998L847.102 152.78C844.79 157.608 841.458 162.3 836.392 166.108C835.746 165.122 834.352 163.66 833.4 163.048C838.024 159.92 841.016 155.704 842.58 151.998ZM840.132 160.124H864.918V163.796H840.132V160.124ZM846.558 166.142H858.016V169.644H846.558V166.142ZM844.586 166.142H848.564V178.348C848.564 179.912 849.006 180.184 851.488 180.184C852.678 180.184 857.71 180.184 859.104 180.184C861.348 180.184 861.722 179.47 861.96 175.288C862.912 175.9 864.612 176.546 865.734 176.784C865.156 182.326 863.932 183.856 859.376 183.856C858.186 183.856 852.338 183.856 851.216 183.856C846.15 183.856 844.586 182.734 844.586 178.416V166.142ZM856.86 166.142H860.838C860.838 166.142 860.804 167.094 860.77 167.57C860.498 172.534 860.158 174.812 859.376 175.73C858.696 176.478 857.914 176.75 856.928 176.886C856.044 176.988 854.446 177.022 852.814 176.954C852.746 175.866 852.338 174.404 851.76 173.418C853.086 173.554 854.344 173.588 854.888 173.588C855.398 173.588 855.704 173.554 855.976 173.248C856.418 172.772 856.656 171.038 856.86 166.652V166.142ZM838.058 160.124H842.104V166.584C842.104 171.752 841.22 179.402 836.664 184.128C836.018 183.346 834.352 181.884 833.502 181.408C837.65 177.124 838.058 170.97 838.058 166.516V160.124ZM852.474 154.208H853.46L854.14 154.004L857.132 155.942C855.908 158.254 853.902 161.348 852.27 163.32C851.42 162.674 850.026 161.79 849.108 161.28C850.434 159.512 851.862 156.656 852.474 155.024V154.208ZM868.794 158.492H877.634V162.232H868.794V158.492ZM871.82 152.134H875.288V184.06H871.82V152.134ZM871.82 161.042L873.656 161.926C872.976 167.162 871.412 173.588 869.508 176.954C869.168 175.798 868.42 173.996 867.91 172.942C869.644 170.222 871.174 165.122 871.82 161.042ZM875.152 163.524C875.798 164.34 878.008 167.91 878.518 168.76L876.716 171.514C876.138 169.78 874.506 166.38 873.758 164.986L875.152 163.524ZM878.382 169.678H899.632V172.806H878.382V169.678ZM881.272 175.594L883.618 173.452C885.046 174.574 887.086 176.206 888.106 177.26L885.658 179.674C884.706 178.586 882.734 176.818 881.272 175.594ZM892.662 168.216L894.736 166.448C895.722 167.162 897.082 168.182 897.762 168.862L895.654 170.834C894.974 170.12 893.682 168.998 892.662 168.216ZM894.974 172.568L898.34 173.826C895.96 178.552 891.676 181.986 886.44 183.958C886.032 183.278 885.046 182.02 884.332 181.374C889.262 179.674 893.07 176.546 894.974 172.568ZM886.508 152.406H889.874C890.18 168.046 892.288 179.572 896.742 180.116C897.388 180.184 897.762 178.96 898.034 176.546C898.646 177.328 899.972 178.314 900.618 178.654C899.734 182.972 898.34 184.128 896.844 184.026C889.194 183.414 887.086 170.8 886.508 152.406ZM883.584 163.082L885.93 162.47C886.508 164.068 887.052 166.142 887.256 167.366L884.74 168.148C884.57 166.856 884.094 164.714 883.584 163.082ZM878.824 161.858C878.654 161.246 878.212 159.852 877.872 159.104C878.28 159.002 878.722 158.56 879.096 157.914C879.47 157.268 880.728 154.82 881.34 152.406L884.298 153.188C883.312 155.806 881.714 158.594 880.388 160.294V160.362C880.388 160.362 878.824 161.28 878.824 161.858ZM878.824 161.858L878.756 159.784L880.048 158.968L884.502 158.628C884.094 159.376 883.686 160.464 883.516 161.042C880.15 161.416 879.266 161.62 878.824 161.858ZM879.164 168.08C879.028 167.502 878.552 166.04 878.246 165.292C878.79 165.156 879.334 164.578 879.946 163.728C880.592 162.912 882.7 159.75 883.89 156.656L886.78 157.642C885.046 160.974 882.734 164.34 880.626 166.55V166.584C880.626 166.584 879.164 167.536 879.164 168.08ZM879.164 168.08L879.062 165.87L880.218 165.054L885.046 164.51C885.148 165.224 885.42 166.278 885.624 166.856C880.626 167.536 879.674 167.774 879.164 168.08ZM896.164 162.708L898.476 162.062C899.122 163.626 899.768 165.734 900.074 166.992L897.626 167.808C897.388 166.516 896.742 164.306 896.164 162.708ZM891.404 161.348C891.234 160.736 890.792 159.376 890.452 158.594C890.86 158.526 891.268 158.084 891.608 157.472C891.948 156.86 893.138 154.548 893.682 152.304L896.606 153.086C895.688 155.568 894.192 158.186 892.934 159.784V159.852C892.934 159.852 891.404 160.77 891.404 161.348ZM891.404 161.348L891.37 159.274L892.594 158.458L896.98 158.152C896.606 158.866 896.198 159.988 896.028 160.566C892.696 160.906 891.846 161.11 891.404 161.348ZM891.778 167.57C891.642 166.992 891.166 165.53 890.86 164.782C891.404 164.612 891.914 164.068 892.526 163.218C893.172 162.402 895.212 159.206 896.368 156.112L899.292 157.098C897.66 160.43 895.348 163.83 893.274 166.04V166.074C893.274 166.074 891.778 167.026 891.778 167.57ZM891.778 167.57L891.676 165.394L892.832 164.578L897.592 164C897.728 164.714 898 165.7 898.204 166.278C893.24 167.06 892.322 167.298 891.778 167.57ZM880.422 170.766H883.856V172.126C883.856 175.764 882.734 180.694 878.45 184.06C877.906 183.38 876.478 182.156 875.73 181.714C879.742 178.79 880.422 174.88 880.422 172.024V170.766Z" fill="#373737"/>
<path d="M920.637 190L923.451 179.866H918V167H934V179.425L929.692 190H920.637Z" fill="#009E96"/>
<path d="M695.258 204.97H710.83V208.676H695.258V204.97ZM695.938 220.882H710.218V224.554H695.938V220.882ZM701.14 217.754H705.22V230.436H701.14V217.754ZM694.884 229.348C698.896 228.906 705.016 228.09 710.694 227.274L710.864 231.116C705.492 232 699.712 232.85 695.462 233.496L694.884 229.348ZM704.098 210.818L707.192 209.39C708.45 211.464 710.15 214.32 710.932 216.054L707.668 217.72C706.954 215.918 705.39 212.994 704.098 210.818ZM714.944 209.356H723.274V213.13H714.944V209.356ZM715.284 203.372L719.058 203.95C717.902 211.634 715.828 219.318 712.326 224.248C711.986 223.296 710.864 221.222 710.15 220.304C712.904 216.258 714.434 209.9 715.284 203.372ZM712.972 209.322C715.08 219.114 719.466 227.886 726.878 231.932C726.028 232.646 724.736 234.074 724.124 235.128C716.372 230.334 712.292 221.018 709.912 209.934L712.972 209.322ZM696.516 217.788C696.278 216.972 695.632 215.136 695.224 214.116C695.768 213.946 696.278 213.436 696.822 212.654C697.366 211.872 698.964 209.05 699.882 206.228L703.962 207.384C702.636 210.444 700.562 213.674 698.828 215.748V215.816C698.828 215.816 696.516 217.04 696.516 217.788ZM696.516 217.788L696.414 214.83L698.318 213.64L707.906 213.028C708.008 214.082 708.28 215.544 708.484 216.394C698.998 217.176 697.502 217.346 696.516 217.788ZM722.22 209.356H722.934L723.614 209.186L726.232 210.002C724.634 222.752 719.67 230.912 711.714 235.298C711.136 234.176 709.912 232.374 708.994 231.558C716.236 228.26 720.962 220.44 722.22 210.138V209.356ZM741.77 210.206H767.814V214.388H741.77V210.206ZM766.148 210.206H770.398C770.398 210.206 770.364 211.6 770.296 212.178C769.616 225.778 768.936 230.946 767.406 232.748C766.42 234.04 765.434 234.414 763.938 234.618C762.646 234.822 760.538 234.788 758.464 234.686C758.396 233.496 757.818 231.66 757.036 230.47C759.212 230.64 761.218 230.674 762.136 230.674C762.816 230.674 763.224 230.538 763.7 230.096C764.89 228.94 765.57 223.568 766.148 211.022V210.206ZM752.208 203.202H756.526V210.206C756.526 217.924 755.438 228.702 743.878 235.23C743.232 234.244 741.702 232.646 740.682 231.932C751.256 226.186 752.208 216.768 752.208 210.206V203.202ZM791.104 221.086H814.156V224.588H791.104V221.086ZM786.514 208.676H809.022V212.348H786.514V208.676ZM796.544 214.932H811.98V218.434H796.544V214.932ZM812.592 221.086H816.672C816.672 221.086 816.604 222.14 816.536 222.65C815.992 229.552 815.38 232.51 814.292 233.666C813.476 234.55 812.66 234.856 811.538 234.992C810.586 235.094 808.954 235.094 807.186 235.06C807.152 233.938 806.676 232.34 806.03 231.32C807.526 231.49 808.954 231.524 809.634 231.49C810.212 231.49 810.552 231.422 810.892 231.116C811.572 230.436 812.15 227.852 812.592 221.664V221.086ZM805.35 225.778L808.172 224.792C809.09 226.186 810.008 228.09 810.348 229.314L807.39 230.402C807.084 229.178 806.2 227.206 805.35 225.778ZM790.322 204.562L793.994 203.134C795.184 204.426 796.646 206.296 797.326 207.588L793.416 209.186C792.872 207.928 791.512 205.956 790.322 204.562ZM795.082 226.696L798.38 226.288C799.026 228.498 799.366 231.354 799.366 233.258L795.864 233.734C795.966 231.864 795.626 228.94 795.082 226.696ZM800.216 226.424L803.344 225.71C804.16 227.614 804.908 230.096 805.18 231.728L801.882 232.578C801.678 230.912 800.964 228.362 800.216 226.424ZM790.56 225.574L793.96 226.696C793.28 229.62 792.226 232.816 790.22 234.924L787.092 232.68C788.792 230.98 789.982 228.226 790.56 225.574ZM800.794 203.1L804.976 204.086C801.95 213.844 796.748 222.99 787.092 228.192C786.616 227.172 785.596 225.54 784.916 224.656C793.586 220.304 798.516 211.702 800.794 203.1ZM808.24 208.676H811.98C811.504 211.226 810.858 214.218 810.28 216.19L806.744 215.646C807.254 213.776 807.866 210.954 808.24 208.676ZM810.45 214.932H814.19C813.714 217.414 813.102 220.372 812.558 222.31L808.988 221.834C809.532 219.93 810.11 217.176 810.45 214.932ZM840.71 204.494H861.892V207.418H840.71V204.494ZM844.892 211.6H857.71V213.266H844.892V211.6ZM844.892 214.32H857.71V215.986H844.892V214.32ZM842.818 208.608H859.716V218.06H855.908V210.614H846.456V218.06H842.818V208.608ZM839.724 217.074H862.606V221.936H858.968V219.352H843.158V221.936H839.724V217.074ZM844.552 219.93L846.932 221.188C846.116 222.514 844.926 224.044 843.532 224.996L841.288 223.228C842.546 222.48 843.804 221.12 844.552 219.93ZM846.15 220.066H849.38V221.63C849.38 222.31 849.55 222.412 850.468 222.412C850.876 222.412 852.916 222.412 853.494 222.412C854.14 222.412 854.31 222.242 854.446 221.256C855.024 221.596 856.214 221.936 856.996 222.038C856.724 224.01 855.942 224.588 853.936 224.588C853.256 224.588 850.672 224.588 849.992 224.588C846.932 224.588 846.15 223.942 846.15 221.63V220.066ZM849.38 219.896L851.59 218.74C852.508 219.386 853.664 220.406 854.276 221.052L851.998 222.378C851.42 221.698 850.298 220.644 849.38 219.896ZM855.296 221.086L857.404 219.828C858.662 220.984 860.192 222.616 860.974 223.704L858.764 225.098C858.05 224.01 856.554 222.31 855.296 221.086ZM847.748 223.602L851.182 224.282C848.972 227.07 845.98 229.416 841.764 231.32C841.322 230.572 840.268 229.484 839.554 229.008C843.396 227.546 846.15 225.506 847.748 223.602ZM856.214 225.608H856.962L857.642 225.472L860.09 226.798C857.132 231.286 850.434 233.972 840.914 235.196C840.54 234.312 839.724 233.054 839.01 232.272C847.986 231.388 854.208 229.212 856.214 226.186V225.608ZM844.11 225.268C847.272 229.348 854.106 231.456 862.538 232.068C861.858 232.782 861.008 234.142 860.6 235.06C851.794 234.142 845.028 231.524 841.152 226.288L844.11 225.268ZM847.102 225.608H857.166V228.022H844.688L847.102 225.608ZM848.972 205.854L853.392 206.33C852.78 207.792 852.202 209.084 851.76 210.036L848.258 209.458C848.53 208.336 848.87 206.874 848.972 205.854ZM836.732 203.202L840.506 204.29C838.602 210.24 835.542 216.7 832.142 220.78C831.802 219.76 830.816 217.448 830.17 216.36C832.856 213.13 835.304 208.166 836.732 203.202ZM834.284 212.518L838.058 208.778L838.16 208.846V235.026H834.284V212.518ZM876.852 210.308H906.806V213.912H876.852V210.308ZM881.068 220.44H895.076V223.874H881.068V220.44ZM889.704 205.684H893.75V219.658H889.704V205.684ZM887.834 211.294L891.268 212.654C888.31 216.972 883.38 220.576 878.246 222.446C877.634 221.46 876.478 219.998 875.594 219.216C880.524 217.72 885.352 214.694 887.834 211.294ZM900.686 203.168L903.61 206.33C896.844 207.69 887.392 208.336 879.402 208.506C879.3 207.588 878.858 206.024 878.484 205.208C886.304 204.97 895.314 204.29 900.686 203.168ZM885.692 221.528H889.908C889.16 227.478 887.392 232.408 879.062 235.162C878.62 234.108 877.532 232.476 876.682 231.66C883.958 229.62 885.08 225.88 885.692 221.528ZM900.788 223.976H904.936C904.936 223.976 904.834 225.03 904.766 225.574C904.256 230.402 903.678 232.714 902.658 233.7C901.808 234.55 900.89 234.822 899.496 234.924C898.408 235.026 896.504 235.026 894.464 234.958C894.396 233.802 893.886 232.204 893.172 231.184C895.042 231.354 897.082 231.388 897.898 231.388C898.51 231.388 898.952 231.354 899.326 231.082C899.938 230.538 900.414 228.634 900.788 224.486V223.976ZM895.722 223.976H901.774V227.41H894.736L895.722 223.976ZM894.498 220.44H898.34C897.762 222.854 897.014 225.608 896.402 227.41H892.662C893.308 225.506 894.022 222.752 894.498 220.44ZM892.152 214.558L895.178 212.348C899.36 214.116 905.174 216.972 908.268 219.08L905.004 221.596C902.25 219.556 896.504 216.496 892.152 214.558ZM934.414 203.168H939.072C938.868 210.206 938.664 226.628 924.452 234.992C923.704 233.904 922.378 232.612 921.052 231.694C934.89 224.248 934.244 208.982 934.414 203.168ZM938.698 207.316C938.97 210.07 940.058 225.37 953.318 231.286C952.094 232.238 950.938 233.632 950.326 234.788C936.386 228.158 935.264 211.158 934.754 207.758L938.698 207.316ZM967.428 209.832H997.382V214.048H967.428V209.832ZM985.176 203.134H989.698V229.654C989.698 232.17 989.154 233.326 987.59 233.972C986.06 234.652 983.748 234.788 980.348 234.754C980.178 233.53 979.532 231.626 978.92 230.402C981.062 230.538 983.51 230.538 984.19 230.504C984.904 230.47 985.176 230.266 985.176 229.62V203.134ZM982.898 210.512L986.536 212.858C982.932 219.964 976.336 227.41 969.57 231.456C968.822 230.266 967.462 228.702 966.272 227.75C973.14 224.35 979.668 217.244 982.898 210.512ZM1029.1 213.3H1035.97V216.36H1029.1V213.3ZM1026.42 223.228H1037.64V225.948H1026.42V223.228ZM1014.96 204.324H1024.28V207.52H1014.96V204.324ZM1023.22 204.324H1023.9L1024.55 204.188L1027.1 205.412C1024.58 211.362 1019.24 215.238 1013.43 217.346C1012.95 216.462 1011.97 215.068 1011.25 214.354C1016.42 212.824 1021.39 209.254 1023.22 204.902V204.324ZM1030.46 203.27C1032.74 208.302 1037.43 212.212 1043.72 213.844C1042.91 214.626 1041.85 216.088 1041.31 217.04C1034.65 214.932 1029.95 210.41 1027.2 204.222L1030.46 203.27ZM1035.56 203.338L1038.49 205.412C1036.89 206.806 1035.05 208.2 1033.66 209.152L1031.31 207.35C1032.64 206.33 1034.51 204.596 1035.56 203.338ZM1039.95 206.738L1042.87 208.778C1041.28 210.206 1039.41 211.634 1037.98 212.552L1035.53 210.75C1036.92 209.73 1038.86 207.996 1039.95 206.738ZM1016.52 213.47H1025.13V221.97H1021.49V216.564H1016.52V213.47ZM1015.44 218.978H1018.73C1018.39 221.766 1017.92 225.098 1017.51 227.274H1014.11C1014.62 225.03 1015.13 221.664 1015.44 218.978ZM1021.45 224.316H1025.13C1025.13 224.316 1025.09 225.234 1025.02 225.71C1024.68 230.368 1024.28 232.544 1023.43 233.462C1022.64 234.244 1021.83 234.516 1020.67 234.618C1019.72 234.72 1017.95 234.72 1016.12 234.652C1016.05 233.564 1015.57 232.17 1014.96 231.218C1016.66 231.354 1018.36 231.388 1019.07 231.388C1019.65 231.388 1020.03 231.354 1020.33 231.082C1020.88 230.606 1021.22 228.838 1021.45 224.792V224.316ZM1027.54 213.3H1030.94V215.782C1030.94 218.298 1030.26 221.188 1027.2 223.126C1026.69 222.412 1025.33 221.052 1024.65 220.576C1027.2 219.114 1027.54 217.312 1027.54 215.714V213.3ZM1036.82 223.228H1037.54L1038.15 223.126L1040.39 223.874C1038.18 230.436 1033.01 233.564 1026.25 235.06C1025.91 234.21 1025.16 232.85 1024.55 232.102C1030.43 231.116 1035.12 228.43 1036.82 223.67V223.228ZM1016.9 218.978H1022.71V221.97H1016.35L1016.9 218.978ZM1015.95 224.316H1022.47V227.274H1015.37L1015.95 224.316ZM1013.84 209.696L1016.12 207.554C1017.51 208.234 1019.31 209.322 1020.23 210.104L1017.82 212.484C1017 211.668 1015.2 210.478 1013.84 209.696ZM1034.07 213.3H1037.4V218.366C1037.4 219.182 1037.47 219.454 1037.91 219.454C1038.25 219.454 1039.24 219.454 1039.58 219.454C1040.09 219.454 1040.9 219.42 1041.34 219.284C1041.38 220.1 1041.48 221.29 1041.58 222.072C1041.11 222.242 1040.36 222.276 1039.64 222.276C1039.2 222.276 1038.01 222.276 1037.5 222.276C1034.65 222.276 1034.07 221.12 1034.07 218.332V213.3ZM1025.87 227.58L1027.81 225.268C1031.79 227.308 1037.64 230.436 1040.6 232.408L1038.52 235.094C1035.77 233.122 1030.02 229.79 1025.87 227.58ZM1070.24 204.494H1087.48V214.014H1070.14V210.682H1083.67V207.826H1070.24V204.494ZM1067.97 204.494H1071.71V215.306C1071.71 221.086 1071.2 229.722 1067.9 235.128C1067.22 234.482 1065.62 233.292 1064.74 232.918C1067.73 227.92 1067.97 220.61 1067.97 215.306V204.494ZM1078.17 214.932H1081.5V232.884H1078.17V214.932ZM1084.32 225.37H1087.62V234.89H1084.32V225.37ZM1072.73 216.122H1075.89V220.78H1083.91V216.054H1087.24V223.942H1072.73V216.122ZM1056.44 220.372C1059.09 219.828 1062.93 218.774 1066.67 217.754L1067.18 221.426C1063.85 222.412 1060.25 223.466 1057.36 224.316L1056.44 220.372ZM1056.98 209.594H1066.88V213.334H1056.98V209.594ZM1060.42 203.168H1064.16V230.3C1064.16 232.17 1063.85 233.224 1062.8 233.836C1061.78 234.482 1060.28 234.618 1058.07 234.618C1057.97 233.598 1057.53 231.932 1057.05 230.844C1058.28 230.878 1059.47 230.878 1059.87 230.878C1060.28 230.878 1060.42 230.742 1060.42 230.266V203.168ZM1072.22 225.404H1075.45V230.708H1086.33V233.904H1072.22V225.404ZM1117.03 205.208H1130.19V208.914H1117.03V205.208ZM1115.67 217.142H1133.93V221.018H1115.67V217.142ZM1122.88 213.912H1127.09V230.674C1127.09 232.748 1126.65 233.802 1125.26 234.414C1123.83 234.992 1121.92 235.094 1119.24 235.094C1119.03 233.938 1118.42 232.272 1117.88 231.184C1119.58 231.252 1121.58 231.252 1122.13 231.252C1122.67 231.252 1122.88 231.082 1122.88 230.606V213.912ZM1128.62 205.208H1129.71L1130.66 205.004L1133.42 206.976C1131.34 210.138 1128.32 213.912 1125.15 216.19C1124.64 215.51 1123.52 214.456 1122.88 213.912C1125.19 211.906 1127.57 208.336 1128.62 206.092V205.208ZM1102.58 221.664L1105.03 218.842C1108.77 222.004 1114.27 226.628 1116.79 229.552L1114.1 232.952C1111.69 229.892 1106.39 225.098 1102.58 221.664ZM1102.58 221.664C1103.87 216.972 1105.2 209.254 1105.57 203.202L1109.62 203.406C1109.04 209.832 1107.61 217.754 1106.28 222.922L1102.58 221.664ZM1111.21 207.962H1115.02V211.804C1115.02 218.332 1114.1 228.362 1104.79 235.162C1104.21 234.278 1102.82 232.918 1101.93 232.272C1110.47 226.322 1111.21 217.448 1111.21 211.736V207.962ZM1101.9 210.512C1105.77 210.376 1111.45 210.104 1116.82 209.798L1116.79 213.436C1111.69 213.81 1106.25 214.15 1102.27 214.388L1101.9 210.512ZM1165.07 217.652L1168.3 216.768C1168.81 217.55 1169.32 218.706 1169.49 219.454L1166.12 220.474C1165.99 219.692 1165.55 218.536 1165.07 217.652ZM1159.46 223.262H1176.46V225.744H1159.46V223.262ZM1159.46 227.172H1176.46V229.654H1159.46V227.172ZM1158.95 231.184H1178.19V234.006H1158.95V231.184ZM1160.41 219.08H1177.31V221.834H1160.41V235.026H1156.67V222.854L1160.38 219.08H1160.41ZM1165.65 220.542H1169.42V232.442H1165.65V220.542ZM1159.19 216.02L1162.86 217.142C1161.13 221.052 1158.27 224.962 1155.31 227.342C1154.87 226.56 1153.65 224.792 1152.9 224.01C1155.45 222.106 1157.83 219.114 1159.19 216.02ZM1153.44 209.594H1176.7V217.21H1153.44V214.32H1172.69V212.484H1153.44V209.594ZM1173.6 203.134L1176.7 206.262C1169.8 207.724 1160.17 208.506 1152.05 208.744C1151.95 207.792 1151.47 206.262 1151.1 205.446C1159.05 205.14 1168.23 204.358 1173.6 203.134ZM1151.1 205.446H1155.11V215.204C1155.11 220.984 1154.53 229.62 1150.79 235.06C1150.04 234.414 1148.27 233.326 1147.25 232.952C1150.82 227.886 1151.1 220.474 1151.1 215.204V205.446ZM1194.62 209.56H1222.09V213.538H1194.62V209.56ZM1196.42 219.454H1220.46V223.398H1196.42V219.454ZM1193.15 229.994H1223.75V234.006H1193.15V229.994ZM1206.18 213.028H1210.66V232.136H1206.18V213.028ZM1203.15 205.412L1206.52 203.066C1208.69 204.46 1211.62 206.67 1213.08 208.268L1209.47 210.886C1208.18 209.322 1205.39 207.01 1203.15 205.412Z" fill="#373737"/>
<path d="M973.936 155.16L976.996 153.052C978.866 154.65 981.076 156.928 982.096 158.526L978.798 160.838C977.914 159.206 975.772 156.826 973.936 155.16ZM951.666 161.79H982.368V165.666H951.666V161.79ZM951.02 171.412C955.134 170.8 961.594 169.678 967.544 168.59L967.85 172.296C962.342 173.452 956.426 174.642 952.04 175.526L951.02 171.412ZM958.126 156.316H962.24V179.3C962.24 181.51 961.798 182.632 960.404 183.278C959.044 183.924 957.038 184.06 954.25 184.06C954.08 182.904 953.4 181.068 952.788 179.912C954.726 180.014 956.698 180.014 957.31 179.98C957.922 179.98 958.126 179.81 958.126 179.232V156.316ZM965.096 152.338L967.85 155.806C963.43 157.166 957.616 158.084 952.686 158.628C952.482 157.676 951.972 156.146 951.496 155.228C956.29 154.582 961.594 153.528 965.096 152.338ZM968.428 152.406H972.712C972.474 166.108 975.534 180.048 978.628 180.048C979.342 180.048 979.716 178.382 979.92 174.336C980.77 175.288 982.164 176.24 983.252 176.682C982.606 182.7 981.314 184.196 978.22 184.196C971.182 184.196 968.53 167.672 968.428 152.406ZM977.676 166.788L981.28 168.318C977.744 174.642 972.202 179.708 966.048 182.972C965.436 181.952 964.314 180.592 963.294 179.674C969.108 177.022 974.65 172.398 977.676 166.788ZM997.702 158.968H1003.72V161.858H997.702V158.968ZM1007.94 158.968H1013.99V161.858H1007.94V158.968ZM1012.76 153.936H1016.64V179.334C1016.64 181.544 1016.2 182.632 1014.8 183.244C1013.41 183.924 1011.27 183.992 1008.07 183.992C1007.9 182.904 1007.29 181.102 1006.75 180.082C1008.82 180.184 1011.2 180.184 1011.88 180.15C1012.53 180.15 1012.76 179.946 1012.76 179.3V153.936ZM995.322 153.936H999.096V183.958H995.322V153.936ZM997.94 153.936H1004.98V166.992H997.94V163.898H1001.92V157.03H997.94V153.936ZM1014.67 153.936V157.03H1009.7V163.898H1014.67V166.992H1006.51V153.936H1014.67ZM991.786 152.202L995.56 153.29C993.622 159.24 990.494 165.7 987.026 169.78C986.686 168.76 985.7 166.448 985.054 165.36C987.808 162.164 990.324 157.166 991.786 152.202ZM989.1 161.518L992.874 157.778L992.976 157.846V184.026H989.1V161.518ZM1021.54 154.412H1051.18V158.594H1021.54V154.412ZM1037.96 165.802L1041.12 163.15C1044.76 165.802 1049.99 169.712 1052.48 172.432L1049.01 175.56C1046.76 172.874 1041.73 168.692 1037.96 165.802ZM1036.6 155.942L1041.15 157.54C1037.28 164.714 1031.09 171.65 1023.27 175.73C1022.62 174.642 1021.33 172.942 1020.48 172.024C1027.76 168.59 1033.78 161.994 1036.6 155.942ZM1034.12 164.17L1038.6 159.716V183.992H1034.12V164.17ZM1062.57 164.476V168.76H1079.27V164.476H1062.57ZM1059.17 161.96H1082.91V171.242H1059.17V161.96ZM1065.02 158.118H1077.02V160.77H1065.02V158.118ZM1069.2 162.81H1072.5V169.984H1069.2V162.81ZM1063.76 165.224L1066.59 164.442C1067.2 165.598 1067.74 167.094 1067.95 168.114L1064.95 168.998C1064.82 167.978 1064.34 166.38 1063.76 165.224ZM1075.02 164.306L1078.38 165.122C1077.67 166.584 1076.96 168.012 1076.41 168.964L1073.62 168.216C1074.13 167.094 1074.75 165.428 1075.02 164.306ZM1061.04 172.364H1081.17V183.924H1076.99V175.016H1065.06V184.06H1061.04V172.364ZM1063.36 176.376H1078.72V179.062H1063.36V176.376ZM1063.36 180.456H1078.72V183.108H1063.36V180.456ZM1070.33 151.828L1073.93 153.154C1070.16 157.948 1063.66 161.314 1057.03 163.32C1056.62 162.504 1055.57 160.872 1054.89 160.158C1061.18 158.628 1067.23 155.772 1070.33 151.828ZM1073.01 153.392C1076.04 156.316 1081.92 158.764 1087.6 159.92C1086.75 160.634 1085.59 162.096 1085.01 163.014C1079.3 161.552 1073.49 158.424 1069.99 154.616L1073.01 153.392ZM1099.84 154.718H1121.26V158.084H1099.84V154.718ZM1102.59 172.976H1117.96V176.138H1102.59V172.976ZM1105.62 162.062V163.898H1115V162.062H1105.62ZM1101.91 159.342H1118.91V166.618H1101.91V159.342ZM1108.44 174.404H1112.55V180.082C1112.55 181.918 1112.18 182.904 1110.75 183.414C1109.29 183.924 1107.39 183.924 1104.84 183.924C1104.63 182.836 1104.12 181.408 1103.65 180.388C1105.21 180.456 1107.25 180.456 1107.76 180.456C1108.27 180.422 1108.44 180.32 1108.44 179.946V174.404ZM1099.09 167.978H1121.53V174.166H1117.89V171.208H1102.56V174.166H1099.09V167.978ZM1107.62 152.882L1111.4 151.862C1112.04 152.984 1112.79 154.514 1113.1 155.534L1109.12 156.69C1108.92 155.67 1108.27 154.038 1107.62 152.882ZM1096.68 152.236L1100.38 153.426C1098.31 159.206 1095.01 165.36 1091.51 169.27C1091.13 168.25 1090.08 166.006 1089.43 165.02C1092.32 161.926 1095.08 157.098 1096.68 152.236ZM1093.38 161.688L1097.08 157.812V157.846V184.026H1093.38V161.688ZM1125.13 154.616H1155.67V158.73H1125.13V154.616ZM1137.48 158.322H1141.86V183.992H1137.48V158.322ZM1139.79 166.55L1142.58 163.32C1146.28 165.156 1151.62 168.114 1154.24 170.222L1151.21 173.962C1148.8 171.82 1143.63 168.624 1139.79 166.55ZM1161.96 153.324H1167.8V156.996H1161.96V153.324ZM1160.53 153.324H1163.72V165.734C1163.72 171.106 1163.45 178.926 1161.68 184.026C1161.04 183.55 1159.61 182.734 1158.79 182.462C1160.46 177.702 1160.53 170.766 1160.53 165.768V153.324ZM1165.7 153.324H1168.99V179.98C1168.99 181.544 1168.79 182.598 1167.91 183.21C1167.02 183.822 1165.87 183.924 1164.13 183.924C1164.06 182.972 1163.69 181.306 1163.21 180.388C1164.13 180.422 1164.98 180.422 1165.29 180.388C1165.59 180.388 1165.7 180.286 1165.7 179.912V153.324ZM1174.47 158.9L1177.73 159.784C1176.3 164.272 1173.99 168.182 1170.8 170.834C1170.25 170.052 1169.27 168.998 1168.42 168.386C1171.14 166.312 1173.38 162.708 1174.47 158.9ZM1172.12 152.916L1175.35 153.698C1174.43 156.86 1172.94 160.124 1171.31 162.198C1170.73 161.654 1169.37 160.634 1168.62 160.158C1170.18 158.356 1171.41 155.602 1172.12 152.916ZM1175.9 154.004L1178.85 153.052C1180.21 155.33 1181.64 158.322 1182.12 160.26L1178.99 161.382C1178.55 159.444 1177.22 156.35 1175.9 154.004ZM1170.97 169.984H1180.18V183.618H1176.98V173.554H1174.03V183.686H1170.97V169.984ZM1172.05 178.484H1178.51V181.986H1172.05V178.484ZM1186.74 153.936H1189.94V174.914C1189.94 176.24 1189.77 177.158 1188.99 177.702C1188.2 178.246 1187.25 178.314 1185.99 178.314C1185.93 177.464 1185.52 176.07 1185.08 175.22C1185.65 175.254 1186.23 175.254 1186.44 175.254C1186.67 175.254 1186.74 175.152 1186.74 174.846V153.936ZM1181.81 153.936H1188.58V157.404H1184.84V183.924H1181.81V153.936ZM1174.37 162.946L1176.88 161.11C1178.85 163.388 1181.47 166.584 1182.66 168.556L1180.01 170.698C1178.89 168.658 1176.37 165.36 1174.37 162.946ZM1163.01 171.038C1164.13 170.29 1165.7 169.066 1167.33 167.774L1168.45 169.95C1167.12 171.378 1165.76 172.84 1164.37 174.268L1163.01 171.038ZM1162.53 162.64L1164.54 161.076C1165.49 161.892 1166.55 162.946 1167.09 163.694L1164.98 165.53C1164.51 164.748 1163.38 163.524 1162.53 162.64ZM1201.8 166.754L1205.75 168.114C1203.81 171.174 1200.72 174.302 1198.03 176.274C1197.35 175.458 1195.85 173.928 1194.97 173.214C1197.55 171.684 1200.27 169.236 1201.8 166.754ZM1219.28 167.026L1223.26 168.862C1218.16 178.246 1209.22 182.122 1196.33 184.026C1195.96 182.836 1195.11 181.204 1194.26 180.15C1206.43 178.688 1215.03 175.322 1219.28 167.026ZM1194.46 161.926H1224.99V165.802H1194.46V161.926ZM1211.26 154.854H1222.58V158.662H1211.26V154.854ZM1208.37 152.134H1212.75V164.17H1208.37V152.134ZM1199.12 154.344H1203.27V163.83H1199.12V154.344ZM1207.86 164.816H1212.21V175.764H1207.86V164.816Z" fill="#373737"/>
<path d="M704.643 95.4546H765.14V110.995H704.643V95.4546ZM696.762 66.1496H774.242V116.434H756.815V81.5792H713.301V116.434H696.762V66.1496ZM743.605 28.4083L756.149 19.972C765.917 29.6294 779.348 43.3939 785.343 52.8292L771.689 62.8195C766.361 53.3842 753.596 38.8427 743.605 28.4083ZM694.43 59.8224C693.653 56.7143 690.989 48.722 689.102 44.3929C692.432 43.6159 694.875 41.6178 698.538 38.1767C702.312 34.7356 713.967 21.5261 720.96 8.42765L737.278 15.4209C727.843 29.2964 715.077 42.7278 703.644 51.8301V52.2742C703.644 52.2742 694.43 57.0473 694.43 59.8224ZM694.43 59.8224L694.208 47.279L704.754 41.7288L771.467 40.0637C771.578 44.5039 772.244 51.1641 772.91 54.6052C710.526 57.3803 701.313 57.4913 694.43 59.8224ZM846.95 32.2935H868.484V39.1757H846.95V32.2935ZM846.95 41.1738H868.484V48.056H846.95V41.1738ZM832.186 91.5695H885.69V101.005H832.186V91.5695ZM843.842 22.0811H870.372V30.0734H843.842V22.0811ZM855.941 57.1583V60.5994H859.049V57.1583H855.941ZM846.95 50.4981H868.484V67.2597H846.95V50.4981ZM833.074 80.4691H874.812V78.249H825.637V69.5908H889.686V89.1274H833.074V80.4691ZM828.523 80.4691H843.287C841.844 87.5734 839.956 95.4546 838.402 101.005H823.417C825.304 95.2326 827.191 87.2404 828.523 80.4691ZM880.362 91.5695H895.347C895.347 91.5695 895.125 95.2326 894.57 97.0087C893.127 105.667 891.24 110.551 888.243 113.104C885.135 115.546 881.583 116.212 876.81 116.434C872.925 116.545 866.153 116.545 859.16 116.323C858.938 112.882 857.273 107.998 855.053 104.779C861.38 105.334 868.706 105.445 871.593 105.445C873.813 105.445 875.145 105.334 876.366 104.557C878.031 103.447 879.363 99.7838 880.251 93.1236L880.362 91.5695ZM795 23.4132L804.102 12.5348C809.652 15.3099 816.979 19.861 820.531 23.4132L810.873 35.5126C807.765 31.8495 800.55 26.7433 795 23.4132ZM792.78 52.7182L801.549 41.5068C807.099 44.0599 814.537 48.278 818.2 51.6081L808.875 63.9296C805.656 60.5994 798.33 55.7153 792.78 52.7182ZM795.444 107.332C799.551 98.5627 805.101 84.6873 809.43 71.3668L822.196 79.5811C818.533 91.5695 814.315 104.113 809.874 115.324L795.444 107.332ZM834.85 38.1767L840.956 35.9566C842.954 39.7307 845.063 44.8369 845.618 47.945L839.29 50.7201C838.624 47.501 836.737 42.1728 834.85 38.1767ZM835.627 53.6062L841.511 51.3861C842.954 54.8272 844.175 59.3784 844.508 62.3755L838.18 65.1506C837.847 62.0425 836.848 57.2693 835.627 53.6062ZM818.866 53.3842L826.081 55.2713C825.304 60.5994 823.75 66.2606 821.752 69.9238C820.309 68.4807 817.312 66.3716 815.536 65.2616C817.423 61.9315 818.311 57.6023 818.866 53.3842ZM819.31 35.8456C818.866 34.6246 817.423 31.6274 816.424 29.9624C817.867 29.7404 818.866 28.5193 820.087 26.7433C821.419 25.1892 825.082 18.418 826.747 12.3128L835.072 15.3099C832.63 21.1931 828.079 27.8533 823.639 32.6265V32.7375C823.639 32.7375 819.31 34.7356 819.31 35.8456ZM819.31 35.8456L818.977 29.5184L823.861 27.1873L836.071 26.7433C835.405 28.9634 834.739 32.1825 834.628 34.0695C824.083 34.6246 821.086 35.1796 819.31 35.8456ZM819.976 50.7201C819.643 49.4991 818.089 46.391 817.09 44.7259C818.977 44.3929 820.42 42.9498 822.418 40.7298C824.638 38.6207 831.076 29.9624 834.628 21.9701L842.399 25.5222C838.291 33.0705 831.853 41.2848 825.304 47.279V47.501C825.304 47.501 819.976 49.4991 819.976 50.7201ZM819.976 50.7201L819.31 44.1709L823.639 41.8398L839.845 40.0637C840.178 42.1728 840.956 45.2809 841.622 46.946C825.415 49.055 822.085 49.8321 819.976 50.7201ZM826.747 55.2713L833.296 53.4952C834.406 57.3803 835.294 62.2645 835.405 65.4836L828.523 67.7037C828.412 64.3736 827.746 59.2674 826.747 55.2713ZM850.835 14.6439L861.047 12.6458C862.379 15.1989 863.933 18.973 864.71 21.1931L854.054 23.6352C853.499 21.1931 852.056 17.419 850.835 14.6439ZM888.021 38.3987L894.015 36.1786C896.013 39.9527 898.122 45.0589 898.678 48.167L892.35 50.8311C891.684 47.612 889.797 42.2838 888.021 38.3987ZM888.576 53.8282L894.57 51.4971C896.124 55.6043 897.678 61.1545 898.122 64.7066L891.795 67.5927C891.462 63.9296 890.13 58.1574 888.576 53.8282ZM872.037 53.0512L879.252 55.0493C878.475 60.2664 876.921 65.9276 874.923 69.5908C873.48 68.1477 870.483 66.0386 868.706 64.9286C870.594 61.5985 871.482 57.2693 872.037 53.0512ZM872.481 36.0676C872.037 34.8466 870.594 31.8495 869.595 30.1844C870.927 29.9624 872.037 28.7413 873.258 26.9653C874.479 25.4112 878.253 18.64 879.918 12.5348L888.243 15.5319C885.801 21.4151 881.25 28.0753 876.81 32.8485V32.9595C876.81 32.9595 872.481 34.9576 872.481 36.0676ZM872.481 36.0676L872.148 29.8514L877.032 27.4093L889.131 26.9653C888.465 29.1854 887.799 32.4045 887.799 34.2915C877.143 34.8466 874.146 35.4016 872.481 36.0676ZM873.147 50.9421C872.814 49.7211 871.26 46.613 870.15 44.9479C872.148 44.6149 873.591 43.1718 875.589 40.9518C877.698 38.8427 884.247 30.1844 887.688 22.1921L895.569 25.7442C891.462 33.2925 885.024 41.5068 878.364 47.501V47.723C878.364 47.723 873.147 49.7211 873.147 50.9421ZM873.147 50.9421L872.481 44.3929L876.81 42.0618L893.016 40.2857C893.349 42.5058 894.126 45.5029 894.792 47.168C878.586 49.3881 875.256 50.0541 873.147 50.9421ZM879.474 55.6043L886.023 53.8282C887.244 58.0464 888.243 63.3745 888.243 66.8157L881.361 69.0357C881.361 65.5946 880.584 59.9334 879.474 55.6043ZM954.29 17.0859H996.805V31.6274H954.29V17.0859ZM950.183 56.0483H1010.24V71.3668H950.183V56.0483ZM972.495 46.835H989.257V99.6728C989.257 107.554 987.703 111.55 982.485 113.992C977.268 116.323 970.497 116.656 961.728 116.656C960.951 112.105 958.62 105.445 956.399 101.227C961.395 101.449 968.166 101.449 969.942 101.449C971.829 101.449 972.495 101.005 972.495 99.3398V46.835ZM990.589 17.0859H994.918L998.692 16.3089L1009.46 24.0792C1002.36 34.7356 992.476 47.834 981.375 55.7153C979.377 53.0512 974.937 48.944 972.495 46.835C980.043 39.9527 987.481 27.7423 990.589 20.5271V17.0859ZM906.226 71.4778L915.883 60.2664C927.649 71.1448 946.409 86.9073 954.845 96.7867L944.189 110.218C936.197 99.8948 918.436 83.3552 906.226 71.4778ZM906.226 71.4778C910.222 55.9373 913.996 31.4054 914.884 11.3137L930.869 12.0908C929.204 33.5145 924.985 59.0454 920.878 76.584L906.226 71.4778ZM933.422 26.7433H948.407V40.3967C948.407 61.5985 945.188 95.1216 915.661 116.878C913.33 113.437 907.891 107.998 904.339 105.445C930.758 87.0183 933.422 58.1574 933.422 40.1747V26.7433ZM904.45 34.4025C917.437 33.9585 936.419 32.9595 954.068 31.9605L953.957 46.391C937.196 47.612 919.213 48.722 905.893 49.6101L904.45 34.4025ZM1075.51 60.4884L1088.38 57.1583C1089.6 59.4894 1090.83 62.9305 1091.27 65.1506L1077.95 69.0357C1077.62 66.7047 1076.62 63.1525 1075.51 60.4884ZM1058.86 77.361H1112.36V86.9073H1058.86V77.361ZM1058.86 89.7934H1112.36V99.3398H1058.86V89.7934ZM1056.75 102.448H1117.8V113.437H1056.75V102.448ZM1062.41 63.8186H1115.13V74.4749H1062.41V116.434H1047.76V78.6931L1062.3 63.8186H1062.41ZM1076.17 69.7018H1091.05V107.221H1076.17V69.7018ZM1055.97 54.2722L1070.4 58.8234C1064.74 71.6998 1055.19 84.7983 1045.31 92.6795C1043.54 89.5714 1038.88 82.4672 1035.99 79.2481C1044.09 73.4759 1051.75 64.0406 1055.97 54.2722ZM1037.88 32.8485H1113.8V58.9344H1037.88V47.723H1097.93V44.0599H1037.88V32.8485ZM1101.93 10.8697L1114.02 23.0802C1090.27 28.1863 1059.08 30.6284 1032.33 31.4054C1031.99 27.7423 1030.11 21.6371 1028.66 18.418C1054.75 17.419 1083.94 14.8659 1101.93 10.8697ZM1028.66 18.418H1044.54V50.6091C1044.54 70.0348 1042.54 99.2288 1029.88 117.1C1026.89 114.547 1019.89 110.329 1015.9 108.775C1027.77 92.4575 1028.66 67.9257 1028.66 50.6091V18.418ZM1134.01 31.4054H1224.47V47.168H1134.01V31.4054ZM1140.33 63.5965H1218.81V79.1371H1140.33V63.5965ZM1129.45 97.3417H1229.91V113.215H1129.45V97.3417ZM1170.64 45.3919H1188.51V105.889H1170.64V45.3919ZM1160.54 19.972L1173.97 10.5367C1181.07 14.8659 1190.95 21.7481 1195.95 26.9653L1181.52 37.3996C1177.3 32.4045 1167.86 24.9672 1160.54 19.972Z" fill="#009E96"/>
</g>
<defs>
<filter id="filter0_d_814_336762" x="672" y="0.427734" width="584" height="266.572" filterUnits="userSpaceOnUse" color-interpolation-filters="sRGB">
<feFlood flood-opacity="0" result="BackgroundImageFix"/>
<feColorMatrix in="SourceAlpha" type="matrix" values="0 0 0 0 0 0 0 0 0 0 0 0 0 0 0 0 0 0 127 0" result="hardAlpha"/>
<feOffset dx="4" dy="4"/>
<feGaussianBlur stdDeviation="6"/>
<feComposite in2="hardAlpha" operator="out"/>
<feColorMatrix type="matrix" values="0 0 0 0 1 0 0 0 0 1 0 0 0 0 1 0 0 0 0.4 0"/>
<feBlend mode="normal" in2="BackgroundImageFix" result="effect1_dropShadow_814_336762"/>
<feBlend mode="normal" in="SourceGraphic" in2="effect1_dropShadow_814_336762" result="shape"/>
</filter>
</defs>
</svg>
