<svg width="350" height="198" viewBox="0 0 350 198" fill="none" xmlns="http://www.w3.org/2000/svg">
<ellipse cx="175" cy="99" rx="175" ry="99" fill="url(#paint0_radial_1455_2290)"/>
<ellipse cx="175" cy="99" rx="175" ry="99" fill="url(#paint1_radial_1455_2290)"/>
<ellipse cx="175" cy="99" rx="175" ry="99" fill="url(#paint2_radial_1455_2290)"/>
<path d="M99.1518 82.248C99.1518 79.2362 99.6071 76.4541 100.518 73.9017C101.479 71.3493 102.642 69.0522 104.008 67.0103C105.374 64.9684 107.17 62.5691 109.396 59.8126C111.673 56.9539 113.468 54.5291 114.784 52.5383C116.15 50.5474 117.288 48.2758 118.199 45.7234C119.16 43.12 119.64 40.3124 119.64 37.3006C119.64 35.5139 119.387 34.1356 118.882 33.1657C118.376 32.1448 117.465 31.6343 116.15 31.6343C113.974 31.6343 112.887 33.5996 112.887 37.5303V45.5703H99.1518L99 41.512C99 36.5093 99.5059 32.4 100.518 29.184C101.529 25.968 103.3 23.5177 105.83 21.8331C108.359 20.1486 111.85 19.3063 116.301 19.3063C121.765 19.3063 125.989 20.8632 128.974 23.9771C131.959 27.04 133.451 31.4046 133.451 37.0709C133.451 40.6952 132.945 43.9878 131.934 46.9486C130.972 49.8583 129.758 52.4107 128.291 54.6057C126.875 56.8008 124.978 59.3787 122.6 62.3394C120.88 64.4324 119.438 66.2956 118.274 67.9291C117.161 69.5627 116.15 71.2472 115.239 72.9829H132.996V85.3874H99.1518V82.248Z" fill="#009E96"/>
<path d="M155.392 86C149.878 86 145.629 84.443 142.644 81.3291C139.659 78.1642 138.167 73.672 138.167 67.8526V38.1429C138.167 31.915 139.608 27.1676 142.492 23.9006C145.376 20.6335 149.676 19 155.392 19C161.159 19 165.485 20.6335 168.368 23.9006C171.252 27.1676 172.694 31.915 172.694 38.1429V67.8526C172.694 73.723 171.201 78.2152 168.217 81.3291C165.232 84.443 160.957 86 155.392 86ZM155.392 73.9017C156.353 73.9017 157.138 73.4678 157.745 72.6C158.352 71.6811 158.655 70.6091 158.655 69.384V36.9177C158.655 35.029 158.428 33.5996 157.972 32.6297C157.568 31.6088 156.708 31.0983 155.392 31.0983C154.077 31.0983 153.217 31.6088 152.812 32.6297C152.407 33.5996 152.205 35.029 152.205 36.9177V69.384C152.205 70.6091 152.483 71.6811 153.04 72.6C153.647 73.4678 154.431 73.9017 155.392 73.9017Z" fill="#009E96"/>
<path d="M178.699 82.248C178.699 79.2362 179.155 76.4541 180.065 73.9017C181.026 71.3493 182.19 69.0522 183.556 67.0103C184.922 64.9684 186.718 62.5691 188.943 59.8126C191.22 56.9539 193.016 54.5291 194.331 52.5383C195.697 50.5474 196.835 48.2758 197.746 45.7234C198.707 43.12 199.188 40.3124 199.188 37.3006C199.188 35.5139 198.935 34.1356 198.429 33.1657C197.923 32.1448 197.012 31.6343 195.697 31.6343C193.522 31.6343 192.434 33.5996 192.434 37.5303V45.5703H178.699L178.547 41.512C178.547 36.5093 179.053 32.4 180.065 29.184C181.077 25.968 182.848 23.5177 185.377 21.8331C187.906 20.1486 191.397 19.3063 195.849 19.3063C201.313 19.3063 205.537 20.8632 208.521 23.9771C211.506 27.04 212.999 31.4046 212.999 37.0709C212.999 40.6952 212.493 43.9878 211.481 46.9486C210.52 49.8583 209.306 52.4107 207.839 54.6057C206.422 56.8008 204.525 59.3787 202.147 62.3394C200.427 64.4324 198.985 66.2956 197.822 67.9291C196.709 69.5627 195.697 71.2472 194.787 72.9829H212.543V85.3874H178.699V82.248Z" fill="#009E96"/>
<path d="M236.23 85.3874V74.9737H216.879V64.7131L229.173 19.536H249.509V64.024H253V74.9737H249.509V85.3874H236.23ZM228.49 64.024H236.23V30.8686L228.49 64.024Z" fill="#009E96"/>
<path d="M20.561 134.77V103.737H16V96.3586H32.8132V103.737H28.2522V134.77H20.561Z" fill="#373737"/>
<path d="M35.2942 134.77L39.0056 96.3586H52.018L55.6847 134.77H48.396L47.8594 128.554H43.2089L42.7618 134.77H35.2942ZM43.7902 122.428H47.2781L45.5789 102.887H45.2211L43.7902 122.428Z" fill="#373737"/>
<path d="M59.3671 134.77V96.3586H67.0582V128.241H74.9729V134.77H59.3671Z" fill="#373737"/>
<path d="M78.4814 134.77V96.3586H93.8637V103.781H86.3067V111.249H93.5506V118.493H86.3067V127.302H94.3555V134.77H78.4814Z" fill="#373737"/>
<path d="M98.2507 134.77V96.3586H106.165L109.698 114.737V96.3586H117.121V134.77H109.609L105.763 115.542V134.77H98.2507Z" fill="#373737"/>
<path d="M125.172 134.77V103.737H120.611V96.3586H137.424V103.737H132.863V134.77H125.172Z" fill="#373737"/>
<path d="M159.268 99.8465V94.3911H167.093V99.8465H159.268ZM159.268 134.77V102.038H167.093V134.77H159.268Z" fill="#373737"/>
<path d="M171.527 102.038H179.353V106.196C179.681 104.855 180.247 103.767 181.052 102.932C181.857 102.097 182.93 101.68 184.272 101.68C186.477 101.68 188.102 102.365 189.146 103.737C190.219 105.078 190.755 107.001 190.755 109.505V134.77H183.064V110.31C183.064 109.595 182.915 108.983 182.617 108.477C182.349 107.97 181.916 107.716 181.32 107.716C180.515 107.716 179.979 108.089 179.71 108.834C179.472 109.55 179.353 110.519 179.353 111.741V134.77H171.527V102.038Z" fill="#373737"/>
<path d="M210.448 134.77V103.737H205.887V96.3586H222.7V103.737H218.139V134.77H210.448Z" fill="#373737"/>
<path d="M231.193 135.127C228.659 135.127 226.915 134.293 225.961 132.623C225.037 130.924 224.575 128.509 224.575 125.379C224.575 122.816 224.903 120.848 225.559 119.477C226.245 118.105 227.184 117.107 228.376 116.481C229.568 115.825 231.387 115.109 233.831 114.334L235.978 113.619V110.265C235.978 109.401 235.799 108.745 235.441 108.298C235.113 107.821 234.711 107.582 234.234 107.582C233.816 107.582 233.444 107.776 233.116 108.164C232.818 108.551 232.669 109.073 232.669 109.729V111.696H225.067V110.623C225.067 107.403 225.812 105.108 227.303 103.737C228.823 102.365 231.283 101.68 234.681 101.68C237.394 101.68 239.6 102.395 241.299 103.826C242.998 105.227 243.848 107.225 243.848 109.818V134.77H236.067V130.879C235.68 132.221 235.054 133.264 234.189 134.009C233.354 134.755 232.356 135.127 231.193 135.127ZM234.279 129.046C234.875 129.046 235.292 128.807 235.531 128.33C235.799 127.824 235.933 127.213 235.933 126.497V117.375C234.77 117.822 233.906 118.389 233.34 119.074C232.803 119.76 232.535 120.714 232.535 121.936V126.139C232.535 128.077 233.116 129.046 234.279 129.046Z" fill="#373737"/>
<path d="M248.158 99.8465V94.3911H255.984V99.8465H248.158ZM248.158 134.77V102.038H255.984V134.77H248.158Z" fill="#373737"/>
<path d="M263.861 134.77L259.881 102.038H266.589L268.78 119.611L270.658 102.038H277.499L279.735 119.611L281.568 102.038H288.947L284.743 134.77H276.918L274.593 116.168L272.536 134.77H263.861Z" fill="#373737"/>
<path d="M298.842 135.127C296.308 135.127 294.564 134.293 293.61 132.623C292.686 130.924 292.224 128.509 292.224 125.379C292.224 122.816 292.552 120.848 293.207 119.477C293.893 118.105 294.832 117.107 296.025 116.481C297.217 115.825 299.035 115.109 301.48 114.334L303.626 113.619V110.265C303.626 109.401 303.447 108.745 303.09 108.298C302.762 107.821 302.359 107.582 301.882 107.582C301.465 107.582 301.092 107.776 300.764 108.164C300.466 108.551 300.317 109.073 300.317 109.729V111.696H292.716V110.623C292.716 107.403 293.461 105.108 294.951 103.737C296.472 102.365 298.931 101.68 302.33 101.68C305.042 101.68 307.248 102.395 308.947 103.826C310.647 105.227 311.496 107.225 311.496 109.818V134.77H303.716V130.879C303.328 132.221 302.702 133.264 301.838 134.009C301.003 134.755 300.004 135.127 298.842 135.127ZM301.927 129.046C302.523 129.046 302.941 128.807 303.179 128.33C303.447 127.824 303.582 127.213 303.582 126.497V117.375C302.419 117.822 301.554 118.389 300.988 119.074C300.451 119.76 300.183 120.714 300.183 121.936V126.139C300.183 128.077 300.764 129.046 301.927 129.046Z" fill="#373737"/>
<path d="M315.852 102.038H323.677V106.196C324.005 104.855 324.571 103.767 325.376 102.932C326.181 102.097 327.254 101.68 328.596 101.68C330.802 101.68 332.426 102.365 333.47 103.737C334.543 105.078 335.079 107.001 335.079 109.505V134.77H327.388V110.31C327.388 109.595 327.239 108.983 326.941 108.477C326.673 107.97 326.241 107.716 325.644 107.716C324.839 107.716 324.303 108.089 324.035 108.834C323.796 109.55 323.677 110.519 323.677 111.741V134.77H315.852V102.038Z" fill="#373737"/>
<path d="M140.695 139.912L142.126 134.769H139.353V128.241H147.492V134.546L145.301 139.912H140.695Z" fill="#009E96"/>
<path d="M65.62 169.362H77.212V171.798H65.62V169.362ZM64.381 163.587H78.619V172.848H75.91V166.002H66.964V172.869H64.381V163.587ZM73.222 156.405L75.196 155.082C75.84 155.684 76.519 156.356 77.233 157.098C77.947 157.84 78.619 158.575 79.249 159.303C79.879 160.017 80.376 160.675 80.74 161.277L78.619 162.831C78.269 162.243 77.793 161.578 77.191 160.836C76.603 160.08 75.959 159.317 75.259 158.547C74.559 157.763 73.88 157.049 73.222 156.405ZM63.688 162.18C63.66 162.012 63.597 161.781 63.499 161.487C63.401 161.193 63.296 160.885 63.184 160.563C63.072 160.241 62.967 159.975 62.869 159.765C63.163 159.695 63.443 159.562 63.709 159.366C63.975 159.156 64.283 158.89 64.633 158.568C64.815 158.386 65.081 158.106 65.431 157.728C65.781 157.35 66.166 156.902 66.586 156.384C67.02 155.852 67.454 155.285 67.888 154.683C68.336 154.067 68.735 153.444 69.085 152.814L71.647 153.906C71.017 154.788 70.338 155.656 69.61 156.51C68.896 157.364 68.161 158.169 67.405 158.925C66.663 159.667 65.921 160.332 65.179 160.92V160.983C65.179 160.983 65.102 161.025 64.948 161.109C64.808 161.193 64.64 161.298 64.444 161.424C64.248 161.536 64.073 161.669 63.919 161.823C63.765 161.963 63.688 162.082 63.688 162.18ZM63.688 162.18L63.667 160.227L65.368 159.345L78.283 158.904C78.297 159.254 78.325 159.653 78.367 160.101C78.409 160.549 78.458 160.906 78.514 161.172C76.498 161.27 74.748 161.354 73.264 161.424C71.794 161.494 70.548 161.557 69.526 161.613C68.518 161.669 67.671 161.718 66.985 161.76C66.313 161.802 65.767 161.844 65.347 161.886C64.941 161.928 64.612 161.977 64.36 162.033C64.108 162.075 63.884 162.124 63.688 162.18ZM94.642 157.098H98.653V158.253H94.642V157.098ZM94.642 158.736H98.653V159.891H94.642V158.736ZM91.702 168.333H102.097V169.866H91.702V168.333ZM94.033 155.25H99.073V156.552H94.033V155.25ZM96.091 161.571V162.495H97.141V161.571H96.091ZM94.621 160.458H98.653V163.608H94.621V160.458ZM91.975 166.254H100.291V165.582H90.631V164.154H102.622V167.661H91.975V166.254ZM91.261 166.254H93.571C93.431 166.87 93.277 167.507 93.109 168.165C92.955 168.809 92.801 169.376 92.647 169.866H90.316C90.484 169.348 90.652 168.767 90.82 168.123C90.988 167.465 91.135 166.842 91.261 166.254ZM101.278 168.333H103.63C103.63 168.333 103.623 168.445 103.609 168.669C103.595 168.893 103.56 169.075 103.504 169.215C103.336 170.069 103.154 170.741 102.958 171.231C102.762 171.721 102.517 172.085 102.223 172.323C101.957 172.519 101.67 172.652 101.362 172.722C101.054 172.792 100.69 172.841 100.27 172.869C99.934 172.883 99.465 172.883 98.863 172.869C98.261 172.855 97.631 172.841 96.973 172.827C96.959 172.547 96.889 172.232 96.763 171.882C96.651 171.546 96.504 171.245 96.322 170.979C96.952 171.035 97.568 171.07 98.17 171.084C98.786 171.112 99.227 171.126 99.493 171.126C99.703 171.126 99.878 171.112 100.018 171.084C100.158 171.07 100.284 171.028 100.396 170.958C100.564 170.832 100.718 170.58 100.858 170.202C101.012 169.824 101.145 169.285 101.257 168.585L101.278 168.333ZM85.024 155.124L86.452 153.423C86.816 153.605 87.194 153.822 87.586 154.074C87.978 154.312 88.342 154.564 88.678 154.83C89.028 155.082 89.308 155.32 89.518 155.544L88.006 157.434C87.81 157.196 87.544 156.944 87.208 156.678C86.872 156.398 86.508 156.125 86.116 155.859C85.738 155.579 85.374 155.334 85.024 155.124ZM84.583 160.689L85.969 158.946C86.333 159.114 86.711 159.317 87.103 159.555C87.495 159.779 87.866 160.01 88.216 160.248C88.58 160.486 88.874 160.71 89.098 160.92L87.628 162.852C87.432 162.628 87.159 162.39 86.809 162.138C86.459 161.872 86.088 161.613 85.696 161.361C85.318 161.095 84.947 160.871 84.583 160.689ZM85.045 171.378C85.311 170.818 85.598 170.174 85.906 169.446C86.214 168.704 86.522 167.92 86.83 167.094C87.152 166.254 87.439 165.421 87.691 164.595L89.686 165.897C89.462 166.639 89.217 167.402 88.951 168.186C88.685 168.956 88.412 169.719 88.132 170.475C87.866 171.231 87.593 171.952 87.313 172.638L85.045 171.378ZM92.416 158.169L93.445 157.791C93.641 158.141 93.823 158.526 93.991 158.946C94.173 159.352 94.299 159.702 94.369 159.996L93.319 160.458C93.249 160.15 93.13 159.779 92.962 159.345C92.794 158.911 92.612 158.519 92.416 158.169ZM92.563 160.983L93.55 160.626C93.704 160.962 93.844 161.333 93.97 161.739C94.096 162.145 94.173 162.495 94.201 162.789L93.151 163.23C93.109 162.936 93.032 162.579 92.92 162.159C92.822 161.739 92.703 161.347 92.563 160.983ZM89.476 161.004L90.694 161.319C90.61 161.823 90.491 162.334 90.337 162.852C90.197 163.356 90.029 163.783 89.833 164.133C89.707 164.021 89.539 163.888 89.329 163.734C89.119 163.58 88.937 163.461 88.783 163.377C88.979 163.041 89.126 162.67 89.224 162.264C89.336 161.844 89.42 161.424 89.476 161.004ZM89.476 157.623C89.434 157.525 89.364 157.371 89.266 157.161C89.168 156.937 89.077 156.755 88.993 156.615C89.133 156.587 89.252 156.524 89.35 156.426C89.448 156.328 89.553 156.195 89.665 156.027C89.749 155.943 89.868 155.761 90.022 155.481C90.19 155.187 90.358 154.851 90.526 154.473C90.708 154.095 90.848 153.724 90.946 153.36L92.311 153.843C92.073 154.403 91.765 154.97 91.387 155.544C91.009 156.118 90.624 156.622 90.232 157.056V157.077C90.232 157.077 90.169 157.112 90.043 157.182C89.917 157.238 89.791 157.308 89.665 157.392C89.539 157.476 89.476 157.553 89.476 157.623ZM89.476 157.623L89.413 156.573L90.232 156.174L92.584 156.069C92.542 156.265 92.493 156.475 92.437 156.699C92.395 156.923 92.374 157.119 92.374 157.287C91.688 157.315 91.149 157.35 90.757 157.392C90.379 157.434 90.092 157.476 89.896 157.518C89.714 157.546 89.574 157.581 89.476 157.623ZM89.56 160.458C89.532 160.346 89.462 160.185 89.35 159.975C89.252 159.751 89.161 159.569 89.077 159.429C89.259 159.401 89.427 159.324 89.581 159.198C89.735 159.058 89.903 158.89 90.085 158.694C90.225 158.554 90.435 158.302 90.715 157.938C91.009 157.574 91.31 157.147 91.618 156.657C91.94 156.167 92.22 155.67 92.458 155.166L93.739 155.754C93.319 156.482 92.822 157.21 92.248 157.938C91.674 158.652 91.079 159.289 90.463 159.849V159.891C90.463 159.891 90.386 159.926 90.232 159.996C90.092 160.052 89.945 160.122 89.791 160.206C89.637 160.29 89.56 160.374 89.56 160.458ZM89.56 160.458L89.455 159.366L90.19 158.967L93.361 158.631C93.375 158.785 93.41 158.974 93.466 159.198C93.536 159.422 93.592 159.604 93.634 159.744C92.598 159.87 91.807 159.982 91.261 160.08C90.729 160.164 90.344 160.234 90.106 160.29C89.868 160.346 89.686 160.402 89.56 160.458ZM90.925 161.298L92.017 161.004C92.143 161.382 92.241 161.795 92.311 162.243C92.395 162.677 92.444 163.048 92.458 163.356L91.303 163.734C91.289 163.412 91.247 163.027 91.177 162.579C91.121 162.117 91.037 161.69 90.925 161.298ZM95.398 153.738L97.015 153.402C97.155 153.64 97.295 153.92 97.435 154.242C97.589 154.564 97.708 154.83 97.792 155.04L96.091 155.46C96.021 155.222 95.916 154.942 95.776 154.62C95.65 154.298 95.524 154.004 95.398 153.738ZM102.37 158.169L103.378 157.812C103.588 158.148 103.784 158.533 103.966 158.967C104.148 159.401 104.274 159.765 104.344 160.059L103.294 160.5C103.224 160.192 103.098 159.821 102.916 159.387C102.748 158.939 102.566 158.533 102.37 158.169ZM102.496 161.004L103.504 160.626C103.686 161.032 103.847 161.473 103.987 161.949C104.127 162.425 104.218 162.838 104.26 163.188L103.21 163.65C103.168 163.3 103.084 162.88 102.958 162.39C102.832 161.886 102.678 161.424 102.496 161.004ZM99.451 160.941L100.648 161.256C100.578 161.746 100.466 162.25 100.312 162.768C100.158 163.272 99.983 163.706 99.787 164.07C99.675 163.958 99.507 163.825 99.283 163.671C99.073 163.517 98.898 163.398 98.758 163.314C98.954 162.978 99.101 162.6 99.199 162.18C99.297 161.76 99.381 161.347 99.451 160.941ZM99.43 157.623C99.402 157.525 99.339 157.371 99.241 157.161C99.143 156.937 99.052 156.755 98.968 156.615C99.08 156.601 99.185 156.545 99.283 156.447C99.395 156.335 99.507 156.202 99.619 156.048C99.703 155.95 99.822 155.761 99.976 155.481C100.144 155.201 100.312 154.872 100.48 154.494C100.662 154.116 100.802 153.738 100.9 153.36L102.265 153.864C102.041 154.424 101.74 154.991 101.362 155.565C100.984 156.139 100.599 156.636 100.207 157.056V157.077C100.207 157.077 100.144 157.112 100.018 157.182C99.892 157.252 99.759 157.329 99.619 157.413C99.493 157.483 99.43 157.553 99.43 157.623ZM99.43 157.623L99.388 156.594L100.207 156.195L102.538 156.09C102.496 156.272 102.447 156.482 102.391 156.72C102.349 156.944 102.328 157.133 102.328 157.287C101.642 157.329 101.103 157.371 100.711 157.413C100.333 157.455 100.053 157.49 99.871 157.518C99.689 157.546 99.542 157.581 99.43 157.623ZM99.535 160.458C99.507 160.36 99.437 160.199 99.325 159.975C99.227 159.751 99.129 159.569 99.031 159.429C99.213 159.401 99.381 159.324 99.535 159.198C99.689 159.072 99.857 158.904 100.039 158.694C100.179 158.554 100.389 158.302 100.669 157.938C100.963 157.574 101.264 157.147 101.572 156.657C101.894 156.167 102.167 155.67 102.391 155.166L103.714 155.754C103.294 156.482 102.79 157.21 102.202 157.938C101.628 158.666 101.033 159.31 100.417 159.87V159.891C100.417 159.891 100.34 159.926 100.186 159.996C100.046 160.066 99.899 160.143 99.745 160.227C99.605 160.311 99.535 160.388 99.535 160.458ZM99.535 160.458L99.43 159.387L100.165 158.988L103.315 158.631C103.343 158.813 103.385 159.016 103.441 159.24C103.497 159.45 103.553 159.618 103.609 159.744C102.573 159.898 101.782 160.017 101.236 160.101C100.69 160.185 100.298 160.255 100.06 160.311C99.836 160.353 99.661 160.402 99.535 160.458ZM100.837 161.319L101.908 161.025C102.034 161.445 102.139 161.9 102.223 162.39C102.321 162.866 102.377 163.265 102.391 163.587L101.236 163.965C101.236 163.629 101.194 163.209 101.11 162.705C101.04 162.201 100.949 161.739 100.837 161.319ZM116.041 153.192H118.939C118.911 153.906 118.869 154.767 118.813 155.775C118.757 156.783 118.645 157.882 118.477 159.072C118.309 160.248 118.036 161.459 117.658 162.705C117.28 163.951 116.762 165.19 116.104 166.422C115.46 167.64 114.627 168.802 113.605 169.908C112.597 171 111.358 171.98 109.888 172.848C109.664 172.512 109.363 172.155 108.985 171.777C108.607 171.413 108.208 171.084 107.788 170.79C109.216 170.02 110.413 169.145 111.379 168.165C112.345 167.171 113.122 166.114 113.71 164.994C114.312 163.874 114.774 162.747 115.096 161.613C115.418 160.479 115.642 159.38 115.768 158.316C115.894 157.252 115.964 156.279 115.978 155.397C116.006 154.515 116.027 153.78 116.041 153.192ZM118.708 155.733C118.736 156.013 118.785 156.489 118.855 157.161C118.939 157.833 119.086 158.624 119.296 159.534C119.506 160.43 119.807 161.389 120.199 162.411C120.605 163.433 121.13 164.455 121.774 165.477C122.432 166.485 123.251 167.43 124.231 168.312C125.211 169.194 126.38 169.936 127.738 170.538C127.346 170.832 126.982 171.175 126.646 171.567C126.324 171.973 126.072 172.358 125.89 172.722C124.462 172.036 123.23 171.203 122.194 170.223C121.172 169.243 120.318 168.186 119.632 167.052C118.946 165.904 118.386 164.756 117.952 163.608C117.532 162.46 117.21 161.375 116.986 160.353C116.762 159.331 116.601 158.442 116.503 157.686C116.405 156.916 116.328 156.356 116.272 156.006L118.708 155.733ZM131.623 157.308H150.124V159.891H131.623V157.308ZM142.564 153.171H145.357V169.53C145.357 170.314 145.259 170.909 145.063 171.315C144.881 171.721 144.552 172.022 144.076 172.218C143.6 172.428 142.991 172.561 142.249 172.617C141.521 172.673 140.639 172.701 139.603 172.701C139.561 172.449 139.491 172.162 139.393 171.84C139.309 171.518 139.204 171.196 139.078 170.874C138.966 170.538 138.847 170.251 138.721 170.013C139.155 170.041 139.596 170.062 140.044 170.076C140.492 170.076 140.891 170.076 141.241 170.076C141.591 170.076 141.836 170.076 141.976 170.076C142.186 170.062 142.333 170.02 142.417 169.95C142.515 169.866 142.564 169.726 142.564 169.53V153.171ZM141.178 157.728L143.404 159.156C142.858 160.248 142.2 161.347 141.43 162.453C140.674 163.545 139.834 164.602 138.91 165.624C137.986 166.632 137.02 167.57 136.012 168.438C135.004 169.292 133.975 170.027 132.925 170.643C132.701 170.279 132.4 169.88 132.022 169.446C131.644 169.012 131.273 168.655 130.909 168.375C131.973 167.843 133.009 167.185 134.017 166.401C135.025 165.617 135.977 164.756 136.873 163.818C137.783 162.866 138.602 161.872 139.33 160.836C140.058 159.8 140.674 158.764 141.178 157.728ZM154.471 161.592H160.078V163.965H154.471V161.592ZM157.369 157.413H164.173V159.828H157.369V157.413ZM165.118 158.337C165.552 160.031 166.154 161.606 166.924 163.062C167.694 164.504 168.66 165.778 169.822 166.884C170.984 167.976 172.356 168.823 173.938 169.425C173.756 169.579 173.546 169.789 173.308 170.055C173.084 170.321 172.867 170.601 172.657 170.895C172.461 171.175 172.3 171.434 172.174 171.672C170.508 170.902 169.087 169.901 167.911 168.669C166.735 167.423 165.748 165.974 164.95 164.322C164.166 162.656 163.515 160.822 162.997 158.82L165.118 158.337ZM170.893 159.072L173.203 160.794C172.615 161.326 171.992 161.865 171.334 162.411C170.676 162.943 170.025 163.454 169.381 163.944C168.737 164.434 168.128 164.868 167.554 165.246L165.79 163.776C166.35 163.384 166.938 162.922 167.554 162.39C168.17 161.858 168.772 161.305 169.36 160.731C169.948 160.157 170.459 159.604 170.893 159.072ZM162.661 157.413H165.37V169.95C165.37 170.622 165.286 171.147 165.118 171.525C164.95 171.917 164.642 172.218 164.194 172.428C163.76 172.624 163.221 172.743 162.577 172.785C161.933 172.827 161.163 172.848 160.267 172.848C160.211 172.484 160.099 172.057 159.931 171.567C159.763 171.077 159.588 170.664 159.406 170.328C159.756 170.342 160.12 170.356 160.498 170.37C160.876 170.384 161.212 170.391 161.506 170.391C161.814 170.377 162.031 170.37 162.157 170.37C162.353 170.356 162.486 170.321 162.556 170.265C162.626 170.195 162.661 170.076 162.661 169.908V157.413ZM159.007 155.292L160.288 153.234C160.89 153.36 161.548 153.521 162.262 153.717C162.976 153.913 163.69 154.13 164.404 154.368C165.118 154.606 165.79 154.851 166.42 155.103C167.064 155.341 167.603 155.579 168.037 155.817L166.693 158.148C166.273 157.91 165.755 157.658 165.139 157.392C164.537 157.126 163.879 156.86 163.165 156.594C162.465 156.328 161.758 156.083 161.044 155.859C160.33 155.635 159.651 155.446 159.007 155.292ZM159.133 161.592H159.637L160.078 161.487L161.758 162.201C161.422 163.671 160.967 165.008 160.393 166.212C159.819 167.416 159.154 168.473 158.398 169.383C157.642 170.279 156.837 171.021 155.983 171.609C155.843 171.427 155.654 171.217 155.416 170.979C155.178 170.727 154.926 170.489 154.66 170.265C154.394 170.027 154.156 169.845 153.946 169.719C154.772 169.215 155.528 168.585 156.214 167.829C156.914 167.073 157.516 166.205 158.02 165.225C158.524 164.245 158.895 163.195 159.133 162.075V161.592ZM184.228 154.074H196.45V155.67H184.228V154.074ZM184.984 156.384H195.799V157.896H184.984V156.384ZM189.226 153.15H191.683V157.266H189.226V153.15ZM186.349 160.017V161.256H194.266V160.017H186.349ZM184.312 158.484H196.429V162.789H184.312V158.484ZM187.294 166.254V166.905H193.405V166.254H187.294ZM187.294 167.808V168.48H193.405V167.808H187.294ZM187.294 164.721V165.33H193.405V164.721H187.294ZM185.047 163.419H195.736V169.761H185.047V163.419ZM191.242 171.042L192.103 169.467C192.929 169.719 193.776 170.006 194.644 170.328C195.512 170.636 196.233 170.909 196.807 171.147L195.799 172.89C195.253 172.638 194.56 172.337 193.72 171.987C192.88 171.637 192.054 171.322 191.242 171.042ZM188.512 169.425L190.087 171.021C189.247 171.371 188.344 171.721 187.378 172.071C186.412 172.435 185.544 172.75 184.774 173.016C184.676 172.764 184.543 172.47 184.375 172.134C184.221 171.812 184.06 171.525 183.892 171.273C184.354 171.133 184.865 170.958 185.425 170.748C185.999 170.538 186.559 170.321 187.105 170.097C187.651 169.859 188.12 169.635 188.512 169.425ZM187.861 159.051H189.709V162.243H187.861V159.051ZM191.095 159.051H192.943V162.243H191.095V159.051ZM181.918 161.907L183.598 161.445C183.766 161.921 183.92 162.432 184.06 162.978C184.214 163.524 184.347 164.049 184.459 164.553C184.571 165.043 184.655 165.477 184.711 165.855L182.926 166.422C182.884 166.03 182.814 165.575 182.716 165.057C182.618 164.539 182.499 164.007 182.359 163.461C182.219 162.901 182.072 162.383 181.918 161.907ZM180.154 167.283L181.834 166.989C181.946 167.759 182.044 168.592 182.128 169.488C182.226 170.384 182.282 171.168 182.296 171.84L180.511 172.155C180.525 171.707 180.511 171.203 180.469 170.643C180.441 170.083 180.399 169.509 180.343 168.921C180.287 168.333 180.224 167.787 180.154 167.283ZM177.949 167.031L179.86 167.325C179.776 168.319 179.65 169.306 179.482 170.286C179.328 171.266 179.132 172.092 178.894 172.764C178.698 172.652 178.404 172.533 178.012 172.407C177.634 172.281 177.319 172.19 177.067 172.134C177.305 171.476 177.494 170.685 177.634 169.761C177.774 168.837 177.879 167.927 177.949 167.031ZM177.739 161.508C177.697 161.354 177.634 161.158 177.55 160.92C177.48 160.668 177.396 160.416 177.298 160.164C177.214 159.912 177.13 159.695 177.046 159.513C177.228 159.457 177.41 159.331 177.592 159.135C177.774 158.925 177.963 158.666 178.159 158.358C178.299 158.162 178.502 157.798 178.768 157.266C179.048 156.72 179.342 156.083 179.65 155.355C179.958 154.613 180.224 153.871 180.448 153.129L182.506 153.948C182.212 154.704 181.869 155.474 181.477 156.258C181.099 157.028 180.7 157.763 180.28 158.463C179.86 159.163 179.447 159.793 179.041 160.353V160.416C179.041 160.416 178.971 160.451 178.831 160.521C178.705 160.591 178.551 160.682 178.369 160.794C178.201 160.906 178.054 161.025 177.928 161.151C177.802 161.277 177.739 161.396 177.739 161.508ZM177.739 161.508L177.676 159.786L178.684 159.156L182.296 158.883C182.24 159.177 182.191 159.513 182.149 159.891C182.107 160.269 182.079 160.584 182.065 160.836C181.001 160.948 180.175 161.046 179.587 161.13C179.013 161.2 178.593 161.263 178.327 161.319C178.075 161.375 177.879 161.438 177.739 161.508ZM177.907 166.38C177.865 166.24 177.802 166.044 177.718 165.792C177.634 165.54 177.543 165.281 177.445 165.015C177.361 164.749 177.277 164.525 177.193 164.343C177.445 164.273 177.69 164.119 177.928 163.881C178.166 163.629 178.439 163.307 178.747 162.915C178.915 162.719 179.153 162.397 179.461 161.949C179.769 161.487 180.112 160.948 180.49 160.332C180.868 159.702 181.239 159.03 181.603 158.316C181.981 157.588 182.317 156.86 182.611 156.132L184.522 157.266C184.06 158.218 183.535 159.17 182.947 160.122C182.373 161.074 181.764 161.991 181.12 162.873C180.476 163.741 179.832 164.525 179.188 165.225V165.309C179.188 165.309 179.125 165.344 178.999 165.414C178.873 165.484 178.719 165.575 178.537 165.687C178.369 165.799 178.222 165.918 178.096 166.044C177.97 166.17 177.907 166.282 177.907 166.38ZM177.907 166.38L177.802 164.637L178.81 163.944L183.598 163.377C183.556 163.671 183.514 164.014 183.472 164.406C183.444 164.784 183.437 165.085 183.451 165.309C182.373 165.463 181.498 165.596 180.826 165.708C180.154 165.82 179.622 165.918 179.23 166.002C178.852 166.072 178.565 166.135 178.369 166.191C178.173 166.247 178.019 166.31 177.907 166.38ZM182.128 166.884L183.682 166.422C183.892 167.024 184.095 167.682 184.291 168.396C184.487 169.096 184.627 169.698 184.711 170.202L183.094 170.748C183.01 170.23 182.877 169.614 182.695 168.9C182.513 168.172 182.324 167.5 182.128 166.884ZM208.987 154.347H219.235V156.762H208.987V154.347ZM214.3 160.899H216.883V169.971C216.883 170.629 216.799 171.147 216.631 171.525C216.477 171.917 216.169 172.211 215.707 172.407C215.245 172.589 214.678 172.701 214.006 172.743C213.334 172.799 212.529 172.827 211.591 172.827C211.535 172.463 211.43 172.029 211.276 171.525C211.136 171.035 210.982 170.615 210.814 170.265C211.22 170.279 211.626 170.293 212.032 170.307C212.438 170.321 212.802 170.328 213.124 170.328C213.446 170.314 213.67 170.307 213.796 170.307C213.992 170.307 214.125 170.279 214.195 170.223C214.265 170.153 214.3 170.048 214.3 169.908V160.899ZM208.084 160.185H219.781V162.579H208.084V160.185ZM203.359 162.663L205.564 160.437L205.879 160.563V172.911H203.359V162.663ZM205.732 157.728L208.126 158.652C207.58 159.576 206.943 160.507 206.215 161.445C205.501 162.369 204.745 163.244 203.947 164.07C203.163 164.896 202.393 165.617 201.637 166.233C201.525 166.051 201.364 165.827 201.154 165.561C200.944 165.281 200.727 165.001 200.503 164.721C200.293 164.441 200.097 164.217 199.915 164.049C200.643 163.545 201.364 162.957 202.078 162.285C202.792 161.599 203.464 160.871 204.094 160.101C204.724 159.317 205.27 158.526 205.732 157.728ZM204.934 153.15L207.37 154.158C206.852 154.816 206.271 155.488 205.627 156.174C204.983 156.846 204.311 157.49 203.611 158.106C202.911 158.722 202.225 159.261 201.553 159.723C201.455 159.527 201.322 159.303 201.154 159.051C200.986 158.785 200.811 158.526 200.629 158.274C200.461 158.022 200.3 157.812 200.146 157.644C200.734 157.28 201.329 156.839 201.931 156.321C202.533 155.803 203.1 155.271 203.632 154.725C204.164 154.165 204.598 153.64 204.934 153.15ZM223.918 166.737H233.725V168.522H223.918V166.737ZM223.456 156.741H233.956V158.568H223.456V156.741ZM227.614 155.271H229.903V170.328H227.614V155.271ZM223.33 170.076C224.212 170.02 225.22 169.95 226.354 169.866C227.488 169.782 228.685 169.691 229.945 169.593C231.219 169.481 232.486 169.369 233.746 169.257L233.767 171.168C232.577 171.294 231.373 171.42 230.155 171.546C228.951 171.672 227.789 171.784 226.669 171.882C225.563 171.994 224.548 172.099 223.624 172.197L223.33 170.076ZM225.997 163.398V164.343H231.541V163.398H225.997ZM225.997 160.962V161.907H231.541V160.962H225.997ZM224.002 159.387H233.62V165.918H224.002V159.387ZM232.612 153.276L233.704 155.145C232.822 155.327 231.828 155.488 230.722 155.628C229.63 155.754 228.51 155.859 227.362 155.943C226.214 156.013 225.115 156.062 224.065 156.09C224.023 155.824 223.946 155.523 223.834 155.187C223.736 154.837 223.624 154.536 223.498 154.284C224.282 154.242 225.087 154.193 225.913 154.137C226.739 154.067 227.551 153.99 228.349 153.906C229.161 153.822 229.924 153.731 230.638 153.633C231.366 153.521 232.024 153.402 232.612 153.276ZM233.935 157.917H241.222V160.227H233.935V157.917ZM240.193 157.917H242.608C242.608 157.917 242.608 157.987 242.608 158.127C242.608 158.267 242.608 158.428 242.608 158.61C242.608 158.778 242.608 158.918 242.608 159.03C242.552 161.186 242.496 163.02 242.44 164.532C242.384 166.03 242.321 167.269 242.251 168.249C242.195 169.215 242.104 169.971 241.978 170.517C241.866 171.063 241.726 171.455 241.558 171.693C241.32 172.043 241.068 172.288 240.802 172.428C240.55 172.582 240.249 172.694 239.899 172.764C239.577 172.82 239.185 172.848 238.723 172.848C238.261 172.862 237.778 172.862 237.274 172.848C237.26 172.498 237.183 172.092 237.043 171.63C236.917 171.168 236.756 170.769 236.56 170.433C237.008 170.475 237.421 170.503 237.799 170.517C238.177 170.531 238.464 170.538 238.66 170.538C238.828 170.538 238.968 170.51 239.08 170.454C239.192 170.398 239.297 170.307 239.395 170.181C239.507 170.013 239.605 169.691 239.689 169.215C239.773 168.725 239.843 168.032 239.899 167.136C239.969 166.226 240.025 165.057 240.067 163.629C240.123 162.201 240.165 160.472 240.193 158.442V157.917ZM235.951 153.507H238.366C238.366 155.299 238.345 157 238.303 158.61C238.275 160.22 238.184 161.739 238.03 163.167C237.89 164.581 237.645 165.897 237.295 167.115C236.959 168.319 236.483 169.418 235.867 170.412C235.251 171.406 234.46 172.281 233.494 173.037C233.368 172.827 233.2 172.603 232.99 172.365C232.794 172.127 232.584 171.896 232.36 171.672C232.15 171.462 231.94 171.287 231.73 171.147C232.612 170.475 233.326 169.705 233.872 168.837C234.418 167.955 234.838 166.982 235.132 165.918C235.426 164.84 235.629 163.664 235.741 162.39C235.853 161.102 235.916 159.723 235.93 158.253C235.944 156.769 235.951 155.187 235.951 153.507ZM246.724 153.948H253.843V156.195H246.724V153.948ZM248.929 158.421H252.541V160.479H248.929V158.421ZM248.929 162.705H252.541V164.763H248.929V162.705ZM247.501 155.145H249.517V168.333H247.501V155.145ZM251.113 155.145H253.213V172.89H251.113V155.145ZM246.388 167.808C247.2 167.696 248.159 167.556 249.265 167.388C250.385 167.22 251.519 167.045 252.667 166.863L252.835 168.921C251.799 169.117 250.763 169.313 249.727 169.509C248.691 169.691 247.739 169.859 246.871 170.013L246.388 167.808ZM257.497 160.08L258.946 159.723C259.072 160.087 259.198 160.486 259.324 160.92C259.464 161.354 259.59 161.774 259.702 162.18C259.814 162.586 259.898 162.936 259.954 163.23L258.442 163.692C258.358 163.216 258.225 162.642 258.043 161.97C257.875 161.284 257.693 160.654 257.497 160.08ZM254.032 159.576C254.004 159.394 253.955 159.17 253.885 158.904C253.829 158.624 253.759 158.344 253.675 158.064C253.605 157.77 253.535 157.525 253.465 157.329C253.619 157.287 253.766 157.21 253.906 157.098C254.046 156.972 254.193 156.804 254.347 156.594C254.445 156.468 254.599 156.237 254.809 155.901C255.033 155.565 255.271 155.166 255.523 154.704C255.775 154.228 255.992 153.738 256.174 153.234L257.959 153.99C257.553 154.816 257.091 155.628 256.573 156.426C256.055 157.21 255.551 157.847 255.061 158.337V158.379C255.061 158.379 254.977 158.449 254.809 158.589C254.641 158.729 254.466 158.89 254.284 159.072C254.116 159.254 254.032 159.422 254.032 159.576ZM254.032 159.576L254.011 158.232L254.704 157.686L257.518 157.56C257.462 157.784 257.406 158.05 257.35 158.358C257.294 158.652 257.252 158.89 257.224 159.072C256.44 159.142 255.831 159.205 255.397 159.261C254.963 159.303 254.648 159.352 254.452 159.408C254.27 159.45 254.13 159.506 254.032 159.576ZM253.927 163.482C253.899 163.328 253.85 163.118 253.78 162.852C253.724 162.586 253.661 162.313 253.591 162.033C253.535 161.739 253.472 161.494 253.402 161.298C253.584 161.256 253.773 161.151 253.969 160.983C254.179 160.815 254.396 160.598 254.62 160.332C254.788 160.15 255.054 159.828 255.418 159.366C255.782 158.904 256.174 158.358 256.594 157.728C257.014 157.084 257.399 156.419 257.749 155.733L259.408 156.615C258.736 157.707 258.015 158.757 257.245 159.765C256.475 160.773 255.719 161.62 254.977 162.306V162.369C254.977 162.369 254.886 162.432 254.704 162.558C254.536 162.67 254.361 162.817 254.179 162.999C254.011 163.167 253.927 163.328 253.927 163.482ZM253.927 163.482L253.906 162.054L254.62 161.487L259.009 161.067C259.009 161.319 259.023 161.592 259.051 161.886C259.093 162.18 259.121 162.425 259.135 162.621C258.085 162.747 257.238 162.852 256.594 162.936C255.95 163.02 255.446 163.097 255.082 163.167C254.732 163.223 254.473 163.279 254.305 163.335C254.137 163.377 254.011 163.426 253.927 163.482ZM263.755 159.975L265.141 159.513C265.365 160.059 265.603 160.668 265.855 161.34C266.107 161.998 266.289 162.551 266.401 162.999L264.931 163.587C264.819 163.111 264.644 162.53 264.406 161.844C264.182 161.158 263.965 160.535 263.755 159.975ZM260.038 159.45C259.996 159.296 259.947 159.093 259.891 158.841C259.835 158.575 259.772 158.309 259.702 158.043C259.632 157.777 259.562 157.553 259.492 157.371C259.786 157.315 260.073 157.091 260.353 156.699C260.451 156.573 260.612 156.342 260.836 156.006C261.06 155.67 261.298 155.278 261.55 154.83C261.802 154.368 262.019 153.892 262.201 153.402L263.797 154.242C263.405 155.012 262.964 155.761 262.474 156.489C261.998 157.203 261.536 157.791 261.088 158.253V158.316C261.088 158.316 260.997 158.379 260.815 158.505C260.647 158.631 260.472 158.778 260.29 158.946C260.122 159.114 260.038 159.282 260.038 159.45ZM260.038 159.45L260.017 158.085L260.71 157.56L263.482 157.434C263.426 157.658 263.37 157.917 263.314 158.211C263.258 158.505 263.223 158.75 263.209 158.946C262.411 159.016 261.795 159.079 261.361 159.135C260.941 159.177 260.64 159.226 260.458 159.282C260.276 159.324 260.136 159.38 260.038 159.45ZM260.332 163.503C260.304 163.335 260.262 163.125 260.206 162.873C260.15 162.621 260.087 162.362 260.017 162.096C259.947 161.816 259.877 161.578 259.807 161.382C259.989 161.34 260.171 161.235 260.353 161.067C260.549 160.899 260.752 160.675 260.962 160.395C261.116 160.213 261.347 159.884 261.655 159.408C261.977 158.932 262.327 158.372 262.705 157.728C263.083 157.07 263.419 156.398 263.713 155.712L265.33 156.573C264.77 157.665 264.154 158.722 263.482 159.744C262.824 160.752 262.166 161.613 261.508 162.327V162.348C261.508 162.348 261.452 162.383 261.34 162.453C261.228 162.523 261.088 162.621 260.92 162.747C260.766 162.859 260.626 162.985 260.5 163.125C260.388 163.251 260.332 163.377 260.332 163.503ZM260.332 163.503L260.29 162.054L261.004 161.466L265.372 160.878C265.386 161.116 265.407 161.382 265.435 161.676C265.463 161.97 265.498 162.208 265.54 162.39C264.476 162.558 263.622 162.705 262.978 162.831C262.334 162.943 261.837 163.041 261.487 163.125C261.137 163.195 260.878 163.265 260.71 163.335C260.556 163.391 260.43 163.447 260.332 163.503ZM257.224 163.713H259.324V166.863C259.324 167.591 259.219 168.333 259.009 169.089C258.813 169.845 258.428 170.559 257.854 171.231C257.294 171.917 256.475 172.505 255.397 172.995C255.327 172.827 255.208 172.631 255.04 172.407C254.872 172.183 254.704 171.959 254.536 171.735C254.368 171.525 254.214 171.371 254.074 171.273C255.012 170.881 255.705 170.44 256.153 169.95C256.601 169.46 256.888 168.949 257.014 168.417C257.154 167.871 257.224 167.339 257.224 166.821V163.713ZM254.767 166.758H258.589V168.858H254.767V166.758ZM260.185 163.713H262.348V172.89H260.185V163.713ZM254.221 163.734H256.237V168.858H254.221V163.734ZM263.377 163.86H265.414V169.572H263.377V163.86ZM261.382 166.695H264.553V168.858H261.382V166.695ZM280.681 153.78H286.372V155.733H280.681V153.78ZM280.702 156.93H286.393V158.652H280.702V156.93ZM280.513 159.891H286.393V161.634H280.513V159.891ZM279.526 153.78H281.815V158.064C281.815 158.848 281.745 159.681 281.605 160.563C281.479 161.445 281.22 162.299 280.828 163.125C280.436 163.951 279.848 164.672 279.064 165.288C278.952 165.134 278.784 164.952 278.56 164.742C278.35 164.532 278.126 164.329 277.888 164.133C277.664 163.937 277.468 163.783 277.3 163.671C277.972 163.139 278.462 162.558 278.77 161.928C279.092 161.284 279.295 160.626 279.379 159.954C279.477 159.282 279.526 158.638 279.526 158.022V153.78ZM285.406 153.78H287.905V162.621C287.905 163.167 287.835 163.594 287.695 163.902C287.555 164.21 287.303 164.448 286.939 164.616C286.575 164.784 286.134 164.889 285.616 164.931C285.112 164.973 284.524 164.994 283.852 164.994C283.782 164.686 283.656 164.336 283.474 163.944C283.306 163.538 283.138 163.202 282.97 162.936C283.39 162.95 283.803 162.957 284.209 162.957C284.615 162.957 284.888 162.957 285.028 162.957C285.168 162.957 285.266 162.936 285.322 162.894C285.378 162.838 285.406 162.747 285.406 162.621V153.78ZM271.861 157.56H276.439V159.408H271.861V157.56ZM270.769 154.095H273.058V163.902H270.769V154.095ZM271.861 154.095H277.951V162.873H271.861V160.92H275.662V156.048H271.861V154.095ZM269.572 170.139H289.207V172.302H269.572V170.139ZM272.05 165.393H286.876V171.231H284.419V167.346H282.592V171.231H280.282V167.346H278.476V171.231H276.187V167.346H274.402V171.231H272.05V165.393Z" fill="#0A5E66"/>
<defs>
<radialGradient id="paint0_radial_1455_2290" cx="0" cy="0" r="1" gradientUnits="userSpaceOnUse" gradientTransform="translate(175 99) rotate(90) scale(99 175)">
<stop offset="0.470486" stop-color="#CFF4FC"/>
<stop offset="1" stop-color="#CFF4FC" stop-opacity="0"/>
</radialGradient>
<radialGradient id="paint1_radial_1455_2290" cx="0" cy="0" r="1" gradientUnits="userSpaceOnUse" gradientTransform="translate(175 99) rotate(90) scale(99 175)">
<stop offset="0.470486" stop-color="#CFF4FC"/>
<stop offset="1" stop-color="#CFF4FC" stop-opacity="0"/>
</radialGradient>
<radialGradient id="paint2_radial_1455_2290" cx="0" cy="0" r="1" gradientUnits="userSpaceOnUse" gradientTransform="translate(175 99) rotate(90) scale(99 175)">
<stop offset="0.470486" stop-color="#CFF4FC"/>
<stop offset="1" stop-color="#CFF4FC" stop-opacity="0"/>
</radialGradient>
</defs>
</svg>
