<svg width="406" height="462" viewBox="0 0 406 462" fill="none" xmlns="http://www.w3.org/2000/svg">
<path d="M14.007 296.712V201.418H0V178.761H51.6336V201.418H37.6266V296.712H14.007Z" fill="#373737"/>
<path d="M59.2529 296.712L70.6508 178.761H110.612L121.872 296.712H99.4887L97.8408 277.626H83.5592L82.1859 296.712H59.2529ZM85.3444 258.814H96.0556L90.8373 198.809H89.7387L85.3444 258.814Z" fill="#373737"/>
<path d="M133.181 296.712V178.761H156.801V276.665H181.107V296.712H133.181Z" fill="#373737"/>
<path d="M191.882 296.712V178.761H239.121V201.555H215.913V224.486H238.16V246.731H215.913V273.781H240.631V296.712H191.882Z" fill="#373737"/>
<path d="M252.594 296.712V178.761H276.9L287.748 235.197V178.761H310.544V296.712H287.474L275.664 237.668V296.712H252.594Z" fill="#373737"/>
<path d="M335.269 296.712V201.418H321.262V178.761H372.895V201.418H358.888V296.712H335.269Z" fill="#373737"/>
<path d="M6.15491 331.474V320.284H22.2073V331.474H6.15491ZM6.15491 403.108V335.969H22.2073V403.108H6.15491Z" fill="#373737"/>
<path d="M31.3034 335.969H47.3557V344.499C48.0284 341.747 49.1903 339.515 50.8414 337.803C52.4925 336.091 54.6939 335.235 57.4458 335.235C61.971 335.235 65.3038 336.641 67.4441 339.454C69.6456 342.206 70.7463 346.15 70.7463 351.286V403.108H54.9691V352.937C54.9691 351.469 54.6634 350.216 54.0519 349.176C53.5015 348.137 52.6148 347.617 51.3917 347.617C49.7406 347.617 48.6399 348.381 48.0895 349.91C47.6003 351.378 47.3557 353.365 47.3557 355.872V403.108H31.3034V335.969Z" fill="#373737"/>
<path d="M111.143 403.108V339.454H101.787V324.32H136.276V339.454H126.92V403.108H111.143Z" fill="#373737"/>
<path d="M153.698 403.842C148.5 403.842 144.923 402.13 142.966 398.705C141.07 395.22 140.123 390.267 140.123 383.847C140.123 378.588 140.795 374.552 142.141 371.74C143.547 368.927 145.473 366.878 147.919 365.594C150.366 364.249 154.096 362.782 159.11 361.192L163.513 359.724V352.845C163.513 351.072 163.146 349.727 162.412 348.809C161.74 347.831 160.914 347.342 159.936 347.342C159.08 347.342 158.315 347.739 157.643 348.534C157.031 349.329 156.725 350.399 156.725 351.744V355.78H141.132V353.579C141.132 346.975 142.66 342.267 145.718 339.454C148.837 336.641 153.882 335.235 160.853 335.235C166.418 335.235 170.943 336.702 174.429 339.637C177.914 342.511 179.657 346.608 179.657 351.928V403.108H163.697V395.128C162.902 397.88 161.617 400.02 159.844 401.549C158.132 403.077 156.083 403.842 153.698 403.842ZM160.028 391.368C161.251 391.368 162.107 390.878 162.596 389.9C163.146 388.861 163.421 387.607 163.421 386.14V367.429C161.037 368.346 159.263 369.508 158.101 370.914C157.001 372.32 156.45 374.277 156.45 376.784V385.406C156.45 389.38 157.643 391.368 160.028 391.368Z" fill="#373737"/>
<path d="M188.5 331.474V320.284H204.552V331.474H188.5ZM188.5 403.108V335.969H204.552V403.108H188.5Z" fill="#373737"/>
<path d="M220.711 403.108L212.547 335.969H226.307L230.801 372.015L234.654 335.969H248.688L253.275 372.015L257.035 335.969H272.17L263.548 403.108H247.496L242.726 364.952L238.506 403.108H220.711Z" fill="#373737"/>
<path d="M292.469 403.842C287.271 403.842 283.694 402.13 281.737 398.705C279.841 395.22 278.893 390.267 278.893 383.847C278.893 378.588 279.566 374.552 280.911 371.74C282.318 368.927 284.244 366.878 286.69 365.594C289.136 364.249 292.866 362.782 297.881 361.192L302.284 359.724V352.845C302.284 351.072 301.917 349.727 301.183 348.809C300.51 347.831 299.685 347.342 298.706 347.342C297.85 347.342 297.086 347.739 296.413 348.534C295.802 349.329 295.496 350.399 295.496 351.744V355.78H279.902V353.579C279.902 346.975 281.431 342.267 284.488 339.454C287.607 336.641 292.652 335.235 299.624 335.235C305.188 335.235 309.714 336.702 313.199 339.637C316.685 342.511 318.428 346.608 318.428 351.928V403.108H302.467V395.128C301.672 397.88 300.388 400.02 298.615 401.549C296.902 403.077 294.854 403.842 292.469 403.842ZM298.798 391.368C300.021 391.368 300.877 390.878 301.366 389.9C301.917 388.861 302.192 387.607 302.192 386.14V367.429C299.807 368.346 298.034 369.508 296.872 370.914C295.771 372.32 295.221 374.277 295.221 376.784V385.406C295.221 389.38 296.413 391.368 298.798 391.368Z" fill="#373737"/>
<path d="M327.362 335.969H343.414V344.499C344.087 341.747 345.249 339.515 346.9 337.803C348.551 336.091 350.753 335.235 353.504 335.235C358.03 335.235 361.362 336.641 363.503 339.454C365.704 342.206 366.805 346.15 366.805 351.286V403.108H351.028V352.937C351.028 351.469 350.722 350.216 350.11 349.176C349.56 348.137 348.673 347.617 347.45 347.617C345.799 347.617 344.698 348.381 344.148 349.91C343.659 351.378 343.414 353.365 343.414 355.872V403.108H327.362V335.969Z" fill="#373737"/>
<path d="M381.764 314.714L386.774 296.712H377.068V273.858H405.56V295.929L397.889 314.714H381.764Z" fill="#009E96"/>
<path d="M0.358689 148.126C0.358689 141.073 1.43476 134.557 3.58689 128.579C5.85859 122.602 8.60854 117.222 11.8367 112.44C15.0649 107.658 19.3094 102.039 24.5702 95.5828C29.9505 88.8878 34.195 83.209 37.3037 78.5464C40.5319 73.8839 43.222 68.5637 45.3742 62.5861C47.6459 56.4889 48.7817 49.9135 48.7817 42.8598C48.7817 38.6754 48.1839 35.4475 46.9883 33.176C45.7926 30.7849 43.6405 29.5894 40.5319 29.5894C35.3906 29.5894 32.82 34.1922 32.82 43.3978V62.2274H0.358689L0 52.723C0 41.0067 1.19563 31.3827 3.58689 23.8509C5.97815 16.319 10.1629 10.5805 16.141 6.6352C22.1192 2.68995 30.369 0.717321 40.8905 0.717321C53.8034 0.717321 63.7869 4.36369 70.8411 11.6564C77.8953 18.8296 81.4224 29.0514 81.4224 42.3218C81.4224 50.8101 80.2268 58.5213 77.8355 65.4554C75.5638 72.2699 72.6943 78.2476 69.227 83.3883C65.8792 88.5291 61.3956 94.5666 55.7761 101.501C51.711 106.402 48.3035 110.766 45.5535 114.592C42.9231 118.417 40.5319 122.363 38.3797 126.427H80.3463V155.479H0.358689V148.126Z" fill="#009E96"/>
<path d="M133.278 156.914C120.246 156.914 110.203 153.267 103.148 145.974C96.0941 138.562 92.567 128.041 92.567 114.412V44.8324C92.567 30.247 95.9745 19.1285 102.79 11.4771C109.605 3.8257 119.768 0 133.278 0C146.908 0 157.131 3.8257 163.946 11.4771C170.761 19.1285 174.169 30.247 174.169 44.8324V114.412C174.169 128.161 170.642 138.682 163.587 145.974C156.533 153.267 146.43 156.914 133.278 156.914ZM133.278 128.579C135.55 128.579 137.403 127.563 138.838 125.531C140.273 123.379 140.99 120.868 140.99 117.999V41.9632C140.99 37.5397 140.452 34.1922 139.376 31.9207C138.419 29.5296 136.387 28.3341 133.278 28.3341C130.17 28.3341 128.137 29.5296 127.18 31.9207C126.224 34.1922 125.746 37.5397 125.746 41.9632V117.999C125.746 120.868 126.403 123.379 127.718 125.531C129.153 127.563 131.006 128.579 133.278 128.579Z" fill="#009E96"/>
<path d="M188.362 148.126C188.362 141.073 189.438 134.557 191.59 128.579C193.862 122.602 196.612 117.222 199.84 112.44C203.068 107.658 207.313 102.039 212.574 95.5828C217.954 88.8878 222.199 83.209 225.307 78.5464C228.535 73.8839 231.225 68.5637 233.378 62.5861C235.649 56.4889 236.785 49.9135 236.785 42.8598C236.785 38.6754 236.187 35.4475 234.992 33.176C233.796 30.7849 231.644 29.5894 228.535 29.5894C223.394 29.5894 220.824 34.1922 220.824 43.3978V62.2274H188.362L188.003 52.723C188.003 41.0067 189.199 31.3827 191.59 23.8509C193.982 16.319 198.166 10.5805 204.144 6.6352C210.123 2.68995 218.372 0.717321 228.894 0.717321C241.807 0.717321 251.79 4.36369 258.845 11.6564C265.899 18.8296 269.426 29.0514 269.426 42.3218C269.426 50.8101 268.23 58.5213 265.839 65.4554C263.567 72.2699 260.698 78.2476 257.23 83.3883C253.883 88.5291 249.399 94.5666 243.78 101.501C239.714 106.402 236.307 110.766 233.557 114.592C230.927 118.417 228.535 122.363 226.383 126.427H268.35V155.479H188.362V148.126Z" fill="#009E96"/>
<path d="M324.331 155.479V131.09H278.598V107.06L307.651 1.25531H355.716V105.446H363.966V131.09H355.716V155.479H324.331ZM306.037 105.446H324.331V27.7961L306.037 105.446Z" fill="#009E96"/>
<path d="M10.8427 455.14H29.2064V459.429H10.8427V455.14ZM8.66458 446.126H31.7196V461.105H26.9277V450.381H13.222V461.105H8.66458V446.126ZM22.8059 434.699L26.2575 432.386C27.2628 433.347 28.3351 434.419 29.4744 435.603C30.6138 436.765 31.6861 437.927 32.6914 439.088C33.6967 440.25 34.501 441.311 35.1042 442.272L31.3175 445.02C30.7813 444.059 30.0329 442.987 29.0723 441.803C28.134 440.596 27.1064 439.379 25.9894 438.15C24.8724 436.899 23.8112 435.749 22.8059 434.699ZM7.7598 444.048C7.71512 443.757 7.60342 443.355 7.4247 442.842C7.24598 442.328 7.05609 441.792 6.85503 441.233C6.6763 440.652 6.48641 440.172 6.28535 439.792C6.77684 439.68 7.23481 439.468 7.65927 439.155C8.08373 438.843 8.57522 438.418 9.13372 437.882C9.42414 437.614 9.83744 437.189 10.3736 436.609C10.9321 436.005 11.5353 435.291 12.1832 434.464C12.8534 433.637 13.5236 432.744 14.1938 431.783C14.8863 430.8 15.5118 429.806 16.0703 428.801L20.5607 430.744C19.6001 432.152 18.5501 433.537 17.4108 434.9C16.2714 436.24 15.0985 437.502 13.8922 438.686C12.6858 439.848 11.5018 440.898 10.3401 441.836V441.97C10.3401 441.97 10.206 442.037 9.93797 442.171C9.69223 442.305 9.39063 442.484 9.03319 442.707C8.69809 442.931 8.3965 443.165 8.12841 443.411C7.88267 443.657 7.7598 443.869 7.7598 444.048ZM7.7598 444.048L7.69278 440.596L10.6417 439.055L31.0159 438.452C31.0382 439.055 31.0941 439.759 31.1835 440.563C31.2728 441.367 31.351 442.004 31.418 442.473C28.2681 442.607 25.5202 442.73 23.1745 442.842C20.8511 442.953 18.874 443.054 17.2432 443.143C15.6124 443.21 14.2496 443.277 13.155 443.344C12.0826 443.411 11.2002 443.478 10.5076 443.545C9.83744 443.612 9.2901 443.69 8.86564 443.78C8.46352 443.847 8.0949 443.936 7.7598 444.048ZM57.1539 435.838H63.6214V437.781H57.1539V435.838ZM57.1539 438.485H63.6214V440.429H57.1539V438.485ZM52.5965 453.766H68.9495V456.38H52.5965V453.766ZM56.2156 432.822H64.2246V435.067H56.2156V432.822ZM59.6672 443.177V444.417H60.9741V443.177H59.6672ZM57.1539 441.267H63.6214V446.327H57.1539V441.267ZM52.9316 450.415H65.8666V449.544H50.7199V447.097H69.9548V452.828H52.9316V450.415ZM51.6582 450.415H55.7465C55.5231 451.442 55.2773 452.492 55.0092 453.565C54.7635 454.637 54.5178 455.575 54.272 456.38H50.1503C50.4407 455.553 50.7088 454.604 50.9545 453.531C51.2226 452.437 51.4572 451.398 51.6582 450.415ZM67.5086 453.766H71.6303C71.6303 453.766 71.608 453.956 71.5633 454.336C71.541 454.715 71.4851 455.028 71.3957 455.274C71.1723 456.592 70.9043 457.642 70.5915 458.424C70.2787 459.228 69.899 459.809 69.4522 460.166C69.0054 460.501 68.5139 460.736 67.9777 460.87C67.4415 461.004 66.8384 461.082 66.1681 461.105C65.5873 461.127 64.8166 461.127 63.8559 461.105C62.9177 461.105 61.9235 461.093 60.8735 461.071C60.8512 460.602 60.7283 460.055 60.5049 459.429C60.2815 458.826 60.0134 458.301 59.7007 457.854C60.6836 457.943 61.6666 457.999 62.6496 458.022C63.6325 458.044 64.3363 458.055 64.7607 458.055C65.0958 458.055 65.3751 458.044 65.5985 458.022C65.8219 457.977 66.0229 457.899 66.2017 457.787C66.4474 457.608 66.682 457.229 66.9054 456.648C67.1288 456.067 67.3187 455.251 67.475 454.201L67.5086 453.766ZM41.6387 432.922L44.1519 429.94C44.7104 430.208 45.3024 430.543 45.928 430.945C46.5758 431.325 47.1678 431.716 47.704 432.118C48.2625 432.52 48.7205 432.9 49.0779 433.258L46.3971 436.609C46.0843 436.229 45.6599 435.816 45.1237 435.369C44.6099 434.922 44.0402 434.486 43.4147 434.062C42.7892 433.637 42.1972 433.258 41.6387 432.922ZM40.9684 441.803L43.3812 438.72C43.9397 438.966 44.5317 439.267 45.1572 439.625C45.8051 439.982 46.4194 440.351 47.0003 440.73C47.5811 441.11 48.0391 441.468 48.3742 441.803L45.8274 445.187C45.5147 444.852 45.079 444.484 44.5205 444.081C43.962 443.657 43.37 443.244 42.7445 442.842C42.119 442.439 41.527 442.093 40.9684 441.803ZM41.7392 458.558C42.1636 457.664 42.6105 456.637 43.0796 455.475C43.5711 454.291 44.0626 453.04 44.554 451.722C45.0679 450.381 45.537 449.052 45.9615 447.734L49.4801 449.979C49.1226 451.186 48.7317 452.414 48.3072 453.665C47.8827 454.894 47.4471 456.112 47.0003 457.318C46.5758 458.502 46.1402 459.652 45.6934 460.77L41.7392 458.558ZM53.5348 437.58L55.2773 436.944C55.6124 437.502 55.914 438.128 56.1821 438.82C56.4502 439.491 56.6289 440.049 56.7183 440.496L54.9422 441.3C54.8305 440.809 54.6406 440.217 54.3725 439.524C54.1268 438.809 53.8476 438.161 53.5348 437.58ZM53.8029 442.171L55.4784 441.535C55.7018 442.071 55.9028 442.652 56.0816 443.277C56.2603 443.903 56.372 444.45 56.4167 444.919L54.6406 445.69C54.5959 445.221 54.4842 444.662 54.3055 444.014C54.1491 443.344 53.9816 442.73 53.8029 442.171ZM48.8098 442.138L50.854 442.674C50.7199 443.478 50.5412 444.282 50.3178 445.087C50.0944 445.891 49.8263 446.572 49.5136 447.131C49.3125 446.93 49.0221 446.706 48.6423 446.461C48.2849 446.193 47.9833 445.98 47.7375 445.824C48.0503 445.31 48.2737 444.729 48.4077 444.081C48.5641 443.434 48.6981 442.786 48.8098 442.138ZM48.8434 436.776C48.7987 436.62 48.687 436.363 48.5083 436.005C48.3519 435.626 48.1955 435.324 48.0391 435.101C48.2625 435.056 48.4524 434.955 48.6088 434.799C48.7875 434.62 48.9551 434.408 49.1114 434.162C49.2455 434.006 49.4465 433.704 49.7146 433.258C49.9827 432.788 50.2508 432.252 50.5189 431.649C50.7869 431.046 50.9992 430.443 51.1556 429.84L53.5013 430.677C53.1438 431.571 52.6524 432.487 52.0268 433.425C51.4013 434.341 50.7646 435.157 50.1167 435.871V435.905C50.1167 435.905 50.005 435.961 49.7816 436.072C49.5806 436.162 49.3683 436.274 49.1449 436.408C48.9439 436.542 48.8434 436.664 48.8434 436.776ZM48.8434 436.776L48.7763 435L50.1503 434.33L53.8699 434.196C53.7805 434.509 53.6912 434.866 53.6018 435.268C53.5348 435.648 53.4901 435.972 53.4678 436.24C52.4178 436.307 51.58 436.374 50.9545 436.441C50.329 436.508 49.8598 436.575 49.5471 436.642C49.2566 436.687 49.0221 436.731 48.8434 436.776ZM49.0109 441.3C48.9886 441.121 48.888 440.853 48.7093 440.496C48.5306 440.116 48.363 439.814 48.2067 439.591C48.4971 439.546 48.7652 439.423 49.0109 439.222C49.2566 438.999 49.5247 438.72 49.8152 438.385C50.0386 438.161 50.3737 437.759 50.8205 437.178C51.2673 436.597 51.7364 435.916 52.2279 435.134C52.7417 434.33 53.1773 433.526 53.5348 432.721L55.7465 433.727C55.0986 434.888 54.3167 436.05 53.4007 437.212C52.4848 438.373 51.5353 439.401 50.5524 440.295V440.362C50.5524 440.362 50.4183 440.418 50.1503 440.529C49.9045 440.641 49.6476 440.764 49.3795 440.898C49.1338 441.032 49.0109 441.166 49.0109 441.3ZM49.0109 441.3L48.8434 439.457L50.0832 438.787L55.0428 438.217C55.0874 438.508 55.1545 438.854 55.2438 439.256C55.3555 439.636 55.456 439.937 55.5454 440.161C53.8922 440.362 52.63 440.54 51.7587 440.697C50.9098 440.831 50.2955 440.943 49.9157 441.032C49.5359 441.121 49.2343 441.211 49.0109 441.3ZM51.1556 442.64L52.9986 442.171C53.1773 442.752 53.3226 443.389 53.4343 444.081C53.5683 444.774 53.6465 445.366 53.6688 445.857L51.7252 446.494C51.7029 445.958 51.6359 445.344 51.5242 444.651C51.4348 443.936 51.3119 443.266 51.1556 442.64ZM58.3268 430.51L61.1751 429.94C61.3985 430.32 61.6219 430.767 61.8453 431.28C62.0687 431.772 62.2363 432.185 62.348 432.52L59.3656 433.224C59.2762 432.844 59.131 432.409 58.9299 431.917C58.7289 431.403 58.5278 430.934 58.3268 430.51ZM69.5192 437.614L71.2282 436.977C71.5633 437.536 71.8649 438.161 72.133 438.854C72.4234 439.546 72.6133 440.127 72.7026 440.596L70.8931 441.334C70.8037 440.842 70.625 440.25 70.3569 439.558C70.0888 438.843 69.8096 438.195 69.5192 437.614ZM69.7202 442.205L71.3957 441.535C71.6638 442.182 71.9096 442.886 72.133 443.646C72.3564 444.405 72.5016 445.053 72.5686 445.589L70.7591 446.394C70.7144 445.835 70.5915 445.165 70.3904 444.383C70.1894 443.579 69.966 442.853 69.7202 442.205ZM64.7607 442.037L66.8384 442.573C66.7043 443.378 66.5256 444.182 66.3022 444.986C66.0788 445.79 65.8107 446.472 65.4979 447.03C65.2745 446.829 64.9841 446.595 64.6267 446.327C64.2692 446.059 63.9676 445.857 63.7219 445.723C64.0123 445.187 64.2357 444.606 64.3921 443.981C64.5485 443.333 64.6714 442.685 64.7607 442.037ZM64.8277 436.843C64.7607 436.664 64.6378 436.396 64.4591 436.039C64.3027 435.682 64.1575 435.38 64.0235 435.134C64.2246 435.089 64.4033 434.989 64.5597 434.833C64.7384 434.676 64.9171 434.464 65.0958 434.196C65.2299 434.04 65.4198 433.738 65.6655 433.291C65.9112 432.822 66.1793 432.286 66.4697 431.683C66.7602 431.079 66.9836 430.476 67.1399 429.873L69.4857 430.711C69.1282 431.604 68.6367 432.52 68.0112 433.459C67.3857 434.375 66.749 435.19 66.1011 435.905V435.938C66.1011 435.938 65.9894 435.994 65.766 436.106C65.565 436.195 65.3527 436.318 65.1293 436.475C64.9283 436.609 64.8277 436.731 64.8277 436.843ZM64.8277 436.843L64.7272 435.067L66.1346 434.363L69.8208 434.229C69.7314 434.542 69.642 434.9 69.5527 435.302C69.4857 435.682 69.4522 436.005 69.4522 436.274C68.3798 436.341 67.5309 436.408 66.9054 436.475C66.2799 436.542 65.8219 436.609 65.5315 436.676C65.241 436.72 65.0065 436.776 64.8277 436.843ZM64.9953 441.334C64.9506 441.155 64.8389 440.887 64.6602 440.529C64.4815 440.15 64.3139 439.848 64.1575 439.625C64.4703 439.58 64.7495 439.457 64.9953 439.256C65.241 439.033 65.5091 438.753 65.7995 438.418C66.0229 438.195 66.358 437.793 66.8048 437.212C67.2516 436.631 67.7208 435.95 68.2123 435.168C68.7261 434.386 69.1506 433.593 69.4857 432.788L71.7308 433.76C71.083 434.922 70.3011 436.084 69.3851 437.245C68.4692 438.407 67.5086 439.435 66.5033 440.328V440.395C66.5033 440.395 66.3804 440.451 66.1346 440.563C65.8889 440.675 65.632 440.797 65.3639 440.931C65.1182 441.065 64.9953 441.2 64.9953 441.334ZM64.9953 441.334L64.8277 439.491L66.0676 438.82L71.0271 438.251C71.0718 438.563 71.1388 438.91 71.2282 439.289C71.3399 439.669 71.4404 439.971 71.5298 440.194C69.8766 440.418 68.6144 440.596 67.7431 440.73C66.8942 440.864 66.2799 440.976 65.9001 441.065C65.5203 441.155 65.2187 441.244 64.9953 441.334ZM67.0059 442.741L68.849 442.238C69.05 442.864 69.2176 443.556 69.3516 444.316C69.4857 445.076 69.5527 445.712 69.5527 446.226L67.6091 446.863C67.6091 446.327 67.5532 445.668 67.4415 444.886C67.3298 444.104 67.1846 443.389 67.0059 442.741ZM90.9322 429.504H96.0593C96.0146 430.711 95.9476 432.129 95.8582 433.76C95.7689 435.369 95.5901 437.122 95.3221 439.021C95.054 440.92 94.6183 442.864 94.0152 444.852C93.4343 446.84 92.6189 448.818 91.5689 450.783C90.5189 452.727 89.1897 454.581 87.5812 456.346C85.995 458.111 84.0291 459.697 81.6834 461.105C81.3036 460.501 80.7786 459.865 80.1084 459.195C79.4382 458.547 78.7233 457.977 77.9638 457.486C80.2424 456.234 82.1302 454.827 83.627 453.263C85.1461 451.677 86.3748 450.002 87.3131 448.237C88.2737 446.472 88.9998 444.696 89.4913 442.909C89.9828 441.121 90.3179 439.39 90.4966 437.714C90.6976 436.039 90.8093 434.497 90.8317 433.09C90.8764 431.683 90.9099 430.487 90.9322 429.504ZM95.6572 433.593C95.7018 434.04 95.78 434.799 95.8917 435.871C96.0258 436.921 96.2492 438.172 96.5619 439.625C96.897 441.054 97.3774 442.573 98.0029 444.182C98.6507 445.79 99.4885 447.399 100.516 449.007C101.566 450.594 102.873 452.09 104.437 453.498C106.001 454.883 107.866 456.067 110.033 457.05C109.363 457.564 108.737 458.167 108.156 458.859C107.576 459.574 107.118 460.245 106.783 460.87C104.482 459.775 102.504 458.446 100.851 456.882C99.1981 455.296 97.813 453.598 96.696 451.789C95.6013 449.957 94.7189 448.125 94.0487 446.293C93.3785 444.461 92.8646 442.73 92.5072 441.099C92.1498 439.446 91.8928 438.005 91.7365 436.776C91.5801 435.547 91.4572 434.643 91.3678 434.062L95.6572 433.593ZM116.065 436.039H145.688V440.63H116.065V436.039ZM133.557 429.504H138.517V455.408C138.517 456.748 138.349 457.765 138.014 458.457C137.701 459.172 137.143 459.697 136.339 460.032C135.534 460.412 134.529 460.647 133.323 460.736C132.116 460.848 130.675 460.904 129 460.904C128.933 460.457 128.81 459.943 128.631 459.362C128.475 458.804 128.296 458.234 128.095 457.653C127.894 457.072 127.682 456.57 127.458 456.145C128.129 456.19 128.81 456.223 129.502 456.246C130.217 456.268 130.854 456.279 131.413 456.279C131.971 456.257 132.362 456.246 132.585 456.246C132.943 456.223 133.189 456.156 133.323 456.045C133.479 455.911 133.557 455.687 133.557 455.374V429.504ZM131.044 436.776L135.032 439.323C134.16 441.088 133.122 442.853 131.915 444.618C130.731 446.36 129.413 448.047 127.961 449.678C126.531 451.286 125.012 452.783 123.404 454.168C121.817 455.553 120.187 456.737 118.511 457.72C118.109 457.072 117.573 456.368 116.903 455.609C116.232 454.849 115.573 454.213 114.926 453.699C116.623 452.85 118.265 451.811 119.852 450.582C121.46 449.331 122.968 447.957 124.375 446.461C125.783 444.964 127.045 443.389 128.162 441.736C129.301 440.083 130.262 438.429 131.044 436.776ZM152.524 442.942H161.304V447.164H152.524V442.942ZM157.249 436.274H168.106V440.529H157.249V436.274ZM169.815 437.714C170.486 440.395 171.424 442.886 172.63 445.187C173.859 447.488 175.389 449.51 177.221 451.253C179.075 452.973 181.253 454.324 183.756 455.307C183.443 455.598 183.074 455.978 182.65 456.447C182.248 456.916 181.868 457.407 181.51 457.921C181.153 458.413 180.863 458.859 180.639 459.262C177.958 458.033 175.691 456.424 173.837 454.436C171.982 452.425 170.43 450.08 169.179 447.399C167.928 444.718 166.889 441.769 166.062 438.552L169.815 437.714ZM178.528 438.988L182.616 442.004C181.656 442.853 180.65 443.702 179.6 444.551C178.573 445.399 177.556 446.204 176.551 446.963C175.546 447.723 174.607 448.382 173.736 448.94L170.586 446.36C171.457 445.735 172.373 445.009 173.334 444.182C174.317 443.355 175.255 442.495 176.149 441.602C177.065 440.686 177.858 439.814 178.528 438.988ZM165.425 436.274H170.251V456.078C170.251 457.24 170.106 458.145 169.815 458.792C169.547 459.463 169.033 459.976 168.274 460.334C167.514 460.691 166.598 460.904 165.526 460.971C164.476 461.06 163.236 461.105 161.806 461.105C161.717 460.457 161.527 459.697 161.237 458.826C160.946 457.955 160.634 457.229 160.298 456.648C160.835 456.67 161.393 456.692 161.974 456.715C162.577 456.737 163.124 456.748 163.616 456.748C164.107 456.748 164.443 456.748 164.621 456.748C164.934 456.726 165.146 456.67 165.258 456.581C165.37 456.469 165.425 456.279 165.425 456.011V436.274ZM159.762 433.258L161.974 429.605C162.935 429.828 163.973 430.096 165.09 430.409C166.23 430.7 167.369 431.035 168.508 431.415C169.67 431.772 170.754 432.152 171.759 432.554C172.787 432.934 173.658 433.313 174.373 433.693L171.96 437.815C171.29 437.435 170.474 437.033 169.514 436.609C168.553 436.184 167.503 435.76 166.364 435.335C165.247 434.911 164.119 434.52 162.979 434.162C161.84 433.805 160.768 433.503 159.762 433.258ZM159.662 442.942H160.533L161.304 442.808L164.32 444.048C163.783 446.394 163.069 448.538 162.175 450.482C161.281 452.403 160.243 454.101 159.059 455.575C157.897 457.028 156.635 458.223 155.272 459.161C155.026 458.826 154.691 458.446 154.267 458.022C153.842 457.597 153.395 457.184 152.926 456.782C152.457 456.357 152.033 456.033 151.653 455.81C152.971 455.028 154.166 454.034 155.238 452.828C156.311 451.621 157.227 450.258 157.986 448.739C158.746 447.198 159.304 445.545 159.662 443.78V442.942ZM200.075 430.845H219.645V433.626H200.075V430.845ZM201.248 434.598H218.707V437.212H201.248V434.598ZM207.883 429.504H212.239V436.072H207.883V429.504ZM203.761 440.63V442.406H215.892V440.63H203.761ZM200.176 438.016H219.679V445.053H200.176V438.016ZM205.336 450.582V451.454H214.451V450.582H205.336ZM205.336 452.962V453.9H214.451V452.962H205.336ZM205.336 448.17V449.041H214.451V448.17H205.336ZM201.415 445.958H218.539V456.112H201.415V445.958ZM211.167 458.29L212.641 455.542C213.982 455.944 215.345 456.391 216.73 456.882C218.137 457.351 219.31 457.776 220.248 458.156L218.506 461.172C217.612 460.792 216.495 460.323 215.155 459.764C213.814 459.228 212.485 458.737 211.167 458.29ZM206.978 455.475L209.693 458.256C208.352 458.815 206.9 459.373 205.336 459.932C203.772 460.49 202.354 460.971 201.08 461.373C200.924 460.948 200.701 460.446 200.41 459.865C200.142 459.306 199.863 458.804 199.572 458.357C200.332 458.111 201.159 457.832 202.052 457.519C202.946 457.184 203.828 456.838 204.699 456.48C205.593 456.123 206.353 455.788 206.978 455.475ZM205.772 438.988H209.022V444.115H205.772V438.988ZM210.832 439.021H214.082V444.115H210.832V439.021ZM196.322 443.612L199.237 442.842C199.483 443.601 199.718 444.417 199.941 445.288C200.187 446.137 200.399 446.963 200.578 447.768C200.756 448.549 200.879 449.242 200.946 449.845L197.863 450.85C197.796 450.225 197.685 449.499 197.528 448.672C197.372 447.823 197.193 446.963 196.992 446.092C196.791 445.198 196.568 444.372 196.322 443.612ZM193.507 452.258L196.422 451.722C196.624 452.95 196.78 454.291 196.892 455.743C197.026 457.173 197.104 458.424 197.126 459.496L194.043 460.032C194.066 459.317 194.043 458.513 193.976 457.62C193.932 456.726 193.865 455.81 193.775 454.872C193.708 453.933 193.619 453.062 193.507 452.258ZM189.888 451.789L193.239 452.325C193.127 453.889 192.949 455.464 192.703 457.05C192.457 458.614 192.155 459.921 191.798 460.971C191.418 460.77 190.893 460.557 190.223 460.334C189.553 460.133 189.006 459.976 188.581 459.865C188.961 458.837 189.251 457.597 189.452 456.145C189.676 454.671 189.821 453.219 189.888 451.789ZM189.72 443.009C189.653 442.763 189.542 442.428 189.385 442.004C189.251 441.579 189.106 441.155 188.95 440.73C188.816 440.284 188.67 439.904 188.514 439.591C188.827 439.479 189.128 439.267 189.419 438.954C189.709 438.642 190 438.239 190.29 437.748C190.513 437.413 190.837 436.821 191.262 435.972C191.686 435.123 192.133 434.118 192.602 432.956C193.094 431.794 193.496 430.621 193.809 429.437L197.428 430.845C196.959 432.051 196.422 433.269 195.819 434.497C195.238 435.726 194.613 436.91 193.943 438.05C193.272 439.167 192.602 440.172 191.932 441.065V441.133C191.932 441.133 191.82 441.2 191.597 441.334C191.396 441.468 191.139 441.635 190.826 441.836C190.536 442.015 190.279 442.216 190.056 442.439C189.832 442.663 189.72 442.853 189.72 443.009ZM189.72 443.009L189.586 440.06L191.329 438.921L197.093 438.552C197.003 439.066 196.914 439.658 196.825 440.328C196.758 440.976 196.713 441.512 196.691 441.937C194.993 442.115 193.675 442.272 192.736 442.406C191.798 442.518 191.117 442.618 190.692 442.707C190.29 442.797 189.966 442.897 189.72 443.009ZM189.988 450.85C189.921 450.605 189.81 450.27 189.653 449.845C189.519 449.421 189.363 448.974 189.184 448.505C189.028 448.036 188.883 447.633 188.749 447.298C189.173 447.209 189.575 446.963 189.955 446.561C190.335 446.159 190.77 445.645 191.262 445.02C191.53 444.707 191.91 444.193 192.401 443.478C192.893 442.763 193.44 441.903 194.043 440.898C194.646 439.87 195.238 438.787 195.819 437.647C196.4 436.486 196.936 435.313 197.428 434.129L200.745 436.173C200.03 437.692 199.204 439.211 198.266 440.73C197.327 442.25 196.344 443.702 195.317 445.087C194.289 446.472 193.25 447.734 192.2 448.873V449.007C192.2 449.007 192.088 449.074 191.865 449.208C191.642 449.32 191.374 449.477 191.061 449.678C190.77 449.856 190.513 450.057 190.29 450.281C190.089 450.504 189.988 450.694 189.988 450.85ZM189.988 450.85L189.787 447.801L191.53 446.628L199.07 445.757C199.003 446.271 198.936 446.863 198.869 447.533C198.824 448.203 198.813 448.75 198.835 449.175C197.115 449.398 195.719 449.599 194.646 449.778C193.596 449.957 192.77 450.113 192.167 450.247C191.563 450.359 191.094 450.471 190.759 450.582C190.424 450.672 190.167 450.761 189.988 450.85ZM196.724 451.621L199.405 450.783C199.74 451.744 200.053 452.783 200.343 453.9C200.656 455.017 200.879 455.978 201.013 456.782L198.198 457.72C198.087 456.893 197.886 455.911 197.595 454.771C197.327 453.632 197.037 452.582 196.724 451.621ZM239.684 431.381H256.037V435.603H239.684V431.381ZM247.827 441.937H252.385V456.078C252.385 457.24 252.239 458.145 251.949 458.792C251.681 459.463 251.156 459.976 250.374 460.334C249.614 460.647 248.687 460.837 247.593 460.904C246.498 460.993 245.213 461.038 243.739 461.038C243.65 460.39 243.471 459.63 243.203 458.759C242.957 457.888 242.689 457.139 242.398 456.514C243.002 456.536 243.616 456.558 244.242 456.581C244.867 456.603 245.426 456.614 245.917 456.614C246.431 456.614 246.788 456.614 246.989 456.614C247.302 456.592 247.514 456.536 247.626 456.447C247.76 456.357 247.827 456.201 247.827 455.978V441.937ZM238.243 440.663H256.875V444.886H238.243V440.663ZM230.502 445.02L234.39 441.099L234.959 441.334V461.172H230.502V445.02ZM234.256 436.843L238.478 438.452C237.607 439.948 236.59 441.456 235.428 442.976C234.267 444.495 233.049 445.924 231.776 447.265C230.502 448.583 229.262 449.745 228.056 450.75C227.833 450.415 227.542 450.013 227.185 449.544C226.827 449.052 226.448 448.561 226.045 448.069C225.666 447.578 225.331 447.187 225.04 446.896C226.18 446.092 227.308 445.154 228.425 444.081C229.564 442.987 230.636 441.825 231.642 440.596C232.669 439.345 233.541 438.094 234.256 436.843ZM233.016 429.504L237.271 431.247C236.445 432.319 235.507 433.414 234.457 434.531C233.429 435.648 232.345 436.698 231.206 437.681C230.067 438.664 228.95 439.535 227.855 440.295C227.676 439.96 227.442 439.569 227.151 439.122C226.861 438.653 226.559 438.195 226.247 437.748C225.934 437.279 225.655 436.91 225.409 436.642C226.347 436.039 227.297 435.335 228.257 434.531C229.218 433.704 230.111 432.855 230.938 431.984C231.787 431.091 232.479 430.264 233.016 429.504ZM263.309 451.119H279.059V454.235H263.309V451.119ZM262.605 435.235H279.36V438.418H262.605V435.235ZM269.073 433.023H273.094V456.882H269.073V433.023ZM262.371 456.38C263.778 456.29 265.387 456.19 267.196 456.078C269.028 455.944 270.96 455.799 272.993 455.642C275.026 455.486 277.048 455.33 279.059 455.173L279.092 458.524C277.193 458.703 275.272 458.893 273.328 459.094C271.385 459.295 269.519 459.474 267.732 459.63C265.967 459.787 264.348 459.932 262.873 460.066L262.371 456.38ZM266.961 446.025V447.298H275.239V446.025H266.961ZM266.961 442.205V443.478H275.239V442.205H266.961ZM263.443 439.491H278.891V450.013H263.443V439.491ZM277.115 429.638L279.025 432.922C277.573 433.213 275.965 433.47 274.2 433.693C272.457 433.894 270.67 434.062 268.838 434.196C267.006 434.308 265.252 434.375 263.577 434.397C263.51 433.95 263.376 433.425 263.175 432.822C262.996 432.219 262.806 431.694 262.605 431.247C263.856 431.18 265.141 431.102 266.459 431.012C267.777 430.901 269.073 430.778 270.346 430.644C271.619 430.51 272.826 430.365 273.965 430.208C275.127 430.029 276.177 429.84 277.115 429.638ZM279.427 437.011H290.888V441.065H279.427V437.011ZM289.078 437.011H293.334C293.334 437.011 293.334 437.134 293.334 437.379C293.334 437.625 293.323 437.904 293.301 438.217C293.301 438.508 293.301 438.742 293.301 438.921C293.234 442.361 293.155 445.277 293.066 447.667C292.999 450.057 292.91 452.035 292.798 453.598C292.686 455.14 292.541 456.346 292.362 457.217C292.184 458.089 291.96 458.725 291.692 459.128C291.29 459.708 290.865 460.122 290.419 460.367C289.994 460.635 289.503 460.825 288.944 460.937C288.43 461.049 287.805 461.105 287.068 461.105C286.33 461.127 285.56 461.127 284.755 461.105C284.711 460.501 284.566 459.798 284.32 458.993C284.096 458.189 283.806 457.486 283.449 456.882C284.163 456.949 284.8 456.994 285.359 457.016C285.939 457.016 286.397 457.016 286.733 457.016C286.978 457.016 287.191 456.983 287.369 456.916C287.548 456.826 287.716 456.67 287.872 456.447C288.051 456.201 288.207 455.698 288.341 454.939C288.475 454.157 288.576 453.051 288.643 451.621C288.732 450.191 288.81 448.36 288.877 446.126C288.967 443.869 289.034 441.144 289.078 437.949V437.011ZM282.41 430.108H286.666C286.666 433.012 286.632 435.771 286.565 438.385C286.52 440.976 286.375 443.4 286.129 445.656C285.884 447.913 285.493 450.013 284.956 451.956C284.42 453.878 283.661 455.631 282.678 457.217C281.717 458.804 280.466 460.211 278.925 461.44C278.724 461.06 278.444 460.658 278.087 460.233C277.752 459.809 277.383 459.407 276.981 459.027C276.601 458.647 276.233 458.334 275.875 458.089C277.26 456.994 278.377 455.765 279.226 454.403C280.075 453.04 280.712 451.521 281.136 449.845C281.583 448.147 281.885 446.293 282.041 444.282C282.22 442.272 282.32 440.094 282.343 437.748C282.387 435.38 282.41 432.833 282.41 430.108ZM299.768 430.711H311.195V434.665H299.768V430.711ZM303.387 437.882H309.151V441.501H303.387V437.882ZM303.387 444.685H309.151V448.27H303.387V444.685ZM300.874 432.855H304.392V453.766H300.874V432.855ZM306.571 432.822H310.257V461.138H306.571V432.822ZM299.198 452.794C300.516 452.615 302.069 452.392 303.856 452.124C305.666 451.833 307.509 451.543 309.385 451.253L309.654 454.872C307.978 455.184 306.303 455.508 304.627 455.844C302.974 456.156 301.432 456.436 300.003 456.681L299.198 452.794ZM316.959 440.63L319.439 440.027C319.662 440.608 319.874 441.244 320.075 441.937C320.276 442.607 320.455 443.277 320.611 443.947C320.79 444.595 320.924 445.154 321.014 445.623L318.433 446.394C318.299 445.656 318.087 444.74 317.797 443.646C317.528 442.551 317.249 441.546 316.959 440.63ZM311.463 439.96C311.441 439.669 311.363 439.289 311.229 438.82C311.117 438.329 310.994 437.837 310.86 437.346C310.726 436.832 310.603 436.396 310.491 436.039C310.737 435.95 310.972 435.816 311.195 435.637C311.441 435.436 311.687 435.179 311.932 434.866C312.089 434.665 312.334 434.308 312.669 433.794C313.005 433.258 313.373 432.621 313.775 431.884C314.177 431.146 314.513 430.376 314.781 429.571L317.897 430.912C317.227 432.23 316.467 433.515 315.618 434.766C314.792 436.017 313.999 437.033 313.239 437.815V437.916C313.239 437.916 313.094 438.038 312.804 438.284C312.513 438.508 312.211 438.776 311.899 439.088C311.608 439.401 311.463 439.692 311.463 439.96ZM311.463 439.96V437.681L312.569 436.743L316.992 436.508C316.903 436.91 316.814 437.368 316.724 437.882C316.635 438.396 316.579 438.82 316.557 439.155C315.306 439.245 314.334 439.334 313.641 439.423C312.971 439.513 312.48 439.602 312.167 439.692C311.854 439.781 311.619 439.87 311.463 439.96ZM311.329 446.159C311.284 445.891 311.206 445.534 311.094 445.087C311.005 444.618 310.893 444.137 310.759 443.646C310.648 443.132 310.536 442.696 310.424 442.339C310.715 442.25 311.027 442.082 311.363 441.836C311.698 441.568 312.044 441.222 312.401 440.797C312.669 440.529 313.083 440.038 313.641 439.323C314.2 438.586 314.814 437.726 315.484 436.743C316.155 435.737 316.769 434.687 317.327 433.593L320.176 435.134C319.103 436.877 317.953 438.541 316.724 440.127C315.496 441.713 314.3 443.043 313.139 444.115V444.215C313.139 444.215 312.982 444.327 312.669 444.551C312.379 444.752 312.077 445.009 311.765 445.321C311.474 445.612 311.329 445.891 311.329 446.159ZM311.329 446.159L311.296 443.713L312.468 442.741L319.472 442.071C319.472 442.495 319.494 442.964 319.539 443.478C319.584 443.992 319.628 444.428 319.673 444.785C317.998 444.986 316.646 445.154 315.618 445.288C314.591 445.422 313.786 445.545 313.206 445.656C312.647 445.746 312.234 445.824 311.966 445.891C311.698 445.958 311.485 446.047 311.329 446.159ZM326.945 440.496L329.391 439.692C329.726 440.563 330.084 441.535 330.463 442.607C330.866 443.657 331.145 444.539 331.301 445.254L328.788 446.26C328.609 445.5 328.341 444.573 327.984 443.478C327.626 442.384 327.28 441.389 326.945 440.496ZM321.047 439.759C321.002 439.491 320.924 439.133 320.812 438.686C320.701 438.239 320.589 437.793 320.477 437.346C320.366 436.877 320.254 436.475 320.142 436.139C320.611 436.028 321.069 435.67 321.516 435.067C321.673 434.888 321.918 434.542 322.253 434.028C322.611 433.492 322.991 432.867 323.393 432.152C323.817 431.437 324.175 430.688 324.465 429.907L327.179 431.348C326.554 432.576 325.85 433.76 325.068 434.9C324.286 436.039 323.538 436.977 322.823 437.714V437.781C322.823 437.781 322.678 437.893 322.387 438.117C322.097 438.34 321.795 438.608 321.483 438.921C321.192 439.211 321.047 439.491 321.047 439.759ZM321.047 439.759V437.413L322.153 436.508L326.576 436.274C326.487 436.676 326.397 437.134 326.308 437.647C326.219 438.161 326.163 438.586 326.141 438.921C324.89 439.033 323.918 439.133 323.225 439.222C322.533 439.312 322.03 439.401 321.717 439.491C321.427 439.558 321.203 439.647 321.047 439.759ZM321.583 446.226C321.561 445.958 321.494 445.601 321.382 445.154C321.27 444.707 321.159 444.249 321.047 443.78C320.935 443.311 320.812 442.897 320.678 442.54C320.991 442.473 321.293 442.305 321.583 442.037C321.896 441.769 322.209 441.412 322.521 440.965C322.767 440.697 323.136 440.183 323.627 439.423C324.141 438.664 324.688 437.77 325.269 436.743C325.873 435.715 326.409 434.643 326.878 433.526L329.659 435.034C328.766 436.799 327.783 438.485 326.71 440.094C325.66 441.702 324.633 443.065 323.627 444.182V444.215C323.627 444.215 323.527 444.282 323.326 444.417C323.125 444.528 322.879 444.696 322.589 444.919C322.32 445.12 322.086 445.344 321.885 445.589C321.684 445.813 321.583 446.025 321.583 446.226ZM321.583 446.226L321.55 443.713L322.689 442.741L329.659 441.769C329.682 442.149 329.704 442.596 329.726 443.11C329.771 443.623 329.827 444.037 329.894 444.349C328.218 444.662 326.867 444.919 325.839 445.12C324.811 445.299 324.018 445.455 323.46 445.589C322.901 445.701 322.488 445.813 322.22 445.924C321.952 446.036 321.74 446.137 321.583 446.226ZM316.356 446.427H320.008V451.387C320.008 452.571 319.841 453.777 319.506 455.006C319.193 456.234 318.578 457.396 317.662 458.491C316.747 459.585 315.406 460.524 313.641 461.306C313.507 461.015 313.295 460.669 313.005 460.267C312.736 459.887 312.446 459.507 312.133 459.128C311.843 458.748 311.586 458.457 311.363 458.256C312.837 457.653 313.932 456.972 314.647 456.212C315.361 455.43 315.819 454.626 316.02 453.799C316.244 452.973 316.356 452.135 316.356 451.286V446.427ZM312.535 451.152H318.802V454.838H312.535V451.152ZM321.181 446.427H324.934V461.138H321.181V446.427ZM311.631 446.427H315.116V454.838H311.631V446.427ZM326.275 446.628H329.827V455.944H326.275V446.628ZM323.225 451.052H328.352V454.838H323.225V451.052ZM354.055 430.476H362.901V433.894H354.055V430.476ZM354.088 435.503H362.935V438.485H354.088V435.503ZM353.787 440.194H362.935V443.21H353.787V440.194ZM352.044 430.476H356.065V437.279C356.065 438.552 355.954 439.915 355.73 441.367C355.529 442.797 355.116 444.182 354.49 445.522C353.865 446.863 352.926 448.013 351.675 448.974C351.474 448.706 351.173 448.393 350.771 448.036C350.391 447.678 350 447.321 349.598 446.963C349.196 446.606 348.849 446.338 348.559 446.159C349.631 445.332 350.413 444.417 350.905 443.411C351.396 442.384 351.709 441.345 351.843 440.295C351.977 439.222 352.044 438.195 352.044 437.212V430.476ZM361.192 430.476H365.582V444.45C365.582 445.366 365.459 446.092 365.214 446.628C364.99 447.142 364.577 447.544 363.974 447.835C363.348 448.147 362.622 448.348 361.795 448.438C360.991 448.505 360.064 448.538 359.014 448.538C358.902 447.98 358.69 447.354 358.377 446.662C358.065 445.947 357.763 445.366 357.473 444.919C358.076 444.942 358.69 444.953 359.316 444.953C359.941 444.953 360.366 444.953 360.589 444.953C360.813 444.953 360.969 444.919 361.058 444.852C361.148 444.763 361.192 444.618 361.192 444.417V430.476ZM340.014 436.475H347.051V439.725H340.014V436.475ZM338.07 430.979H342.091V446.796H338.07V430.979ZM340.014 430.979H349.732V445.187H340.014V441.803H345.711V434.397H340.014V430.979ZM336.194 456.413H367.693V460.233H336.194V456.413ZM340.148 449.041H364.007V458.357H359.651V452.459H357.171V458.357H353.15V452.459H350.704V458.357H346.649V452.459H344.27V458.357H340.148V449.041Z" fill="#0A5E66"/>
</svg>
