<svg width="10" height="10" viewBox="0 0 10 10" fill="none" xmlns="http://www.w3.org/2000/svg">
<path d="M3.63377 1.44106C3.68445 1.01864 4.20596 0.84848 4.49601 1.15973L5.86519 2.62899C5.98311 2.75553 6.15806 2.81214 6.32775 2.77866L8.29811 2.38996C8.71551 2.30761 9.0385 2.75102 8.83211 3.12306L7.85786 4.87925C7.77395 5.0305 7.77418 5.21438 7.85845 5.36543L8.83701 7.11923C9.0443 7.49076 8.72241 7.93496 8.3048 7.85364L6.3335 7.46976C6.16372 7.4367 5.98892 7.49374 5.87131 7.62057L4.50573 9.09318C4.21645 9.40514 3.69452 9.23626 3.64281 8.81397L3.39873 6.82053C3.37771 6.64884 3.26945 6.50021 3.11248 6.42755L1.28996 5.58387C0.90387 5.40515 0.903198 4.85658 1.28884 4.67691L3.1093 3.82877C3.26608 3.75572 3.37398 3.60683 3.39458 3.43509L3.63377 1.44106Z" fill="#009E96"/>
</svg>
